<mxfile host="app.diagrams.net" modified="2022-10-25T12:58:39.855Z" agent="5.0 (Macintosh; Intel Mac OS X 10_15_7) AppleWebKit/537.36 (KHTML, like Gecko) Chrome/105.0.0.0 Safari/537.36" etag="Sxy5OIKKiUjlOjJk7rmj" version="20.5.1" type="github">
  <diagram id="U9NmqQDuDl-t8x4wuWcX" name="第 1 页">
    <mxGraphModel dx="2225" dy="1509" grid="0" gridSize="10" guides="1" tooltips="1" connect="0" arrows="1" fold="1" page="0" pageScale="1" pageWidth="827" pageHeight="1169" math="0" shadow="0">
      <root>
        <mxCell id="0" />
        <mxCell id="1" parent="0" />
        <mxCell id="QtSlfCLcQnxm3HbXBIQQ-2" value="用户" style="rounded=1;whiteSpace=wrap;html=1;fontSize=24;fillColor=#f5f5f5;fontColor=#333333;strokeColor=#666666;" parent="1" vertex="1">
          <mxGeometry x="378.82" y="50" width="172.37" height="110" as="geometry" />
        </mxCell>
        <mxCell id="QtSlfCLcQnxm3HbXBIQQ-3" value="" style="rounded=0;whiteSpace=wrap;html=1;fontSize=24;dashed=1;" parent="1" vertex="1">
          <mxGeometry x="180" y="230" width="590" height="580" as="geometry" />
        </mxCell>
        <mxCell id="QtSlfCLcQnxm3HbXBIQQ-6" value="GET Request" style="text;html=1;strokeColor=none;fillColor=none;align=center;verticalAlign=middle;whiteSpace=wrap;rounded=0;dashed=1;fontSize=24;" parent="1" vertex="1">
          <mxGeometry x="250" y="180" width="120" height="40" as="geometry" />
        </mxCell>
        <mxCell id="QtSlfCLcQnxm3HbXBIQQ-8" value="Data Response" style="text;html=1;strokeColor=none;fillColor=none;align=center;verticalAlign=middle;whiteSpace=wrap;rounded=0;dashed=1;fontSize=24;" parent="1" vertex="1">
          <mxGeometry x="545" y="170" width="140" height="60" as="geometry" />
        </mxCell>
        <mxCell id="QtSlfCLcQnxm3HbXBIQQ-9" value="" style="rounded=1;whiteSpace=wrap;html=1;fontSize=24;fillColor=#d5e8d4;strokeColor=#82b366;" parent="1" vertex="1">
          <mxGeometry x="200" y="290" width="550" height="470" as="geometry" />
        </mxCell>
        <mxCell id="6QyrNbSfhjnE2aK0devJ-2" value="SieveSlicer" style="text;html=1;strokeColor=none;fillColor=none;align=center;verticalAlign=middle;whiteSpace=wrap;rounded=0;dashed=1;fontSize=24;" parent="1" vertex="1">
          <mxGeometry x="395" y="310" width="140" height="30" as="geometry" />
        </mxCell>
        <mxCell id="Mw7In8H4w5vTyK6ZN-GI-3" value="" style="rounded=1;whiteSpace=wrap;html=1;fillColor=#B5CFFC;strokeColor=#6c8ebf;" parent="1" vertex="1">
          <mxGeometry x="260" y="400" width="420" height="150" as="geometry" />
        </mxCell>
        <mxCell id="6QyrNbSfhjnE2aK0devJ-5" value="&lt;font style=&quot;font-size: 18px;&quot;&gt;...Other&lt;br&gt;Adapter&lt;br&gt;&lt;/font&gt;" style="rounded=1;whiteSpace=wrap;html=1;fontSize=24;fillColor=#dae8fc;strokeColor=#6c8ebf;" parent="1" vertex="1">
          <mxGeometry x="540" y="410" width="115" height="60" as="geometry" />
        </mxCell>
        <mxCell id="6QyrNbSfhjnE2aK0devJ-6" value="Filter（清除冗余）" style="rounded=1;whiteSpace=wrap;html=1;fontSize=18;fillColor=#fff2cc;strokeColor=#d6b656;dashed=1;dashPattern=1 2;" parent="1" vertex="1">
          <mxGeometry x="273.75" y="350" width="390" height="40" as="geometry" />
        </mxCell>
        <mxCell id="6QyrNbSfhjnE2aK0devJ-4" value="&lt;font style=&quot;font-size: 18px;&quot;&gt;Promethus&lt;br&gt;Adapter&lt;br&gt;&lt;/font&gt;" style="rounded=1;whiteSpace=wrap;html=1;fontSize=24;fillColor=#dae8fc;strokeColor=#6c8ebf;" parent="1" vertex="1">
          <mxGeometry x="407.5" y="410" width="115" height="60" as="geometry" />
        </mxCell>
        <mxCell id="6QyrNbSfhjnE2aK0devJ-3" value="&lt;font style=&quot;font-size: 18px;&quot;&gt;ES &lt;br&gt;Adapter&lt;/font&gt;" style="rounded=1;whiteSpace=wrap;html=1;fontSize=24;fillColor=#dae8fc;strokeColor=#6c8ebf;" parent="1" vertex="1">
          <mxGeometry x="280" y="410" width="110" height="60" as="geometry" />
        </mxCell>
        <mxCell id="Mw7In8H4w5vTyK6ZN-GI-4" value="注册中心" style="text;html=1;strokeColor=none;fillColor=none;align=center;verticalAlign=middle;whiteSpace=wrap;rounded=0;fontSize=18;" parent="1" vertex="1">
          <mxGeometry x="418.75" y="490" width="100" height="30" as="geometry" />
        </mxCell>
        <mxCell id="Mw7In8H4w5vTyK6ZN-GI-19" value="" style="group" parent="1" vertex="1" connectable="0">
          <mxGeometry x="220" y="570" width="150" height="150" as="geometry" />
        </mxCell>
        <mxCell id="Mw7In8H4w5vTyK6ZN-GI-17" value="" style="shape=card;whiteSpace=wrap;html=1;fontSize=10;fillColor=#B5CFFC;" parent="Mw7In8H4w5vTyK6ZN-GI-19" vertex="1">
          <mxGeometry width="150" height="150" as="geometry" />
        </mxCell>
        <mxCell id="Mw7In8H4w5vTyK6ZN-GI-11" value="" style="group" parent="Mw7In8H4w5vTyK6ZN-GI-19" vertex="1" connectable="0">
          <mxGeometry width="110" height="90" as="geometry" />
        </mxCell>
        <mxCell id="Mw7In8H4w5vTyK6ZN-GI-5" value="" style="shape=card;whiteSpace=wrap;html=1;fontSize=18;fillColor=#B5CFFC;" parent="Mw7In8H4w5vTyK6ZN-GI-11" vertex="1">
          <mxGeometry width="110" height="90" as="geometry" />
        </mxCell>
        <mxCell id="Mw7In8H4w5vTyK6ZN-GI-6" value="type: es" style="text;html=1;strokeColor=none;fillColor=none;align=center;verticalAlign=middle;whiteSpace=wrap;rounded=0;fontSize=18;" parent="Mw7In8H4w5vTyK6ZN-GI-11" vertex="1">
          <mxGeometry x="15" y="10" width="80" height="30" as="geometry" />
        </mxCell>
        <mxCell id="Mw7In8H4w5vTyK6ZN-GI-9" value="standardize&lt;br&gt;rules" style="text;html=1;strokeColor=none;fillColor=none;align=center;verticalAlign=middle;whiteSpace=wrap;rounded=0;fontSize=18;" parent="Mw7In8H4w5vTyK6ZN-GI-11" vertex="1">
          <mxGeometry y="25" width="110" height="65" as="geometry" />
        </mxCell>
        <mxCell id="Mw7In8H4w5vTyK6ZN-GI-18" value="DataSource" style="text;html=1;strokeColor=none;fillColor=none;align=center;verticalAlign=middle;whiteSpace=wrap;rounded=0;fontSize=24;" parent="Mw7In8H4w5vTyK6ZN-GI-19" vertex="1">
          <mxGeometry y="100" width="150" height="40" as="geometry" />
        </mxCell>
        <mxCell id="Mw7In8H4w5vTyK6ZN-GI-27" value="" style="group" parent="1" vertex="1" connectable="0">
          <mxGeometry x="395" y="570" width="150" height="150" as="geometry" />
        </mxCell>
        <mxCell id="Mw7In8H4w5vTyK6ZN-GI-28" value="" style="shape=card;whiteSpace=wrap;html=1;fontSize=10;fillColor=#B5CFFC;" parent="Mw7In8H4w5vTyK6ZN-GI-27" vertex="1">
          <mxGeometry width="150" height="150" as="geometry" />
        </mxCell>
        <mxCell id="Mw7In8H4w5vTyK6ZN-GI-29" value="" style="group" parent="Mw7In8H4w5vTyK6ZN-GI-27" vertex="1" connectable="0">
          <mxGeometry width="110" height="90" as="geometry" />
        </mxCell>
        <mxCell id="Mw7In8H4w5vTyK6ZN-GI-30" value="" style="shape=card;whiteSpace=wrap;html=1;fontSize=18;fillColor=#B5CFFC;" parent="Mw7In8H4w5vTyK6ZN-GI-29" vertex="1">
          <mxGeometry width="110" height="90" as="geometry" />
        </mxCell>
        <mxCell id="Mw7In8H4w5vTyK6ZN-GI-31" value="type: pr" style="text;html=1;strokeColor=none;fillColor=none;align=center;verticalAlign=middle;whiteSpace=wrap;rounded=0;fontSize=18;" parent="Mw7In8H4w5vTyK6ZN-GI-29" vertex="1">
          <mxGeometry x="15" y="10" width="80" height="30" as="geometry" />
        </mxCell>
        <mxCell id="Mw7In8H4w5vTyK6ZN-GI-32" value="standardize&lt;br&gt;rules" style="text;html=1;strokeColor=none;fillColor=none;align=center;verticalAlign=middle;whiteSpace=wrap;rounded=0;fontSize=18;" parent="Mw7In8H4w5vTyK6ZN-GI-29" vertex="1">
          <mxGeometry y="25" width="110" height="65" as="geometry" />
        </mxCell>
        <mxCell id="Mw7In8H4w5vTyK6ZN-GI-33" value="DataSource" style="text;html=1;strokeColor=none;fillColor=none;align=center;verticalAlign=middle;whiteSpace=wrap;rounded=0;fontSize=24;" parent="Mw7In8H4w5vTyK6ZN-GI-27" vertex="1">
          <mxGeometry y="100" width="150" height="40" as="geometry" />
        </mxCell>
        <mxCell id="Mw7In8H4w5vTyK6ZN-GI-34" value="" style="group" parent="1" vertex="1" connectable="0">
          <mxGeometry x="568.75" y="570" width="150" height="150" as="geometry" />
        </mxCell>
        <mxCell id="Mw7In8H4w5vTyK6ZN-GI-35" value="" style="shape=card;whiteSpace=wrap;html=1;fontSize=10;fillColor=#B5CFFC;" parent="Mw7In8H4w5vTyK6ZN-GI-34" vertex="1">
          <mxGeometry width="150" height="150" as="geometry" />
        </mxCell>
        <mxCell id="Mw7In8H4w5vTyK6ZN-GI-36" value="" style="group" parent="Mw7In8H4w5vTyK6ZN-GI-34" vertex="1" connectable="0">
          <mxGeometry width="110" height="90" as="geometry" />
        </mxCell>
        <mxCell id="Mw7In8H4w5vTyK6ZN-GI-37" value="" style="shape=card;whiteSpace=wrap;html=1;fontSize=18;fillColor=#B5CFFC;" parent="Mw7In8H4w5vTyK6ZN-GI-36" vertex="1">
          <mxGeometry width="110" height="90" as="geometry" />
        </mxCell>
        <mxCell id="Mw7In8H4w5vTyK6ZN-GI-38" value="type: ..." style="text;html=1;strokeColor=none;fillColor=none;align=center;verticalAlign=middle;whiteSpace=wrap;rounded=0;fontSize=18;" parent="Mw7In8H4w5vTyK6ZN-GI-36" vertex="1">
          <mxGeometry x="15" y="10" width="80" height="30" as="geometry" />
        </mxCell>
        <mxCell id="Mw7In8H4w5vTyK6ZN-GI-39" value="standardize&lt;br&gt;rules" style="text;html=1;strokeColor=none;fillColor=none;align=center;verticalAlign=middle;whiteSpace=wrap;rounded=0;fontSize=18;" parent="Mw7In8H4w5vTyK6ZN-GI-36" vertex="1">
          <mxGeometry y="25" width="110" height="65" as="geometry" />
        </mxCell>
        <mxCell id="Mw7In8H4w5vTyK6ZN-GI-40" value="..." style="text;html=1;strokeColor=none;fillColor=none;align=center;verticalAlign=middle;whiteSpace=wrap;rounded=0;fontSize=24;" parent="Mw7In8H4w5vTyK6ZN-GI-34" vertex="1">
          <mxGeometry y="100" width="150" height="40" as="geometry" />
        </mxCell>
        <mxCell id="Mw7In8H4w5vTyK6ZN-GI-42" value="Server" style="rounded=1;whiteSpace=wrap;html=1;fontSize=24;fillColor=#d5e8d4;strokeColor=#82b366;" parent="1" vertex="1">
          <mxGeometry x="290" y="250" width="350" height="40" as="geometry" />
        </mxCell>
        <mxCell id="Mw7In8H4w5vTyK6ZN-GI-43" value="" style="shape=flexArrow;endArrow=classic;html=1;rounded=1;fontSize=24;entryX=0.25;entryY=0;entryDx=0;entryDy=0;fillColor=#f5f5f5;strokeColor=#666666;" parent="1" target="Mw7In8H4w5vTyK6ZN-GI-42" edge="1">
          <mxGeometry width="50" height="50" relative="1" as="geometry">
            <mxPoint x="378" y="160" as="sourcePoint" />
            <mxPoint x="350" y="170" as="targetPoint" />
          </mxGeometry>
        </mxCell>
        <mxCell id="Mw7In8H4w5vTyK6ZN-GI-44" value="" style="shape=flexArrow;endArrow=classic;html=1;rounded=1;fontSize=24;exitX=0.75;exitY=0;exitDx=0;exitDy=0;fillColor=#f5f5f5;strokeColor=#666666;" parent="1" source="Mw7In8H4w5vTyK6ZN-GI-42" edge="1">
          <mxGeometry width="50" height="50" relative="1" as="geometry">
            <mxPoint x="568.8800000000001" y="120" as="sourcePoint" />
            <mxPoint x="553" y="160" as="targetPoint" />
          </mxGeometry>
        </mxCell>
        <mxCell id="Mw7In8H4w5vTyK6ZN-GI-45" value="es" style="shape=cylinder3;whiteSpace=wrap;html=1;boundedLbl=1;backgroundOutline=1;size=15;fontSize=24;fillColor=#f5f5f5;fontColor=#333333;strokeColor=#666666;" parent="1" vertex="1">
          <mxGeometry x="220" y="830" width="140" height="80" as="geometry" />
        </mxCell>
        <mxCell id="Mw7In8H4w5vTyK6ZN-GI-46" value="es" style="shape=cylinder3;whiteSpace=wrap;html=1;boundedLbl=1;backgroundOutline=1;size=15;fontSize=24;fillColor=#f5f5f5;fontColor=#333333;strokeColor=#666666;" parent="1" vertex="1">
          <mxGeometry x="378.82" y="830" width="140" height="80" as="geometry" />
        </mxCell>
        <mxCell id="Mw7In8H4w5vTyK6ZN-GI-47" value="es" style="shape=cylinder3;whiteSpace=wrap;html=1;boundedLbl=1;backgroundOutline=1;size=15;fontSize=24;fillColor=#f5f5f5;fontColor=#333333;strokeColor=#666666;" parent="1" vertex="1">
          <mxGeometry x="540" y="830" width="140" height="80" as="geometry" />
        </mxCell>
        <mxCell id="Mw7In8H4w5vTyK6ZN-GI-48" value="pr" style="shape=cylinder3;whiteSpace=wrap;html=1;boundedLbl=1;backgroundOutline=1;size=15;fontSize=24;fillColor=#f5f5f5;fontColor=#333333;strokeColor=#666666;" parent="1" vertex="1">
          <mxGeometry x="218.82" y="920" width="140" height="80" as="geometry" />
        </mxCell>
        <mxCell id="Mw7In8H4w5vTyK6ZN-GI-49" value="pr" style="shape=cylinder3;whiteSpace=wrap;html=1;boundedLbl=1;backgroundOutline=1;size=15;fontSize=24;fillColor=#f5f5f5;fontColor=#333333;strokeColor=#666666;" parent="1" vertex="1">
          <mxGeometry x="377.64" y="920" width="140" height="80" as="geometry" />
        </mxCell>
        <mxCell id="Mw7In8H4w5vTyK6ZN-GI-50" value="pr" style="shape=cylinder3;whiteSpace=wrap;html=1;boundedLbl=1;backgroundOutline=1;size=15;fontSize=24;fillColor=#f5f5f5;fontColor=#333333;strokeColor=#666666;" parent="1" vertex="1">
          <mxGeometry x="538.82" y="920" width="140" height="80" as="geometry" />
        </mxCell>
        <mxCell id="Mw7In8H4w5vTyK6ZN-GI-51" value="" style="curved=1;endArrow=classic;html=1;rounded=1;fontSize=24;entryX=0;entryY=0.5;entryDx=0;entryDy=0;entryPerimeter=0;" parent="1" target="Mw7In8H4w5vTyK6ZN-GI-48" edge="1">
          <mxGeometry width="50" height="50" relative="1" as="geometry">
            <mxPoint x="60" y="1190" as="sourcePoint" />
            <mxPoint x="140" y="1050" as="targetPoint" />
            <Array as="points">
              <mxPoint x="200" y="1160" />
              <mxPoint x="90" y="970" />
            </Array>
          </mxGeometry>
        </mxCell>
        <mxCell id="Mw7In8H4w5vTyK6ZN-GI-54" value="" style="curved=1;endArrow=classic;html=1;rounded=1;fontSize=24;entryX=0;entryY=0.5;entryDx=0;entryDy=0;entryPerimeter=0;" parent="1" target="Mw7In8H4w5vTyK6ZN-GI-45" edge="1">
          <mxGeometry width="50" height="50" relative="1" as="geometry">
            <mxPoint x="20" y="1190" as="sourcePoint" />
            <mxPoint x="158.81999999999994" y="950" as="targetPoint" />
            <Array as="points">
              <mxPoint x="159" y="1130" />
              <mxPoint x="30" y="980" />
              <mxPoint x="120" y="870" />
            </Array>
          </mxGeometry>
        </mxCell>
        <mxCell id="Mw7In8H4w5vTyK6ZN-GI-55" value="" style="endArrow=classic;startArrow=classic;html=1;rounded=1;fontSize=24;entryX=0.5;entryY=1;entryDx=0;entryDy=0;entryPerimeter=0;exitX=0.5;exitY=0;exitDx=0;exitDy=0;exitPerimeter=0;" parent="1" source="Mw7In8H4w5vTyK6ZN-GI-45" target="Mw7In8H4w5vTyK6ZN-GI-17" edge="1">
          <mxGeometry width="50" height="50" relative="1" as="geometry">
            <mxPoint x="370" y="720" as="sourcePoint" />
            <mxPoint x="420" y="670" as="targetPoint" />
          </mxGeometry>
        </mxCell>
        <mxCell id="Mw7In8H4w5vTyK6ZN-GI-56" value="" style="endArrow=classic;startArrow=classic;html=1;rounded=1;fontSize=24;exitX=0.5;exitY=0;exitDx=0;exitDy=0;exitPerimeter=0;entryX=0.5;entryY=1;entryDx=0;entryDy=0;entryPerimeter=0;" parent="1" source="Mw7In8H4w5vTyK6ZN-GI-49" target="Mw7In8H4w5vTyK6ZN-GI-28" edge="1">
          <mxGeometry width="50" height="50" relative="1" as="geometry">
            <mxPoint x="370" y="720" as="sourcePoint" />
            <mxPoint x="420" y="670" as="targetPoint" />
            <Array as="points">
              <mxPoint x="370" y="910" />
              <mxPoint x="370" y="780" />
            </Array>
          </mxGeometry>
        </mxCell>
        <mxCell id="Mw7In8H4w5vTyK6ZN-GI-57" value="" style="endArrow=classic;startArrow=classic;html=1;rounded=1;fontSize=24;exitX=0.5;exitY=0;exitDx=0;exitDy=0;exitPerimeter=0;entryX=0.5;entryY=1;entryDx=0;entryDy=0;entryPerimeter=0;" parent="1" source="Mw7In8H4w5vTyK6ZN-GI-60" target="Mw7In8H4w5vTyK6ZN-GI-35" edge="1">
          <mxGeometry width="50" height="50" relative="1" as="geometry">
            <mxPoint x="610" y="780" as="sourcePoint" />
            <mxPoint x="660" y="730" as="targetPoint" />
            <Array as="points">
              <mxPoint x="690" y="1000" />
              <mxPoint x="690" y="860" />
            </Array>
          </mxGeometry>
        </mxCell>
        <mxCell id="Mw7In8H4w5vTyK6ZN-GI-58" value="..." style="shape=cylinder3;whiteSpace=wrap;html=1;boundedLbl=1;backgroundOutline=1;size=15;fontSize=24;fillColor=#f5f5f5;fontColor=#333333;strokeColor=#666666;" parent="1" vertex="1">
          <mxGeometry x="218.82" y="1010" width="140" height="80" as="geometry" />
        </mxCell>
        <mxCell id="Mw7In8H4w5vTyK6ZN-GI-59" value="..." style="shape=cylinder3;whiteSpace=wrap;html=1;boundedLbl=1;backgroundOutline=1;size=15;fontSize=24;fillColor=#f5f5f5;fontColor=#333333;strokeColor=#666666;" parent="1" vertex="1">
          <mxGeometry x="377.64" y="1010" width="140" height="80" as="geometry" />
        </mxCell>
        <mxCell id="Mw7In8H4w5vTyK6ZN-GI-60" value="..." style="shape=cylinder3;whiteSpace=wrap;html=1;boundedLbl=1;backgroundOutline=1;size=15;fontSize=24;fillColor=#f5f5f5;fontColor=#333333;strokeColor=#666666;" parent="1" vertex="1">
          <mxGeometry x="538.82" y="1010" width="140" height="80" as="geometry" />
        </mxCell>
        <mxCell id="Mw7In8H4w5vTyK6ZN-GI-61" value="" style="curved=1;endArrow=classic;html=1;rounded=1;fontSize=24;entryX=0;entryY=0.5;entryDx=0;entryDy=0;entryPerimeter=0;" parent="1" target="Mw7In8H4w5vTyK6ZN-GI-58" edge="1">
          <mxGeometry width="50" height="50" relative="1" as="geometry">
            <mxPoint x="110" y="1190" as="sourcePoint" />
            <mxPoint x="140" y="1140" as="targetPoint" />
            <Array as="points">
              <mxPoint x="300" y="1170" />
              <mxPoint x="150" y="1100" />
            </Array>
          </mxGeometry>
        </mxCell>
        <mxCell id="Mw7In8H4w5vTyK6ZN-GI-64" value="Messed&lt;br&gt;logstash、 otherCollectors" style="shape=parallelogram;perimeter=parallelogramPerimeter;whiteSpace=wrap;html=1;fixedSize=1;fontSize=24;fillColor=#f5f5f5;fontColor=#333333;strokeColor=#666666;size=20;" parent="1" vertex="1">
          <mxGeometry x="77.5" y="1290" width="330" height="100" as="geometry" />
        </mxCell>
        <mxCell id="Mw7In8H4w5vTyK6ZN-GI-66" value="&lt;span style=&quot;color: rgb(0, 0, 0);&quot;&gt;Messed Files、Stdout、Events...&lt;/span&gt;" style="ellipse;shape=cloud;whiteSpace=wrap;html=1;fontSize=24;fillColor=#f5f5f5;fontColor=#333333;strokeColor=#666666;" parent="1" vertex="1">
          <mxGeometry x="150" y="1380" width="670" height="230" as="geometry" />
        </mxCell>
        <mxCell id="Mw7In8H4w5vTyK6ZN-GI-67" value="" style="ellipse;shape=cloud;whiteSpace=wrap;html=1;fontSize=24;fillColor=#f5f5f5;fontColor=#333333;strokeColor=#666666;" parent="1" vertex="1">
          <mxGeometry x="-11.18" y="1190" width="230" height="90" as="geometry" />
        </mxCell>
        <mxCell id="Mw7In8H4w5vTyK6ZN-GI-63" value="Messed Logs" style="text;html=1;strokeColor=none;fillColor=none;align=center;verticalAlign=middle;whiteSpace=wrap;rounded=0;fontSize=24;" parent="1" vertex="1">
          <mxGeometry x="10" y="1200" width="201.18" height="70" as="geometry" />
        </mxCell>
        <mxCell id="Mw7In8H4w5vTyK6ZN-GI-70" value="" style="shape=flexArrow;endArrow=classic;html=1;rounded=1;fontSize=24;exitX=0.55;exitY=0.95;exitDx=0;exitDy=0;exitPerimeter=0;entryX=0.327;entryY=0.001;entryDx=0;entryDy=0;entryPerimeter=0;" parent="1" source="Mw7In8H4w5vTyK6ZN-GI-66" target="Mw7In8H4w5vTyK6ZN-GI-63" edge="1">
          <mxGeometry width="50" height="50" relative="1" as="geometry">
            <mxPoint x="240" y="1540" as="sourcePoint" />
            <mxPoint x="290" y="1490" as="targetPoint" />
          </mxGeometry>
        </mxCell>
        <mxCell id="Mw7In8H4w5vTyK6ZN-GI-71" value="" style="shape=flexArrow;endArrow=classic;html=1;rounded=1;fontSize=24;" parent="1" edge="1">
          <mxGeometry width="50" height="50" relative="1" as="geometry">
            <mxPoint x="40" y="880" as="sourcePoint" />
            <mxPoint x="40" y="240" as="targetPoint" />
          </mxGeometry>
        </mxCell>
        <mxCell id="Mw7In8H4w5vTyK6ZN-GI-72" value="More Standarder" style="text;html=1;strokeColor=none;fillColor=none;align=center;verticalAlign=middle;whiteSpace=wrap;rounded=0;fontSize=24;" parent="1" vertex="1">
          <mxGeometry x="73.82" y="720" width="60" height="30" as="geometry" />
        </mxCell>
        <mxCell id="Mw7In8H4w5vTyK6ZN-GI-74" value="More Orderlier" style="text;html=1;strokeColor=none;fillColor=none;align=center;verticalAlign=middle;whiteSpace=wrap;rounded=0;fontSize=24;" parent="1" vertex="1">
          <mxGeometry x="70" y="510" width="60" height="30" as="geometry" />
        </mxCell>
        <mxCell id="Mw7In8H4w5vTyK6ZN-GI-75" value="Fully Structured" style="text;html=1;strokeColor=none;fillColor=none;align=center;verticalAlign=middle;whiteSpace=wrap;rounded=0;fontSize=24;" parent="1" vertex="1">
          <mxGeometry x="73.82" y="280" width="60" height="30" as="geometry" />
        </mxCell>
        <mxCell id="gRpyRmBpIIZ7N3UadSsL-21" value="se" style="text;html=1;resizable=0;autosize=1;align=center;verticalAlign=middle;points=[];fillColor=none;strokeColor=none;rounded=0;dashed=1;strokeWidth=3;fontFamily=Helvetica;fontSize=36;fontColor=default;" parent="1" vertex="1">
          <mxGeometry x="130" y="-10" width="60" height="60" as="geometry" />
        </mxCell>
        <mxCell id="gRpyRmBpIIZ7N3UadSsL-14" value="&lt;font style=&quot;font-size: 36px;&quot;&gt;统一日志平台&lt;/font&gt;" style="rounded=1;whiteSpace=wrap;html=1;strokeColor=#000000;strokeWidth=5;fontFamily=Helvetica;fontSize=12;fillColor=#B5CFFC;sketch=0;glass=0;shadow=0;fillStyle=solid;" parent="1" vertex="1">
          <mxGeometry x="2150" y="600" width="800" height="195" as="geometry" />
        </mxCell>
        <mxCell id="gRpyRmBpIIZ7N3UadSsL-62" value="" style="group" parent="1" vertex="1" connectable="0">
          <mxGeometry x="1230" y="280" width="1720" height="240" as="geometry" />
        </mxCell>
        <mxCell id="gRpyRmBpIIZ7N3UadSsL-1" value="&lt;font style=&quot;font-size: 36px;&quot;&gt;数据分析业务&lt;/font&gt;" style="rounded=1;whiteSpace=wrap;html=1;strokeWidth=3;dashed=1;" parent="gRpyRmBpIIZ7N3UadSsL-62" vertex="1">
          <mxGeometry x="920" width="800" height="240" as="geometry" />
        </mxCell>
        <mxCell id="gRpyRmBpIIZ7N3UadSsL-61" value="" style="group" parent="gRpyRmBpIIZ7N3UadSsL-62" vertex="1" connectable="0">
          <mxGeometry width="912" height="240" as="geometry" />
        </mxCell>
        <mxCell id="gRpyRmBpIIZ7N3UadSsL-59" value="" style="group" parent="gRpyRmBpIIZ7N3UadSsL-61" vertex="1" connectable="0">
          <mxGeometry width="720" height="240" as="geometry" />
        </mxCell>
        <mxCell id="gRpyRmBpIIZ7N3UadSsL-4" value="" style="rounded=1;whiteSpace=wrap;html=1;fillColor=none;dashed=1;strokeWidth=3;" parent="gRpyRmBpIIZ7N3UadSsL-59" vertex="1">
          <mxGeometry width="720" height="240" as="geometry" />
        </mxCell>
        <mxCell id="gRpyRmBpIIZ7N3UadSsL-5" value="&lt;span style=&quot;color: rgb(0, 0, 0); font-family: Helvetica; font-size: 36px; font-style: normal; font-variant-ligatures: normal; font-variant-caps: normal; font-weight: 400; letter-spacing: normal; orphans: 2; text-align: center; text-indent: 0px; text-transform: none; widows: 2; word-spacing: 0px; -webkit-text-stroke-width: 0px; text-decoration-thickness: initial; text-decoration-style: initial; text-decoration-color: initial; float: none; display: inline !important;&quot;&gt;云上应用&lt;/span&gt;" style="text;html=1;fillColor=none;align=center;verticalAlign=middle;whiteSpace=wrap;rounded=0;fontFamily=Helvetica;fontSize=12;labelBackgroundColor=none;" parent="gRpyRmBpIIZ7N3UadSsL-59" vertex="1">
          <mxGeometry x="159" y="10" width="390" height="110" as="geometry" />
        </mxCell>
        <mxCell id="gRpyRmBpIIZ7N3UadSsL-7" value="&lt;font style=&quot;font-size: 24px;&quot;&gt;APP&lt;/font&gt;" style="shape=ext;double=1;whiteSpace=wrap;html=1;aspect=fixed;rounded=1;strokeColor=#6c8ebf;fontFamily=Helvetica;fontSize=12;fontColor=default;fillColor=#B5CFFC;arcSize=24;sketch=1;fillStyle=dashed;" parent="gRpyRmBpIIZ7N3UadSsL-59" vertex="1">
          <mxGeometry x="69" y="101" width="90" height="90" as="geometry" />
        </mxCell>
        <mxCell id="gRpyRmBpIIZ7N3UadSsL-8" value="&lt;font style=&quot;font-size: 24px;&quot;&gt;APP&lt;/font&gt;" style="shape=ext;double=1;whiteSpace=wrap;html=1;aspect=fixed;rounded=1;strokeColor=#6c8ebf;fontFamily=Helvetica;fontSize=12;fontColor=default;fillColor=#B5CFFC;arcSize=24;glass=0;shadow=0;sketch=1;fillStyle=dashed;" parent="gRpyRmBpIIZ7N3UadSsL-59" vertex="1">
          <mxGeometry x="190" y="101" width="90" height="90" as="geometry" />
        </mxCell>
        <mxCell id="gRpyRmBpIIZ7N3UadSsL-9" value="&lt;font style=&quot;font-size: 24px;&quot;&gt;APP&lt;/font&gt;" style="shape=ext;double=1;whiteSpace=wrap;html=1;aspect=fixed;rounded=1;strokeColor=#6c8ebf;fontFamily=Helvetica;fontSize=12;fontColor=default;fillColor=#B5CFFC;arcSize=24;sketch=1;fillStyle=dashed;" parent="gRpyRmBpIIZ7N3UadSsL-59" vertex="1">
          <mxGeometry x="310" y="101" width="90" height="90" as="geometry" />
        </mxCell>
        <mxCell id="gRpyRmBpIIZ7N3UadSsL-10" value="&lt;font style=&quot;font-size: 24px;&quot;&gt;APP&lt;/font&gt;" style="shape=ext;double=1;whiteSpace=wrap;html=1;aspect=fixed;rounded=1;strokeColor=#6c8ebf;fontFamily=Helvetica;fontSize=12;fontColor=default;fillColor=#B5CFFC;arcSize=24;sketch=1;fillStyle=dashed;" parent="gRpyRmBpIIZ7N3UadSsL-59" vertex="1">
          <mxGeometry x="430" y="101" width="90" height="90" as="geometry" />
        </mxCell>
        <mxCell id="gRpyRmBpIIZ7N3UadSsL-11" value="&lt;font style=&quot;font-size: 24px;&quot;&gt;APP&lt;/font&gt;" style="shape=ext;double=1;whiteSpace=wrap;html=1;aspect=fixed;rounded=1;strokeColor=#6c8ebf;fontFamily=Helvetica;fontSize=12;fontColor=default;fillColor=#B5CFFC;arcSize=24;sketch=1;fillStyle=dashed;" parent="gRpyRmBpIIZ7N3UadSsL-59" vertex="1">
          <mxGeometry x="550" y="101" width="90" height="90" as="geometry" />
        </mxCell>
        <mxCell id="gRpyRmBpIIZ7N3UadSsL-60" value="" style="group" parent="gRpyRmBpIIZ7N3UadSsL-61" vertex="1" connectable="0">
          <mxGeometry x="720" y="80" width="192" height="80" as="geometry" />
        </mxCell>
        <mxCell id="gRpyRmBpIIZ7N3UadSsL-55" value="" style="shape=flexArrow;endArrow=classic;html=1;rounded=0;fontFamily=Helvetica;fontSize=36;fontColor=default;width=26;endSize=24.34;endWidth=28;strokeWidth=2;" parent="gRpyRmBpIIZ7N3UadSsL-60" edge="1">
          <mxGeometry width="50" height="50" relative="1" as="geometry">
            <mxPoint x="21" y="81" as="sourcePoint" />
            <mxPoint x="181" y="80" as="targetPoint" />
            <Array as="points">
              <mxPoint x="101" y="80" />
            </Array>
          </mxGeometry>
        </mxCell>
        <mxCell id="gRpyRmBpIIZ7N3UadSsL-56" value="结构化格式" style="text;html=1;strokeColor=none;fillColor=none;align=center;verticalAlign=middle;whiteSpace=wrap;rounded=0;dashed=1;strokeWidth=3;fontFamily=Helvetica;fontSize=36;fontColor=default;" parent="gRpyRmBpIIZ7N3UadSsL-60" vertex="1">
          <mxGeometry x="2" y="4" width="192" height="30" as="geometry" />
        </mxCell>
        <mxCell id="gRpyRmBpIIZ7N3UadSsL-64" value="" style="group" parent="1" vertex="1" connectable="0">
          <mxGeometry x="2150" y="880" width="800" height="400" as="geometry" />
        </mxCell>
        <mxCell id="gRpyRmBpIIZ7N3UadSsL-15" value="" style="rounded=1;whiteSpace=wrap;html=1;dashed=1;strokeColor=default;strokeWidth=3;fontFamily=Helvetica;fontSize=36;fontColor=default;fillColor=default;gradientColor=none;" parent="gRpyRmBpIIZ7N3UadSsL-64" vertex="1">
          <mxGeometry width="800" height="400" as="geometry" />
        </mxCell>
        <mxCell id="gRpyRmBpIIZ7N3UadSsL-16" value="数据湖" style="text;html=1;strokeColor=none;fillColor=none;align=center;verticalAlign=middle;whiteSpace=wrap;rounded=0;dashed=1;strokeWidth=3;fontFamily=Helvetica;fontSize=36;fontColor=default;" parent="gRpyRmBpIIZ7N3UadSsL-64" vertex="1">
          <mxGeometry x="305" y="40" width="190" height="30" as="geometry" />
        </mxCell>
        <mxCell id="gRpyRmBpIIZ7N3UadSsL-32" value="数据库" style="text;html=1;strokeColor=none;fillColor=none;align=center;verticalAlign=middle;whiteSpace=wrap;rounded=0;dashed=1;strokeWidth=3;fontFamily=Helvetica;fontSize=36;fontColor=default;" parent="gRpyRmBpIIZ7N3UadSsL-64" vertex="1">
          <mxGeometry x="121" y="335" width="160" height="20" as="geometry" />
        </mxCell>
        <mxCell id="gRpyRmBpIIZ7N3UadSsL-30" value="" style="shape=cylinder3;whiteSpace=wrap;html=1;boundedLbl=1;backgroundOutline=1;size=15;rounded=1;strokeColor=#23445d;strokeWidth=2;fontFamily=Helvetica;fontSize=36;fillColor=#bac8d3;" parent="gRpyRmBpIIZ7N3UadSsL-64" vertex="1">
          <mxGeometry x="130" y="195" width="140" height="130" as="geometry" />
        </mxCell>
        <mxCell id="gRpyRmBpIIZ7N3UadSsL-29" value="" style="shape=image;verticalLabelPosition=bottom;labelBackgroundColor=default;verticalAlign=top;aspect=fixed;imageAspect=0;image=data:image/png,iVBORw0KGgoAAAANSUhEUgAAADIAAAAyCAYAAAAeP4ixAAAAAXNSR0IArs4c6QAAAw9JREFUaEPdmkvoDVEcxz//WFBYUCxYWEiKFBaUjS0LLMlCUhJRXnkmJY+8Iko2CGEjUijyKBJFEVl4JCXyWFigZKNvndH878zc8ztz58yd7q+mud37e3y/5/zOzO/8zu2jR6SvR3gQi8gQYDIwFZgOjAJ+Ab/dPfn8BLhcxWBWSWQ2MNcREPgBRoA/gXPAVeCG0SajVgURgV4FLCoLImX3DrgOHAXehPjrhMg4YLUjERLTovsF2AMcsShLpyyRHY7AcGugkno3gb3AXZ99GSL7gA0+xxX/fsAXM5TIMWBlxSCt7k4CS4uUQ4jI0RJr1Eh6u4Gteb6tRC4ACyKBC3W7HjjYamQhIsP9odEi6yvFlCH/xUdkAnDPvZkjYwtyf7o1zX1EjgPLg0LEV94FbAtJrflV1UEVcbvvXpK5ZUzRjAzqpO6pCPhn4BPwGnjqrkLXvtSqCFN8Nz1NZDxwIv4YFkZ4BLxwVfAPK468GVkInLc6iKj3HlgLXLHEyCOiAm2dxbgmnczLz1qiqGSeVRNIa5gZwON2ynkz8txtV61B6tB7CMwMJfIRGF0HuoAY2tcPDSWiTsfggCB1qU4EXhUFy0utphLRa6GwIZFHpImp9Q0YGZpaTVzs6nnNCyXSxMfvFOBZKJEtgGr+psga4LAPTN4amQNc8xnW8Pt31ye4bYmVR2QscMpiHElHj1gVjQ+Al9YYPV3GWwehUXpFMzIQuNVlpEoxXW8Bdel1L5R2qaXzDrX4myJ3gI2ADocy4lsjhwA9/poifxwetan6iY/ICNegm9QUJg5HpqHtIyK7pmx902O5GDiT/sJCRPpN6MQnuFcAwamVJq3OyrIup1huJ16YrDOS4FcNplqsG7Id2FkUOJSI/KhFkzmfiMjsA7AJuNguRhki8qeTq37nE5GIXHIk2r4My6RWGu80t2ZirZvN7kTXNEZlZyQWIW1p9Vg9C2inapYqiCTBOpkh1VQCLxI6SgiWKokkwYe5vph6Y2NaPuv/KV8BjbzuyaXN099g9CmDGEQ6wVPatmeI/ANvDnkzu+2ffAAAAABJRU5ErkJggg==;sketch=0;opacity=70;" parent="gRpyRmBpIIZ7N3UadSsL-64" vertex="1">
          <mxGeometry x="160" y="235" width="80" height="80" as="geometry" />
        </mxCell>
        <mxCell id="gRpyRmBpIIZ7N3UadSsL-51" value="" style="shape=cylinder3;whiteSpace=wrap;html=1;boundedLbl=1;backgroundOutline=1;size=15;rounded=1;strokeColor=#23445d;strokeWidth=2;fontFamily=Helvetica;fontSize=36;fillColor=#bac8d3;" parent="gRpyRmBpIIZ7N3UadSsL-64" vertex="1">
          <mxGeometry x="330" y="195" width="140" height="130" as="geometry" />
        </mxCell>
        <mxCell id="gRpyRmBpIIZ7N3UadSsL-52" value="" style="shape=image;verticalLabelPosition=bottom;labelBackgroundColor=default;verticalAlign=top;aspect=fixed;imageAspect=0;image=data:image/png,iVBORw0KGgoAAAANSUhEUgAAADIAAAAyCAYAAAAeP4ixAAAAAXNSR0IArs4c6QAAAw9JREFUaEPdmkvoDVEcxz//WFBYUCxYWEiKFBaUjS0LLMlCUhJRXnkmJY+8Iko2CGEjUijyKBJFEVl4JCXyWFigZKNvndH878zc8ztz58yd7q+mud37e3y/5/zOzO/8zu2jR6SvR3gQi8gQYDIwFZgOjAJ+Ab/dPfn8BLhcxWBWSWQ2MNcREPgBRoA/gXPAVeCG0SajVgURgV4FLCoLImX3DrgOHAXehPjrhMg4YLUjERLTovsF2AMcsShLpyyRHY7AcGugkno3gb3AXZ99GSL7gA0+xxX/fsAXM5TIMWBlxSCt7k4CS4uUQ4jI0RJr1Eh6u4Gteb6tRC4ACyKBC3W7HjjYamQhIsP9odEi6yvFlCH/xUdkAnDPvZkjYwtyf7o1zX1EjgPLg0LEV94FbAtJrflV1UEVcbvvXpK5ZUzRjAzqpO6pCPhn4BPwGnjqrkLXvtSqCFN8Nz1NZDxwIv4YFkZ4BLxwVfAPK468GVkInLc6iKj3HlgLXLHEyCOiAm2dxbgmnczLz1qiqGSeVRNIa5gZwON2ynkz8txtV61B6tB7CMwMJfIRGF0HuoAY2tcPDSWiTsfggCB1qU4EXhUFy0utphLRa6GwIZFHpImp9Q0YGZpaTVzs6nnNCyXSxMfvFOBZKJEtgGr+psga4LAPTN4amQNc8xnW8Pt31ye4bYmVR2QscMpiHElHj1gVjQ+Al9YYPV3GWwehUXpFMzIQuNVlpEoxXW8Bdel1L5R2qaXzDrX4myJ3gI2ADocy4lsjhwA9/poifxwetan6iY/ICNegm9QUJg5HpqHtIyK7pmx902O5GDiT/sJCRPpN6MQnuFcAwamVJq3OyrIup1huJ16YrDOS4FcNplqsG7Id2FkUOJSI/KhFkzmfiMjsA7AJuNguRhki8qeTq37nE5GIXHIk2r4My6RWGu80t2ZirZvN7kTXNEZlZyQWIW1p9Vg9C2inapYqiCTBOpkh1VQCLxI6SgiWKokkwYe5vph6Y2NaPuv/KV8BjbzuyaXN099g9CmDGEQ6wVPatmeI/ANvDnkzu+2ffAAAAABJRU5ErkJggg==;sketch=0;opacity=70;" parent="gRpyRmBpIIZ7N3UadSsL-64" vertex="1">
          <mxGeometry x="360" y="235" width="80" height="80" as="geometry" />
        </mxCell>
        <mxCell id="gRpyRmBpIIZ7N3UadSsL-47" value="" style="shape=cylinder3;whiteSpace=wrap;html=1;boundedLbl=1;backgroundOutline=1;size=15;rounded=1;strokeColor=#23445d;strokeWidth=2;fontFamily=Helvetica;fontSize=36;fillColor=#bac8d3;" parent="gRpyRmBpIIZ7N3UadSsL-64" vertex="1">
          <mxGeometry x="530" y="195" width="140" height="130" as="geometry" />
        </mxCell>
        <mxCell id="gRpyRmBpIIZ7N3UadSsL-93" value="" style="shape=image;verticalLabelPosition=bottom;labelBackgroundColor=default;verticalAlign=top;imageAspect=0;image=data:image/png,iVBORw0KGgoAAAANSUhEUgAAAggAAAIDCAYAAABhO+agAAAAAXNSR0IArs4c6QAAIABJREFUeF7snQlcTdv3wM+5t3kepcmUMoSQeS4yREWReQgpJCFDCfchRYgQRUWRXEXmWYZnziw0GJsHKc3TPf/Prl/vb+5O595z713nfbz38e7ea6/1XXvvs84ecQweIAAEgAAQAAJAAAj8RAAHIkAACAABIAAEgAAQ+JkABAhQJ4CAGBIgCAJ//PixVHZ2tjSdTpeSqayULs4vk6ljsWh0qWq8upqO10jV4NU1NbiMtDShUitNVCvRWbLV0rV1MjW1zdTUqnWkpavbjhpVi2EYC8dxQgwxgUlAAAj8hQAECFA9gABFCTCZTLo2hsmr1H5qU5WR3e5jVmHz8uJSeVp1Jf1VOaGYI6Wgra0k31aOqFOTr6vVqaup0a5lEXh1dYV0dU0lVlnLwl6W4hh6s+PY/zf1hr+z95irYhiNJoNJ0eUxaRqGycpJf62Tls4ppUnnYTSpmozColfl5ZXF4zTplXRlJZacnPw3rWYa2QrGnQo0m7V8fvzmzXIGg8FirzRIBQSAAJUIsNtPUEln0AUIiDyBM2fOKDQryzZQzMlv/fpdSpvignzVf2sUdJsrKnRXrSntkF1SrvmiqBKrFvFXq5oMjrVXkS9XVNJMyqiselZbXpw+SJNexpLWyTPvqJ8j171duUKr5klGRlbFIu9UMAAIiBkBCBDEzKFgDnUIEElMmddPPvZ+9DCldU1uoXaKolJPGVZN28ryb6YZX8vkPlZ8r2vDCD760v//L3zihy9/6ljGnibIjgar/t8O4n//p9FWFRqGdVSRxQgFhUxtRYXUNvSqhywp2Q9m7du/rdPQSjWbkZuN4zACwR5xSAUE+EsAAgT+8gRpEkjg3tOTrWRT3rVIufXC5FvWF7XHuOxQebyuf0ZxqXJ6RW39Sx4aGucVQ5mOYR3VZbFaeeWs1kTtYS0l6SzjtgafNY3bvDFxWJSMN8RS8AABIEASAei3SAILYsWTQEJCglTJ7RP9i3JzO32tk7fI+lre+VleoXFxVS2O/fLGanh/0SA84Loy/H8E8P1YBIH10lCtpivKP+mtJnWrGJd+btpv4OOr79JTYb0D16ghIxD4hQAECFApgMAfCKTfZWrk5L7u8urKS+NvJaw2n2vok9PyvrbMq6oDZhQjwMIIrJ2aPMuwmcYzo9rK2Do11VSrYb3etbR1fQY7MCjmLFBHZAhAgCAyrgJFySbw9npYu9unb5smF1abKilIjcnOzOvxrLCC1jhB0PgNCyMCZHuCc/loLSeacUCrHRpXPsjTaVgvHfVCmqrSlba1lZe7Du+SYq7b/z5uYYG2bsIDBIBAEwQgQIAqIrEEMq4eMrl8+kaHO1+qemjV1Ux5lVPYpqCmFqYExLBGoBEGVRzHummqVkg1V79qUVl0StXc9GWPQulEHLZhiqHHwSR+EIAAgR8UQYZIECAYDNodKazXnTf3uhbXqc9+mp3Xs7C27rtvzoYDAmgENAuRcCgHSqIAofH0B+RdLXo1VsySxvprqlUptmx+c0Qn4yylaozRYaHnZ1j8yAFYSCrWBKAnFGv3SrZxDAaDtqC1jtmJGwmmuVJyc9Mzswe/LKrGaDhUe8muGb+3XgrHsEEG6qW99bX2Z1VW3Rw50ephq0HTs4EVEJBUAtBTSqrnxdRuJnMCXfO1du/yWql59z9kDavOzNW/XUP/YXYa1hCIqfP5YFb9uVQEUT/Y0EZeirBooXtHSrYiZFhfu2eG06cnwYJHPkAGESJDAAIEkXEVKPonAul3mW3vxl42+UDDlqW9SbdMKqoCWECAvwRwDBvZTivHhCa7tkf37oltXZfC7gj+EgZpFCQAAQIFnQIqNU0gMYShkJuab/W2ptwzKfnjgKQSVsMUM4FjtKazQwogwBGB+jUMaGoKjS5gGNa/mfo38z7G101qFdf0qMFew0JHjnBCYhEhAAGCiDgK1MSwJ+FB2on3Enu3lsM8trzMGFpaI+IXFYBTRZ4AChcWtpbDkjHlBVbdjO4nlMg9h8OaRN6tYMD/CECAAFWB0gQSz4QovL95v09pBeZ27PWncUXVrIb97jiO0eCgXUr7ThKUY2GoPqKRhfrBK2yYnlaesQbNu1vXAQ+6zF+c1PALPEBANAlAgCCafhNrrdF2xKsVFaap5fnTH6RleaR8q5QWa4PBOLEjgMa27LsYpKjXEqtGWlo+aDF5TpbYGQkGiT0BCBDE3sWiY+CdAEazSlmccfXWc9tHuYX6JayGveuwpkB0fAiaNhBAZzo2Dh20kKdjlubGN9rJaPgUdO5239HREc7qhooiEgQgQBAJN4mvkokh86RfvazqVVVLrD7+Nn1USQ0LTjIUX3dLvGW9dZTLrbua7NA0aXa4+6SVb2EKQuKrBKUBQIBAafeIr3J3AgKa3Ul9bfsh94v/04Jize8nauGcAvH1u6RbxqrfaYNujMCxke0NzxsoyWwebGT2wNjdHfbmSnrloKD9ECBQ0CniqhKRwJCKvpDePaOY5fryXbrTuwq4M0dcfQ12sUcAbZ8cpqdao6Sl6j64S4sz/eb7ZrKXE1IBAfIJQIBAPmOJLyGBwZBLyv44MKeobNuVjLzOCAiqeI23JEo8IAAgsQTQyFnjLaEGcnSsd6dWB821NDda+gS8hzshJLZaUMZwCBAo4wrxU+RSgGcztQ8fR4Z//nbo+dcqCAjEz8VgEUkERnRo/qKjtqprt4GmT4ytYfqBJMwgtgkCECBAFeErAYIg8LsBK9okfsr3vpP2efan0rr6LyS0rgAqG19RgzAxJtBw+ySGddNS/jqkRfO5xZq0iy6M0HIxNhlMoyAB6LMp6BRRVCkxJEQ6Lz/Z/HPGt63HXqf2r6iDgEAU/Qg6U5OArqI00d1Yf2lXg+aHxnj5f6WmlqCVuBGAAEHcPCpgexIYDKnyqk/mjz58C7uY/sUU7f5uqFQQIAjYFVCcGBNoOFcBx6RxjBjU2nBZMY5H7omM/CLGJoNpFCAAAQIFnCCKKiQxGTLZr78MSnmXHh31vkhbFG0AnYGAyBLAMcytZ9sIQ23tlYO8/fJF1g5QnNIEIECgtHuop1xCAkMq7VzOgOzMTOa5zyXaaA02nFtAPT+BRuJNgEWg+0gwTFeGjk3o0f5gW8Nma/q4MzLE22qwTtAEIEAQNHERLY9gTqBfeqU76MzL9GNP8r7CiIGI+hHUFk8CNBzDHLq22NlOS8l/NCM4RzytBKsETQACBEETF7HyGAwGbRCttOe9t59OnP6cp4c+W+BuBBFzIqgr9gQa736g4zjmYNpqe1qJ/Ma90XthMaPYe55cAyFAIJevyEpHNypeVyjreuLhu9NPsgv1RdYQUPw/At8fykPDcKKrMq3ubRUta5w2TTY6s1oHJYQOQTwqDI5jmHMvo+0GzbTWW63aXCweVoEVgiYA/YGgiVO8PALD8JjVCwzSsr6eO5eS2RkjaBjqbOARfQIoQFCTpde4ddFLaT9s6My2Y2Y9RiNEFRmfEhPefOiGRobA1aLvZ2QBui4SxwhMR1GWNb9fx+WERt0ea/ddcN+DeLhXYFZAfyAw1NQv6CJjiUZqSWl09P3UEdTXFjRsisD3F2Cpy0lVL+nf+ZLVP9vtcBz/76fnB3Z2co04+bIpWfC7aBNooypf5jZ+kEe60pMIR8fjcN20aLtTYNpDgCAw1NQtiMlgyCgpVG/Zc/Ghe0FVLQ5rDKjrK041U5UmCNcehh+72Y0ybzlw6g9z0kzmBPrrM0Tehff5GrAThVOyopW+8WTGEa20sicPH+DQYeaS+/9dAyFapoC2AiQAAYIAYVOtKILJpH94dc1y99MPF+8WVqOF0PCIAYH64QGcwDTlZWq2zB0523TissO/MyvleKD99B2n4tCpvuB8MXA8ByaMaGl4ZbiJ1qR+jMBCDrJBUgkjAO8ECXN4o7n39mzocOvuy4STH3N10AsFblcUn4qA/GmsrVQQOWVGa9zRsfR3lqE7M66snP95zZ03BjB6ID6+Z9cSFlqPIkUjXAeY+Rrml63vERpaw25eSCc5BCBAkBxf11v6IYIhl5iceyzozhvbWtRLwCM2BNBWN/QMaamf7Gdi0hFnMP7o4UuRAc3iI8/nPqv4fqWC2KAAQ9gkgOpMO02lOrt+nYbUtjG/5+joCOsT2GQnCckgQJAEL6PJRoLAb2z1WhF+9bFvamk1vfGGRQkxX2LMXNbd6IVD0IGu3y9E/J3xZxmeAeuvPPKkw74FiakbvzMUrU1oHEG0bd8sa/o0e7sWFpMTJRoKGP8fAQgQJKAy5If46i4/eyc5ubBcWQLMlTgTG8cAhrbVf+J76Ih5UwCIkBDpsSdOfsktrVSGDqApWpL1uxIdx9Za9oiU1y2e28MFph0ky/u/Wgv9gxjXAGLCBPqpNrqHox88nfS5Bs00g7vF0d3oG7CvvlbK9mOx7ZsaOUD2n2csUglIeFlcXkNgNDjkQhyrBNc2NZ7I2FdDunzu2EH9Os1Z+5xrYZBR5AnAG0PkXfh7A64GeHfZdPb+44raOik4/kY8ndzYmRtpquQf2bm0Bd7aopIdS9/uD7CbefBcPDoNAeIDdohJXprGUzf76mvfCxxvOgR3ZFRLHgWwGAIEMasDEyZMoPdXU0g8+vpj10bTYJW6mDn5f+bUjxxoylWvm2LfUW2Syzt2rbSzs1udXVC0EY0owZkX7FKTzHRojUJzOWnW9K6dHMZv2xEvmRQk12oIEMTI94/3rLVxO3rrBEZgUmJkFpjyGwJ1GIHJ0WjE+hFDHYb4+JxkFxKRkCA1ZpNfTmF5tSa7eSAdEEAERhpppa3todsJhyObJaZCQIAgBq4mmEyZoFsnU2KeZbVkwW2LYuDRv5vQsCiRwAa3bxGzOSxqMicGE8zt8nZhV8rySyug7XMCTsLTNi6EVZSh1/lZ957Va/mm3x6+JeGYxM586CRE3KUnfDwtj917cvFjZZ00TCWIuDPZVB911oYqCukTnGa15nTfegJjgdKmG29LSmvgEAw2cUOynwigUzdNtFTSw53sTHG7OSUASHwJQIAgor4lGAyp8KyUNwdeZ7WtI1gYnaDBWkQR9SWnaqvIShFBDkN7t1vo9YjTvCvnzVO9lZRcBJWFU3KQ/nsCaG2CgjS9xtdxiF+/BWvXAR3xJAABggj6NSdgfe/xp6/fqGNhciKoPqjMJYGGleUEpq2msOHsuQtruRET7e2ts+vm3Rxu8kIeIPA7AjatdZ552XboDTsdxK9+QIAgQj5lMpn0urtXLux7nDqskoXBrYsi5Dt+qIoChFZqigV+c4cZtx63pIgbmVHe3rrBN+9mcZMX8gCBnwk0rE1gYVryMhVbrYcMar/UB05hFKNqAgGCiDjzlq+37p5biW8+llarwtY0EXEan9RsXCCG4wS2ZEQ3H8c1O3y5FR2xfHnz0LuPsrnND/mAwO8IoBUtMjSMmGPa8szM5q3H/e0eECAoOgQgQKC4r9BZNncZy1evvv6YUVlXRydg7zrFPcZ/9RoDhCEttd/6jZ3QCefhQp39ixfrhCc+hykG/rtJoiWibbfo4C10WKumvEy2QZvWbUNDQ8slGooYGA8BAoWdmBMQoLj2/u2HKXklHatYcOsehV1FsmoEpiRDJ1aN6Dtk6CrfW7wU5rdqvvrp228KeZEBeYFAUwRodFrFAsuurlMZ2yObSgu/U5cABAgU9c1Nv6Xd/rn87GZpdZ0y3LhHUScJSC0UGrbVVn4S1dW8J69Dtytmz1a+lfz+GzR8ATlPQoupH0zAMWywvvZtP9cFlriFRa2EohBps6GfoJj7CAaD5p/xbsul1MylVbUs8A/F/CMMdaRoOLHatv/wkcs3XuW1/KwQhsK82HulX8qroG7xChPyN0kArU1opiRbNH3wYBNHb+/8JjNAAkoRgE6CQu4oidzbbOXJi9ee5xd1qiPg7kUKuUaoqrTXUb8fHneiHzs3NTalaBKTKbPqQHhBQVklXP3dFCz4nWcC6LwE9MhLSVcF2Pfd2XPxhpU8CwUBAiMAAYLAUP+9oDsBnn03Xnp+4WtFtSqEBhRxipDVQF2rsjQNWzl80Lhh3gy+XZQzc+q0Y8kf0x1hwauQHSxBxaPzO+ToODGpq+5tF1PlYbhLaI0EmS+ypkKAIGTXEQSBx61c7B3y6NU/xdV1dLSFEQIEITuFIsUTBIYZaSt/Puyx1Iifc7h75jmtOJT0bjO6yxG2zFLE2WKuBtrlgKF7YnACG6in8nnljN79tGx8MsXcbJE3DwIEIbowNShI9sqbN1FxSW/Hl6M5BXiAwE8E5pmbrHUKCt3ATzBJIVsHzIk8exuNUECAwE+yIIsdAqjeNVOQLV1t33dy7/mMs+zkgTTCIQAvJeFwx3LORnYKjj515trnwlYs9KkIDxD4iUBrDcXSrZNtW+tNcSngJ5ygRYtUjj55UYwWkMEFX/wkC7LYJYC6PHkpOsvDqmvg0zrlFQwGA24PYxeeANNBgCBA2I1FnV61rGfwwxcXiqtqNP93togQtIAiqUqgMVwc1NYgfsuhw+P4rWcSkyHjE363OLukSg6ms/hNF+RxQgBthVzWpWV8y1pZxx6hsC6BE3aCSAsBgiAo/68MdCriTrcZUy+/zQ77UlEtA19vAoQvQkWhAEGahmN+4wZPHLCUweS36gSB4f6LZqWdfvqxDb9lgzwgwAkBNGwghxNYT121N0t7dxuk58ng62gZJ7pA2l8JQIAgoFrBnDCBXqqtsPngy/QlNSwWTP0KiLsoFoMChEF66lmbF9ga4RZOlWTY8HLvJve5hy/thCCVDLogk1MCaDuknpJcwfIxXS37Ldr8ktP8kJ4cAhAgkMP1B6nPIwMUT15/dupCasZQNKQL0AUAXYSLQAHCws5tgqfvC19IlhnM7Us0AuOefiFLPsgFApwQQNsg0f4tVRl6mZtl11k2a7bFcpIf0pJDAN5V5HD9T2rV4U0dt5+/fyb+U3Eb9LUGaw5IBi4G4uWladj6cX0HDljs+y9Z5jCZE+iPY2k5NzJztFAZMJJAFmmQyykBRSkplpqK/Jrj5ub+vB4tzmnZkP5HAhAgkFgjrnot6hj5PPXG+2/l2rUEdMEkohYr0a3UlfIDFzm2bj5iRhmZhh1d7b53540XrqgM6AjIJA2yOSWAFi/21teMsnXtPNvCggH3OHAKkE/poV/gE8ifxRxZutA68llydFFVrSosOCAJspiJbRhmxbCehjrndsUwx5Bt3v3YHV08AuOfo3IhfCWbNsjnlABqDWZ6Wje6m3Ya7cJgwNXRnALkQ3oIEPgA8WcR4Qtcxh9+k3a4rLpWFgGGVQckQBZDkWhvuJ5MHbZhZHt301X7d5FtYhKDIbPq33uleRVV0hDEkk0b5HNDAAWvOsryr9cNMh7S3XsXXPbEDUQe8kCAwAO8n7Oimxjd3yWve/U5d3VlLYsO6w34CFcCRKH6oqkgXXxkgZW52rgV7wRh8g6nmeHHkj85wRyDIGhDGdwQQO1CTY7+cX7PdlZ2/sFp3MiAPNwRgACBO26/5EpgMKRupb3dcu1z7pKaOjgZkU9YJUoM+loyUFNKPX72bDt+3NzIDrx3h3f0nLL35EOYYmCHFqQRFgHUNvQU5HIdO7caMWl7yHNh6SFp5UKAwAePpwYtkt36b2bYi8zCqXwQByIklADqBEeatIhkRETNFBSC+lMVD9wvzSqrlEZ7bGA6TFDkoRxOCaDPLlU5mWK77kY2CwL23uY0P6TnnAAECJwz+yEHsYehtODGs0tPs772g86VR5gSnh0FCBt6d5ljtX1XuCBRhLnM2Bb66tNSWC8jSOpQFjcEUJCgIC1VZtu99SSP7fvhoiduIHKQBwIEDmD9nDR/82blVXfuXEgt/Na/BmYVeCAJWREBNTlpbKP9sI7mC1e+ESSR9J3uxo7Hn6cQhOSEuKi59tfXxJK/fMPyK6thF4cgKxwfylKQly0bYaK/YPme8Ci84XgZeEggAAECl1AvMhgaF188uXg/91tPgMglRMj2AwEdZfni8NljW2o4uhQLEg1BMGiOYx58+1xUoSgpuxn66GmmjJ/Qc4dn0IVgFgEHRQmyvvGjLHSHg4oMjTWlRwuPT4qt9sBtkPyg+qsMeLdxwTV9O0PD/2bi5ScFpeawU4ELgJDltwS66Gmk7GPGtRfUAsXvlTj1z6qtfpfvLxP3DgG9WBw66X6cNXRc56gLF32Pp7x3RxzE3W5xa3KNQwbK0jjRq4Wu+8ZDR/YIo92IG9ef7YF2waGHP+xhNN9x5dGFB/mlXSVnQJZDSJCcKwKd9DTO7z9+YjRXmXnMlM5kys/Ys6+8sha9QsX3sTfVT3ZxdOif+e0t5h3+b27O13K6+For/pahQIGG46z1Azv6D9202weCBP76HAIEDnim79xg7Hn+Tuyn0souAI4DcJD0rwTQ4kTU0c3p0sZv3t4Ib2HgQldAr14wPfP6i3Td+k5XGEqQWCayqYe+ZorPnGEDm4+YnxfKWDQs7MqLK7C9k0ToAhKNfGsgI8XqZqS71tvAyA/ub+AfeHjPscnyPGOFQfTDV5fSiss7AjQ2oUEytgg0Bgh7LXvP775hyz62MpGQ6FmI33DXyIuXxPHsz646Kumrpw7rZ+DgnoHQHXCfF3bgcfJsGAUkoSIJQSRqQ8p0GsuqQ5tdy4eOWIY7OtYJQQ2xKxLedWy49DJjhV7k4zd30wpLWgIwNoBBEo4IoM4Nvaj8rC2sh6xed4GjzHxMTGAYPnKoVXVxZY2UuNRzxFZbWa5s+1irXsaunq8RLuLMGYVF4QcKH+UVycIIAh8rEAVE0XGMGGykz5BubbwRFi7y7hBx6Qd4J/EHCcURG4wXxd4/kVJU1glgkYZZogWzCAKTo9Ow+SMHd560mvFKmDBOLfMI87v/bLY41HU09KytIM1aPqibw6A1W+IbuQYumd2G+fD9OxZcUiXMqkZK2SggpOM0lmMXww3uwZH/4BhsgeQFtDj0A7zY/9e873d466y++ORCZmlFtxoCUJEGWsIFoxeZjrI8ttVhlKGxc8MQuLAe4v55FcsVAUXldSwcR+ciiGi1R0stpXAcG23acod3yMEl3/M88s/K+bsuPwgWUdOEVTVEqlxtGam6iSaay6bsiwmChYvcuw7ayB/Yvdm9SXPr5btXkr6UdgNI3FcwyNk0ARQg6KorE9ucbXXb2DnnNp2D3BTujhMyH2Tm6aFSRHUIHo0O9DTQfrbLdWFP3MKi9ntiB5bNvRx2P82KXIogXZgEUJtSlqKxuuhrLt16hAlBApfOgHffb8B9ORyk4ht/49rd7MIeAIjLmgXZ2CaAOjMNZflvu5aNbWFkJdhDkn6nZOqef6bOOppwGN05Jqr131BVocx3xkgz40nuP9yKSTCZMkvijpU+yPgizbaDIKHIEWg8J0GKhrOmd2vtPi8oHI0YwYmLHHpSVNs/h2aynzw/LEx585XzF/9N/9IP4LDPDVLyRkBNWf5rpM/4ltoD5pTwJon33ARB4IttbaofFJZKieJ2RzkajbXZqseiXmu3BP9Mg9izp/nAmONZdSyRjX14d7AESUARgYoMrc6uU4u5C3cdPChBpvPFVHgHfocRfV24H2eeeJRVMBrA8KV+gRA2CcjJSmeGei4xMra2rmIzC6nJznksPrTh0bMZorYNEL0QuuhpXg09HvfbKYRtaxaZxV5/+YxUeCCcUgRQnVCUkym2MtKduir00DlKKUdxZeA9+D8HESEh0h7XLh56mv11co14HyZH8SopmerRpegfbt+4aozjOCX2bxMnTjTrv313NkGwRGoQQVtRtthvvEV/03mrkn5Xkw78s8Rm/+Wnp0XKKMlsEny1un4hsJx0cf+OBnYrdkXc5KtwMRYGAQLaF81g0Ja+fbXvcWaBczVLdOddxbieirVpqPOSlpL6cOvGPGMcp84BL/6Tx2fFfyrQRYPxVO8o6s+SwHFsVg8TX5cdoT5/qjBH1y7dtPPaYy9RGxkR6wYgIONQO9NSkC0a3t5wlPuuA/cFVKxIF0P1dk86XLQO65950zZefp3hXYfOm63/Bx4gIDgCqOOSkZL6cJNiAULJji0Ow2PPx7JY6Lx7wfHgpiS0a8G8ucb7tWvHdWluNqPsTzL2us2JPfQ0zQFaOTeURT8PamuGKnLpBwZ1sFT1CkwTfYvItYDizZ5c45F0j4lj5z/N+RZUVcuSQn+XeCDkI4cSfiKAOq1minJppy5dMKHSnm20WHH26FEVb4orZaneLpRk6MTonh3GemzZffpvFWyxy4z0+68+GYjq9k1oPLwTQNNLbVWk3xwc0dMC99gk9G3FvFtEngSqt3vyLMcw7Kjn/NGRz96dKKyokkEg4KuCVNwg/A8E0JIXcx21lOAT8e2oBunMioXHfe8kjad6RzGwtc6rzVExXf4WYKGAx9t1emXCq4z69g6P5BJAI2IdtJQfzbU0H9bHnfFNckn83XKJbSdnNy7tt/3Ki7PltTXqDSMHEotCZNtG/aZm9K//uQ7957u/ioxdSOeeelrJu47Htqea0kTCYYOBa8M/1bFYNCqyrT8QR0aatXuilU071xXn/8aPSEyU9ty9pexOap40tHaq1TTB6oPqDfpj2kzteFcLw+nu7rsosXtIsBSaLk0i20lqEMNg7cWHie+Ly3RgzUHTlYSqKdDCtFF6ytUtmqvffZlb0Snv61ettPJakQv26rfm6Wo9DY2N7U5F1h4TpyTfy8gyaRhlo9bDIjDMpYPW7dlhsYOa0iwvianEWB/19XFGiUie79CUffA7ZwTqPzBwAuvbUid4++FjblSa3uPMEvJSU629k2fp/yQTQUEqq/69futmZpEZiiFh5IB05KQVgAKEgdry3xS79lHv2DEJ78jqPHX5ofvdtfFqt5TiWnrjcALVKznqqNpqqZ47fOrUGNJg8SB4u7e74/GbL46hqRDeQS+CAAAgAElEQVSqbQ+k0XDs5MxRjs3mrjjelInJZ6K1NoRG5qYVVtCg3TdFS/x/bxxFQKct9tBV89zJPBko/lZzZiHV+07OrGkiNZEQIed14MLVfz/l9a8V4WNk+QpFhIXVb22j0Vjrxg3tO3Kpz8NGUwpOHuq148yFXTdTc3vVsOownHKvtR+ho47KrLn60ZC4k1Oo6A6CIGijrIaXFFXUKFCtw+iqr/koeDytL+54vMnzI5KjQ7S8D8blZpZVQYBAxYomBJ0agwRVWalam67GDou27/3rIlchqCjUIqnW3kmDgRYo+TtP3Xc+OWseOghJYgwnjajwBRP/O1l9dMc2t9YcCB/8vUbI3w//WbX8nztPNxSWV8lQeZUJ+jK3bmcYtS48aobwqf5egzVzp8dfefPZjipf3sj1dBpO+A/vbzlwzcYb7HBLZYZrrzoQkwMBAju0JCcN+tBA/YOmgszXBcNMh49eGZgoOdb/3VKJeU+eXrPQd9uNN15VLJao3mALdfYPBFTlpIsvXrui9ruf846Edv0n9szNxLxvKlTd2oa6J8uOrXZu2n/Qg6pOJs4wWwwM2Puuro6o3w4szKfxq6+rjnrSvi5mXXAGg62zT7PORGst2nUQBQh0qgQ6wuQIZf9IAJ2lYaypmOI1oNdg0xWMHOAjIR/Scd4LLPbeSzlbWo2GSCUmJpKY+i1Np9WdWmlvpD7a7dPvjP4SH27oG336+d3MInX0sUC1CBG98Gy6tfZZvTvCl8pOm2Y7JiPtS6k+0lGYrQjxkqPh2IK+5osct2zdzS6z9ItMDa894XlphRUQILALTYLSNQxIEphVK/Ubs4fZjWrt5FQpQeb/1lRhtnOBsM84xDDxOfbg37fFFdpib6xAiFKwEBzDVtr2dhu7YvOeP2mXcX6/gcvO2NcFpZXKVBtJQJ+/u8b19ujluXknBen+pxJz/fK1gZcf/YOmdoTdlow0lPM32Nu34KQTz3l+SdHXL7joYXox7GKgckUTom71FzvRMWxW+1Yh0/RaLWB3dEqIKpNatLDbOanGEcwQ1UVHT99PzCtrL9aGkkqR+sJZBIG5mbe9Nn1X2LC/afshZnOf+aFXbxVV1UgL+yv4Zz2D7IfM7LmMEUll2mhdxyirEaVFFdVCW6z4v2Un2JxebSOcAw/M5oQXQRD0lXMml99MzpahWpDIiR2QllwCaE2CDI3OmtndyHXOzv37yS2N2tLF9r2JLmA6VJL5LPxBaueaxl6F2r4A7bgkUIcRWPdm6gX7TsZrNyXixXbGlE3nbhz+UEHgNIrMNShI0TC/cVa9enl4PWpKf2H/HrHIOT7kSaqdsDoO1HmryMpWRThNNNOfPieZUx5eLjPLEl59ElqAw6m+kF44BNArQ01GqtRzQKfhwzbsuCccLYRfqrDaOemWb100e9mF5x+2ltWhsw7gEWcCaHGRirRU2eWEq8rsHHaS7et81OFCyiSCoEbN0FOWI8JmWRurTXJ/R3U/VR061GVMeNTT0tpaoRyJgKZjDNXlL8SevWDNDasFc6a/ffI2vR01PM+NBZBHUARQMKqvKP9+9aQ+Nt1nM14LqlwqlSOW7STO290i+G7ShdKauvpLZsTSSCrVIiHrgl4a0jSsJiJ8hZaxsTVb56ovnej47F5GnpmQVa8vXlleNvfgYrc2ejY25VTQpykdZtra5aZ8KW7WVDpSfscxbHLv9tPct+07wo38hZMcjiSmf5kilOiGG4Uhj9AJDDXU+HfDjCHDcGt3iTuOWezendlBm7RnxF9/U1JZo9lwj73YmSj0BkM1BVCkL0WjEaEeDj06Org9YUe/tPg9hm5B8SlFVTVywq4hzZXl35+44GSC445NHvbDjm1kpwnxdF8fef/FmjohLFZsra1cuHnFdAPDfo4V3NjJ9PbYse3m08WwBoEbepKXp37RIo5hs7sbREzZeXgOjtcfmiAxj7D7Rr6CJphMGc/jx97+m1XQGu5Y4Ctayguj03As0G6IdU/PdRfYVfYEY9nabdceM1gs4UaR3Qy1XwTHHKfEaAY77Ij751UmrtuR/6m0SuCL/fq0bL4vMDpmPjt6/i7NwQ2ec/ZdTDwgVh0ftzAgX5MEGrc+qspJ1S0b1N5p+Lo9UU1mEqMEYtVOfGdN3XPpXdaC6voeX6xME6MqR44pyNtrrHqvGcXYvJGTEnwm2addSy80EsZNhY2fIp1b6Z7ef+SoHSd6CzvttplTHh1Py+ohiFbWyElRWorYYNu9T7+lW/47VptTDntXL+p16MbLB4LQm1PdID31CDTeGEvgBGakrPB14YDu3fr7+P72vBXqac+7RmLTTuJWuY/bffdVbGUdC6YXea8XIinBu2+HOJute8dzonwec+cAh92nb9bU1Qr8fH7U+aAFlr3am2zZHbZ/JSd6Czvti52r7VyP3zlJCGANcMPJiQRmoKH8Nta8hykve9MrGIxWVtdufKhj6+xFYVOG8qlEANXDrtpKbyy79ujqyGBUU0k3snQRiwAhfTtDY+bpf9+X1dSowtwiWVWF+nJN1VVOHjh72p5TTb1mjn+VkJZvKuhRJ9ThSGEEtsysmdO44OMHOdVbmOnRmQjBY0d/jSooVxVEJ4Le5zMHmEQs2BzK0dkHPzMiThzSHLErMq+kug4+JIRZgUSs7MZRLFTXR7Q3OMAIO+wsYiZwpa4g2jZXirGbiSAYNJ8pSU+vf87vwm4eSCeeBAxV5M8wL1yw5dS64tgI44nBR14XV9UK9J4B9FVsKIthh6f1nSI72/8op3oLO/0eF+foyFepk5EeZL5tUecsS6dh0TNGd9efu+wpL3YzmUz6w4snS+4kZ8vzIgfySiYBVBdVpGk10SONJ2itCjkl7hREPkDYsmDGqlMvPvuxJGptqbhXS+7sM1RVOMM8f57jAAGV5uk67fG/LzO6C7JBoK9iAyUZLNx1aG/VcSu5nlfnjhbvuW76u/dbc/7l7eo6gkYmN9S0O+hppIcv6NIGt2DU8qq59/w5txJevBvIqxzIL5kEUF03VWRlNNPX6+cbEZMuzhTIbNekc7vE8Oy08dqTxCpWnSwdFiWSzpvqBbRUkz8dc+4CV4v9smJD2k/efexFZU2dtKCmqdCLT0dVsTjcbXILTetpbJ3fQDUf2IwakZP/rVKHzOkZxKmPgc72HceOLeOH/cd8VnjtSHi4iR+yQIZkEqhfj6CjeqfbCB0LF5fQGnGlILIBQgiDoXDt3v2sT6UV9XOgZHZQ4up8cbPLRF0p/tDZs+O4tWux08SH91NyegoyQDBrppa878TJDuycAMmtXWTmi1i76HDotRdTyTqOrGF6AceCx1sMMnVfe5sftuxdsaLXoTsPHyBZItsB8gMEyOCJAFpgbG6kywiOjPmHJ0EUziyy7cPb0f701cwvNjByQOHaJWDVlnQ1inPcE8bRLobvVXwZHNBl0bGLT6pq6+iCUL1h6FztfMTx+NGCKI+MMojz57WHb92eWVpVW38BFj+fxt0LbbWUPx2On2HEr4Okkjcu0T/475OM6yU4qWsn+MkCZFGPAJoiVJGRLvce3cPcwtPvLfU05F0jkQwQfJyn2Sa8zoyvw1g4jBzwXgnERcJaS/PgURu2LeTFngUT7FKfZhW35UUGu3nRC3BI2+a7/Q/FLGI3DxXTzbR3eJ2c+6UDGV/kqBNeZt7ilGNQ5Fh+2U4wmfLbTx7+wPxcrCOo0SJ+6Q5yqEMALTJGu3wNFBXe+o8Z2dXYXfyOYha5AOFDBEPN6eCtjKpaliJ1qgpoImwCqCK7DOw5aaZ/wDFedHkXsslj9uEr26tZ5N/khLqXkH69nM0CAg7worOw8y6fPWvW7eSPEcgefr9wkcxeLfXHBkVH83XF+Fx725CXucXz+K2vsH0B5QueAE4jsOXdjY6O2xk+RfClk1uiSAUIaO/16mn27699/NqKzG1V5CIH6fwmUH+eAA3HgicPt+qywOsqL/LR9QL2ViNys8srtckenZKTomG+dpa9+y31EbkdDN8zzko8o+W0amdGcUWNLD+ZIb+21VCo3Tt/vJ6y9ex8Xvz6c94b/ittVp65fxoCBH5SlUxZqJ7K0Gksz5G97Wy9/c6KEwWRChByd61dN555m1ELexrFqQ7ybAtqoHQarY7p49xaf8RknrcdJfu6x8+58MIOXUZE5qOjrlS1e/ZIfQN7ty9kliMI2bPG2b56k1dsys8XbsPuBe2rO44dt+K3DfmbGXrjzt7IhBMV+U1WcuW1VJXPXTNrTFtTx4Wl4kJBZAKEnIAARffLlwrSy2vlxAU+2MEfAmg1MR3HaoJWeqr14MOVycSZkPZDtzFfVtTUkXpwUnMVhdTJTrM6ODqKxi2Of/NWUtiyLc4Rjz35efQyChA66aquPhB7iu9bEomQEOkxJ+LzC0srVPlTC0GKpBNA9dXB2DBu+cEorhdKU42hqAQI+MaZExPPpOV05+cXCtWcAfpwR4CFE5g8nV5x4+Z1Be4k/Jpr9rgx6W/ySg34Je93crq2aHZ171Em37+OydT5T7KJhASpMb5+JYUV1XwL4HEcw3bY9h3Sa4XfTTJsClviEn7gYbITGbJBpuQRQAtq5el4rftg80H2G7beEwcCIhEgbHKZa33mVdo59KUIAYI4VDv+2oDqhYGqYlHc+fPq/JLM9FmyY+eNp4vRNAO/G0njFbKW5m19NwWF+fBLZ2HLWTTB4cWjzC+dMRyt7eaNGmLU0VCjdjNjtIZ2+zklZNgWFbhqyJ7Y+wlINm/akqEdyBQlAg1bcjFU9TFDNdncBRP6trJwYlSKkg2/05Xy7YI4H6QywO9EAYuF8X2ftag7D/RvIFCHYVivVtqvdh853plfTIiEBLUxvn7ZBRVVcvwOShs2R+HYllH9bQf6+J7hl87ClvPS33ua69m7UXX18wy8dS2IkaWJ4YVNEYetybIrOzxIe+7R07mFZTU4hoYr4AECfCCARjRtu7aIW71b9KcaKN8q1k2y/3QpvbAF5RXlQ8UCEdwRQCMIfpZmpyw3BPFtrzzSZPLoMcnvi0pN+L1jBr38tJTlWasm9DEcMIeRxZ3V1MtFpKbKWs51LayorVPgtb2i4VqbAUYrfTaHbSHTUm8Pp3fXHr1vw+8gkEydQTZ1CdSPJBAEpiVLrxxlYdbDbW1gEnW1bVozXttx0yXwkOJFIGPY/Lgbl1kCuHOeBzUhq5AJoBMLVkzov8x+se92fqpyYpXnli23E5fzu5GgTqS5qkJ6wE43Y2Nj6yp+6ixsWU72di/f5BZ34oVZ/VAtjmE7x/cf3MvD9xaZNh1dv2rWjkv3IiBAIJOyZMrWUZRL93FoYdRDhO9q4KUdk+r1BMYQKZ9rWAWLhZG6kpxUI0C4QAjQ6DRW5Jbp7Y36OKXys0DiTET70TuiX36trOFrHUQjHhM7try8dH/kCH7qSwVZQV6LvaNvPfPlZYoBBQgmOqrlhxaN1cQtnEidx325Z7Xhgpg7n2vRkAU8QICPBFA97t+5ZeC2fYeW8lGsQEVRNkAIdZ15JuzlxzEQ2Qu0PohkYUoy9NIrCdeUyVB+to3NxzeFJS35KRtNMSzvbOrqsC84hJ9yqSCLSEpQGu3h9+VrebUML/r0a6l3dlt0tA0vMtjNu3b29HdXktPbsJse0gEBdgigBc4K0vSq/dMGtjV2ZmSwk4dqaSgZILyI2NTe5cDlNyio5/f8L9UcAPrwTqCDjlpe+Il4Hd4l/SrBc5rjiTsf8ri+IfJ3OknRcWz70NHDe67zvEKGzsKWOcthXPLb7K8maJ0iNx0M+vIa3bnFP2v2RTIEYcv17Z7LveMS69c6cKOvIHSEMkSPAFo8jWMEpqeo+OzE5fPd8YaNDiL1UK49oOOU59iOqXhTWCYrUiRBWaER2GjVO34oYzNfX+KNxlRF7XQcdeD0sYpa1Nz58+irK1WGuY3VVx05t5A/EqklhbFokf/5J89X0njYlHxy+sixzV1X8fX+hT9RSty6TGv5mad55TUsnEa5HpFavgVtOCcgTSeIIw59XQ0X+4dynlu4OSjXHO4Grdi19NgDN17mMIWLFEoXFIGGOxhoRNSEsf1au7vfJ6Ncgsmkj9kfUfylvEKR18bS+PnQp0Wz54HRx7rhONo1LX5PTXxov7FBx25/qaqlcdqOEZCWyorEkmkj1PpMc/8mKDqn1y/6tOniyxaw21FQxCWnHHQzgLosrXjbfNdmpo6O1aJkOa99Hl9tzTrDULD3TyhDmxZgaoGvaMVWWEdFWqVhv0GKDAaDtGVmodPsksM+FJmglx0vDQatPUCDjiO7GG1m7A1bJbZOwTDMesRIdIyxFqfE0ALOXlpy93adutRPkHxO+3p39z1/5zGseRIkdckqa3QHvfM+B6JHi5LVvPR3fLfTd+akq2fScoYiwZRSjO+WgkB+EEAvk97NVbOD4k7r8UPen2RcXO0ayrjxxpnTl93P8lCAoC2NYSv6GNgP9D9ykkydhS3bZZL9q+fphaactmOCYGHTe7Y6t3Bn5BhB2kAkBKqN9rv05WtZJa0hjIMHCPCXgBwdqznmNqRFM0dGDn8lkyeNMu0gbc9Gw2nRVz9TRiHymINkPhGowwjMpWvbmDl7wibzSeRvxaQFevWfffLBvzU8Xv2Hhjgc9FWxOXOGt9AcsZDnWyfJtJlX2UHrXU4fvpRsQ+dAUMNxtQTWq22rKbsOHTrKQVa+JD3pvXCr/81Xy1AfxGswyBeFQIhYEUB1u6+O2qfAE6daiYphlHgfEwwGzflJYtmrL6VylFBIVLwn4XrS6TQifPbwISazVpF6mA5x6ZKi7bbAvIKySp4ug0IjHrNMWz51DTlkLq7rDxqr5JsQxhTnwzeP1HFwNXvjAUlBtj0H9FwRcEfQ1fvQ6iX6+24+ySDq79+AnkjQ/MW9PHTCIkbDiaUDOk529A8+Jgr2UqIVMMN8lgeG/0vqkaqi4AzQkTMCKnLS5RevOqvgOPnXJS9wGJv8JAetQ+D+QSMIo8za/MMIDhfI9j3uNeU954eEk2rum0PyCkoqObpDxURHhfBzGq2kZ+NSzrsWnEuIX+b83O9+che0AwMeIEAGAXlpWtm1hEEqOE7euil+6c1Lf8cXHRIiZsmtDftUXkugA3PhAQJNE2icI+7YXCMtLO6EcdM5eE/h6jgh9nlmvgMvkqRoGLbTYcT47h5ecbzIEZW8o4aPyigqq9BnV1/kV31t1Vedu3YzI3PR6d/0ifH27LTjZuJL6IzY9Rqk45QAGkkcZ6K7fFVEzFZO8wo6vdDbQdoat73Trr10xWF/kaB9L7LlNV6t+o9Fz50jNwZ4CMKQPauXuB2+8XQXL2UZaiiXhMy2b6E+zqmIFzmikneOnd311wXFFpzo26NV8/27jsTM4yQPP9MS54NkJ+65UJZeVMHJ8gl+qgCyxJxA/fZsOl5z22mGCu5E7lHivKIUaoCQ4OGh5pP49CuLxeWRa7xaD/lFkgBqYLLStLqj66Z30rNweisII8pjgvpMOXDmbk5FDcehbOP2xondWl1ZsvvgcEHoS4UydrnNPxj99M3Mxuutm9IJ+XVWz3bLXXeECPXL6t8Q3ynLI68cgd0MTXkMfueGQONiXFtT/YTVodGW3MgQVB6hBQjoyviQRTPuHHr6ua+gjIVyxIMAamC6yvL5Jy9eaCYoiwgiQcp2dMCXguJyFU7LbDwNaXn/LjMctgRFcZpfVNPf9vWYvfLiszC0+YOdGX3UGe2e3G9Yd7dN14Rpcx5zj9Im5rni+9nlcLCiMB0h5mXTcRrryhL7NvIObp+oaqrQAoQ4xgqDrVcfpove6dRUdaXk6IW+SNu10D5+6GisoyCtHmk1IvlreaUJp4fpoABBXopW7TjArM1838BMQeoszLJqzoZYDA2IuVZdy8Kb2hWAGCnJSmHbPG0NzazdhX6xzZPt61ctiLvm15TewuQLZYs2gTqcwNppqryLOnWmLVUtEUqAwGAwaFLvXieffZ/XVigKUNUboBdbBKTpNII517Zv8xkeD9jKwKdE08eOjU/NL7JD4jipt+jlN9ioeaJ/ZEwvUbywhVt8RGqq7DgP9285RRUyf+PVOOTaWl+z4OiKEXp4D5cabsvkV77CEH9Vx5jLX8uq0fwnPECAHAKoP/C179/PYpkvKUfF86q1UCp/yBq3zuHXX71AJ9FzPKHLq8WQX+QJaCjJlJ6dM1cNdyR/e+P3sI6vXrp5243HKzjdJY+2P1v3buu1NvCAv8jD59AAW+tReXnFFdrsBAi27Vvc8z4Q1R9HV+BR4Dnvs2zH+oTHi9HxTTCSQAGHiKkKA3U1srfEniD1NFhu0Qk8QEhgMKQOPnucmZJfIrD5Y27hQD5qEpjXy/iOU+D+AYLWLjN8w7CpkQlXqmo4u/ahmZIsscZ+gHEPlzXvBK2zsMubNW5s0pu8oo5/W4PQOIIwvmerrct3HFoubJ0by08M8Vf1irny9Vt1Lc7ptBJVbAA9qE8ATZluHN3LZph3wFmqaSvwAOHheufBbpdSbtA5GqSlGjbQRxgE0ItEmkZjBdhZDu7j6fOvoHUgEiJaDdtwJLm8qlaGnbIbP4N7t2r2eMfhY71wHOcssmCnEIqnmTF27JXk/K/D/vqCJTCMhROYzcD2C338Q4KpZNLVrd57vE/eWQD9FZW8Il66oIvkB2mr5G+NP61Tf9o4hR6BBgiJIfOkj1/+VHYjp1IaInIK1QIRUYXAWVgXDYXi0NMX1YShMkEQ+Fjr0UV539jbyVC/vZHAsTZ6WtOiY2OPCENnYZcZtGjh1iNPkpb9dQShHhOBMUdZDGzpwxB44Pc3RokhDIUV0TdLK2rhIDdh1yVxL3/DcPNpw9Zto1Q/IdAA4YTXwjH+t16dQfN57Gx7EvcKAfZxRoCFsTAnM6PzrsERQrsydY69berr3G9srTpGwwW6yjLYP7MGm5tNWv2EM2vFI/XLDV7zXS/dC/7blQzok0lRmoZ5jbfXGubm9oVqlj8J9V254NAVf4F2llSDAPqQTkBPSa68c98+ysI6RfR3BgqszqcGLZLdeOl9XkpRGcf7yEn3DBQgEgRkpHEifoaNhfrspTeFpbDHzIlP76fldmWn4aAX36A2elc2R5qMFIVz18lgWhu723pI0IlzdU3chNlKR/2LzyQzPVNHRjUZevAiM4nJkDkQ+6TkXmaRDHza8EIS8v6NQP1ahBE9XIat3RZKFVLs9HN80ZWxaJb9xScf4wRWIF+0BiFUIqCpLFfI2LixeY8ePYS2DS7W2+XYtpvJbJ+/4Dak/bSpvvsoNWwoSJ8SCcy2lv+EvK2sqfvj0cUokNLTULwTd/rsQKrecvlqr/+IuYcvXoT+S5C1R7LKQu2gpZLCtw59e2kyGIxaKlgvkPqORg98r77Pf/OlTBmmFqjgdtHUYbpZywsLgg9ZC1P7zcuWuMbff7qXHR0M1RS/+UwZ0KrLVK+v7KQX1zRjrEd/+1Jcpvwn+1DH2LNN86BdUTGLqcqAyWTSH58+nnvzQ76mQDpNqoIAvUgn4NzHZNbsbaGHSC+IjQIEUtc9Z023+Tf182l0YSOcXcqGVyDJLwRkpKRYW50tB/Wc5n1HmHhuMzyGrLn+IqHqL0PmjcuQR7c32Lkm7LBALpMSJpOmyrYcOuJjRWVVy78FCKNNDT3XhEZta0qWMH//cD568BTfkBssWEMlTDeIfdmaijJ1Nq1aybuEhgptpLQRMukBArodbcbeK9/SCkvY2hom9t4HAzkmgK5H7aChlBlx+qyhsIegifh9HYfuiH1eUVMr9SdD0IK85goy2FqLfmbmqxkvODZYzDI42dkkvS0o6fi3AGHjyK7jhq3ZEU9l09H9MQGuc5/EvUrtCruwqOwp0dYNrUVw69Vx6rTAvdHCtoT0AOGax1xL70dp12BqQdiuFt3yUYOZZNZ6n0fwwfnCtoK4e1FjmM/WjPKqWvm/vfBGGek/WNvGuB/OYEjc2Qc/c3GeMP7+q6yC3n/iJUOnYUddbAfrTfW4JWz/NlX+l8NBKg6hJ4uq6mDbY1Os4HfuCKAPjJaqCt+GGhpoCXsUgdQAAZ2aeDclsez0p1IZCBC4qyyQC8PkZei1x1wmmmpPmpcibB7odPCRw0dlfCur+OPRqGiKwX2g2fgp/jvjhK0vFcrfsdgt9ljiK4c/6dK+mTq2bfJkNQ1Hx2Iq6NuUDom7NkS7xVydjNLBEcxN0YLfuSXgYdFl9MSNQee5zc+PfKQGCKdXLeu56fbjh+gselh7wA93SaaMbvoa6XuOxbUU9vRCI/3+Ay1f1bFYpr9rPCg46KevVTjLzrJtl6kLJHpxYiMvxuLFfhcTn69qeKH++jRTV0mLnzGtvaDv1uC2NSUkJEjF7dpSnZhbAVfJcAsR8jVJwFBdKW9+jx76FkLc0UBagEAwGLTlaUmv73zIb9ckCUgABP5AgIbjmJdl37Vj1m/aQBVIeyeOeHYwo9IMfT1+34DqFycSGObWre2SaXsO7KCKvsLWI3ap07TtD99HsYhfeaHpozH6srfWMC8PFraenJSfExbgPDb8bCiMIHBCDdJyQgC1jTmWZj2cNwQ95iQfP9OSFiDcXO5uvOreixRqnSzNT3Qgi2wCqIHIy0iXb/tnSqvug2bnk10eu/JDZ9vfD0su7P3ztBlaTOlooFA5z6G3ubIj4zW78sQ9XeWuxbZjY5+fKqr58fbWxkuaXM2bn3EKOmYrahxGWQ7N/1pVp0VaJypqQEBfvhJAi5eM1JQTTXqa9xbW6Yqk1G00T7tjzoyLMW8/DYfVvnytMxIlDL1AOutqPN4fe6IHlQxfPXXSwWsfc2b+3HiQvvbdWu9csTtC4rc2fu+vgvjw3uO2H75bU8f6YaaxYTsogfVrqbNqezRzM5V8zI4uyZE7B8wKPXmbQNsb4PI5dpBBGg4INLaPQMYftmMAACAASURBVKu+rfsy/D9ykJVvSUkJEOI85ukGPU7NqmQRcOcC31wleYKk6Dix3rrvFItVm2KoZH3oEtfQ8IdvnBuXqDWee2CorlC1fFQ/414LfdKppK+wdSlMvKI6eeWW/KLK6h8uaWsYQcAwy45GM/z2h0UJW09uyg+cNyMjJumzPizC5oYe5PkbAdQ20AvaupPhCZ+QqPG4EG56JCVA2Lx4tn984vuV4H4gwAsBPUX5vPVznQxNHR0pdT7/fu8Vaw7cfLi+8aWApkJQY57Uu/3WJdtDlvNiszjmRR/YNtajCwu+lan9vGYDkWutpjQo5ty526Joe05kQGv7/efeEej0JHiAAAkEpOk01qyRps1ne+8S+DQr3yv14SCGStiJ218qa+r+eJAMCQxBpBgRaPwi79Gi+endR2PsqGbavJkzRz9P+3i2cfoMrT1oo6FcuXx4D6PuixhZVNOXCvoMHTr8Q2lldavvv7SRn9Gcw46xfXr18vR/RAU9udFhq/uctLjH74zQbi3Y1sANQcjzNwJoLcLQNs08fSOZ23FcsKv6+B4g7FvqMjHiQXIMDLlBpeeWAHpxKMnSsWNzbEZqTvW4xK0csvJ5Tps25M7HjIT6F8L/Clk7pJvXKN9Af7LKFHW5TnZjXr8pKO3w8whCR01FbP2sUVoG9tS75pld5k+Y4druu6OyqusIqT/eSMWuMEgHBH4igAKEwZp0Vg+jLkqOgYEVggTE1wCByZxAP3ukLC+5oFSDBqsPBOlHsSoLvXg766lmh/4ztRVuSq3pBQS6MHBNf4f4O/9W1DYckjistf6XhVN6d9C1dhf4EKCoON7Jfmzi69yv5t8vWkaBYBdDLYwx1UpRz8alXFRs+Z2evs5Op069eWdLJ+DTSJT9SEXdG6cwgwf2tTf39z8pSB35GiBsmz+3T+yLtHuCNADKEj8C0jiGBQ7utt/cN3AeFa0rD/fvNybq6p2y6hpMW5aOufQ1s7XxDTxDRV2potN6pwk3zqXkDf45QOjfVvv91oMTTHDcsY4qunKjx7eEaC1bxoHsqloWTK1yAxDyNEmgu75qzoLx3VqaOjIEtiaLbwECQRC48ySHG0kZhYOatBQSAIG/EFCRk6457TG+i6yNy1sqgqo6tb+L9Y5jT0qra+gTO7e+s8TS2hKn2EJKqnHbt9gpOiLx/eSftz2P7WJwd0Vw1ACqnJLJC7eNrrMun3350QrJ4FvHyotCkFesCEjRcGxNn84mwwOCUgVlGN/q8ccAz9aT4h+9h/3AgnKd+JbTzUAzOfhYXHuqWkgkxBlYMILT1OWlMc/+PUz7r9n4jqq6UkWvRU7z3B+mJO/8OUAY0r7VIb+wg7OooicvehTdPqJu5xOWV1lbJwXnv/BCEvL+jgBaDD3NpOVht4jIGYLa8si3AOHUMucNm+6n+EDDgMrNCwEUJa+zGrB62NoNm3iRQ2bekltM7bFrQz6N7ma0bmlgaACZZYmL7PHjxk9Kzys4+vMMfWdDrdWhMbGU9TWn/NfMn3n98ouPFtAPckoO0jdFAAUI6tLStdP7GDeb6r9XIPe88CVAyDixW3PdwQvZr76UScMSnabcDL//iQBa8meiIlO0ecEifT0bG8ouWiM+JMi9DT97XKpdy6nG09y/gUebJpCzwXWM09U3Z4pqf+xyJnc3WeS+K3R30xJEI8W3B4c0x644lFMBaxFEw2EiqOUCcyPn6UFhBwShOl8ChGMLZlsEPn9/vX5fsyC0hjLEkgCKkNebGTwYEXykD9UNTGImyZg6mgpssRDVeTSlX020r9X4A1cv5VUR//U5qL+IsOlo22FVsFgt8FyzYNbbq88/tms8Ca8pNvA7EOCEgJG6YoZXj55GpgzyFyvyJUDwmDTh1IP0fJG7bIUTp0Ba8glI03HMb3i/Gf19fEXy2F3yCYluCQV3z+hPWb3zY0l17Q+r/A9N7j3YxG3zLdG17FfN0+KPGs7etv99FQvWIoiTX6liC9r2GDDCvOvAtdufk60TzwHC+RWLDLY+SEpv3BNOtsIgX3wJtFRXLDi6bGZr3MKxVHytlEzLiMRE6Qlr15VkFpfJNhJAnU+Uy7CeRjN8EsWNyuY5k97Fvc1uQ4f9DOLmWqHbg6ZinTrrXXLZa2KN44yGw1hIengOEHzmzPS68vbjJliUQ5KHJEisQ+fWRz33RUyRIJMlylTbkaOy8ksqdBuNlqPj2Lb59vrdJy8Su+Op3+7d0n/e0Qu3a+r+f0pFopwNxpJGAE3FykvTiPGmhtpueyK/kFYQr9t1CSaTPvngoZyPxWVwJzqZXpIA2cqy0nURs60H609bckcCzJVIE+eNtnnzsqikfvsqmp9vqa5Qt3HBSA1ja/Fc6Dlm+MiMgrJKfWQs3NEgkVWeFKPRkAH6sp830GzSbP+dx0gp5H9CeRpBiPFY2H3no6THZCoIssWfAIqIW6gqvWeeO9tWHA7MEX+PcWeh89hxT1/lf+3aeM2zvrb6+7gpk01wR9E+RfFPNJKCN7rOjb66l0Wga+956mq5Aw65xJpAx2Zqtw9MlrbAHY+TdgopT7V2vfOUQxdeZ80Qay+AcaQTQC+McZ3aBK8MCV9IemFQgNAITB9ndz0tr9iiIUAgME0F+TvnLl8YKK5BIUEw6SOsQouLK2oUIUAQWrUT24KlaTRsave2LV12hn4my0iuA4QPEYFqrofPf/lWWQM7G8nyjoTI1ZSXqQy2HdaphfsKOJFQjH2+1nkK88rrrAmNAcKcdjoJ88KZlmJsMha4eDYzJvH9BOgkxdnLwrENBdmjTFv4rAuN8iVLA64DhFMuc0ZuevXuAlR8slwjOXI76Ki+CD9xykxyLJZMSwPXLAxhXk+qv4ALzaOu6N7inMOuyDHiTOP91f06szfFZFZV1cFN0OLsaCHYhqZmhzVXKuzTWd/QhhFKysFyXAcIiydPOPXgc74t1wKEABSKpB4BVH+8B3XfOsZv+3LqaQca8ZNA+trVUydfv3u4hmBhGIFjfYx01++MOrqOn2VQUZbbRPuMxxmF+lTUDXQSXQJoJA498webmc3ctPMFGZZw9X7PDt+k7X3kZu6byipYnEuGVyRIppwUvXL9xGGmAxd4vZcgsyXSVGL/LstBUSeuNmz9I7CRpi1WMkKjtog7jPcHtyycGXZhdy2rsUsXd4vBPkEQaJyqG9etVcTKXYfm4Hj95iC+PlwFCPELpo7f/DzzOF81AWESRwANkU0x1nq7+GBcB4kzXgINzr0WYzTT78DbrxUNpylO793BzW373j3ijoIgCNrMUcMLk0uqVWGxorh7W/D2GarJlTvbmulZuWwu5nfpHAcIBEHg88ba33xV8HUgv5UBeZJFgE7DsC1Du2/tx4DpBUnwPHpRjrUbU5rzpVQe2Tu2Z/spXjtCjkqC7R985l+blPDaEgIESfC2YG1EH1oL+3bqM2Prngf8LpnjAOHSntWGjOh/Pzcc1QAPEOCegKKCdM3ONTZdTQe5v+ZeCuQUJQKWw0aklVVUGiGdu7XRG7ov6uh1UdKfW12LIvf1sD1w7CGcrMgtQcj3JwIoQFg8pGPcZN+9E+rn7vj4cPyWXzVlyoQbn7KYHGfko9IgSjwImOipprQ27daBwSD3PHHxoCUeVjjZ2T55XVDcDVkTPqrPQFOfzf+Kh2VNWzF+1MiCzG+Vmk2nhBRAgH0CaEfQMH2l0mGDW+haLAzm6z02HL/nF010vP4wI9cChsrYdyCk/JUAqng23Y12e+0KWwR8JIeAxzSH8/c+FIzCMRyLn2HZp7nLWr4Pi1KV5qGl82L2PUiZSFX9QC/RJuDY1cR8yZ7QJ/y0gqMAIcDTU/Hao6elX2vrMDj/gJ9ukDxZynLSNcHOY7q3nbT4leRZL7kWB/i4hMbeeOuMbjlkzrfuZjB1xTNJoZEXe8R40u7wlIoa0k7GlRSUYOdvCMwzaxvmFHxgLj/hcBQgrJg+0f72+9w4fioAsiSPAJozszbQTFkbE9cBx3FSryuVPLrUtvjzqlWTp/x7P1pDTgZbMs5O2WLhQr4OiVLbegyzHzHqS1ZpuQYaQYEHCPCTgJ6SbEbs6NFtcXf3Kn7J5aiWBsyafPREavYkfhUOciSTAFpFY2/aeu+K0IgFkklAcq2uCQ8ePPTg8YQWqkr4AgsLhX5Ll1ZIEo2DS+be2/swtQ9M0UqS1wVjqzSOYyt6dOg4ZkfwG36VyHaAQJwPUrEPPFWUU17Hdh5+KQlyxIuAsqwUETVt6HCd2V5XxcsysKYpAlkJZ7Rc/HdlGairSAXPGCSPW/Pva6epsqnwe1lEkI11xMnT1XV8XWxOBdNAByETQCOzlm301vvx8XRStl/2652mDz6X8vkGRL5CrgViUHxbbeXcTbumtzY0dJSor0cxcB1fTBhrO6ZQVU6ubtFQK70eLi41fBEqIkLQWRATRo4sziytUhIRlUFNESGAAoRWqorvl9vZtedXu2I7QFg0a9Luh6nZCyFAEJHaQmE1bTsZnvUKibKhsIqgGokEFk4Yn5RWUl528cK53uJ61fPf8M21G/MmqaC0PYmIQbSEEkA3PI4c2NGI4b+XL0fXsxUgEAkJUlMDtma8Ky7Tgd0LElrz+GS2DI2GbbDu7zTIa8NBPokEMSJGwGfGrJg7Wdn6169cHCSJAcLR1e4hQTde1N9qCQ8Q4BcBtNobvdCtWulP33DkyGF+yGUrQIhYv7hn6KXnD/lRIMiQXAJoCMxAQbrIf8mslsbW075JLgnJtjzI1dVFvuTdBOcjV4ZJIonMC1HtpvpHvKmoYeE0tnpgSaQENnNLoIOBxtWwmLjh/Ai+2aqes8eNW/gm7+tubhWGfEAAEUDDX2s6ab0dHQKXM0lyjagJWj68LOvjMjX/4yMklYPFkGE55TU1OjBlK6k1gDy7B6lIl48xMzcY6O//lddS2AoQptvYXE8rLLHgtTDIL7kEGq8mHWKou2ZzTMxGySUBlpcmMZtXX8mK0PDwGCWpNNY5TXt0MSWjB0zZSmoNIM9uNFI7tltrC6/dB2/wWkqTAUIhM0TVKfTEl7yKKjqvhUF+ySYgI4UTnmP6W9os38hzxZVskqJvfdnJ82MVx1nHi74l3Fngv3DOhpPP0nxgBIE7fpDrzwRQgNCzRTP/3UePe/HKqckAYYvLdOu4V+nnINLlFTXkb6epnLthj1drQ8N+sL0RqoNEE8g8sdtq8s64yzW1cB6CRFcEEoxHAUI3Q7WMvTOGtuX1nJEmAwT7MWN9Mr9+3QCRLgmelDCR/ds0u7g1iimxw8oS5m4w9y8EmEwmPSwsrPxbaZUMgAIC/CTAwglMlkbDOulo6QYfP57Di+y/BggEQeB+k8cUnU4vVYGzw3nBDHkRgYXd2npN233AH2gAASCAYXZWoz7llVe0ABZAgAwCk7sbT3Pftf8IL7L/GiDc3btRf8nhKxlodyVMMfCCGfLKytAJjwn9Bo9dsOE20AACQADDtsyaev9kamZvYAEEyCAwxFgv2u9g9FReZP81QPCZMWn8tXc5x3kpAPICATQnZqqhUrB444RWZmYzyoAIEAACGPY8YNkW1/jHy4EFECCDgK6SXNbOOcPbGjpyfyHaXwOE+VMc9z77lOdKhvIgU3IIoAChs6HWtQMxcRJ5MI7keBos5YRAZtyOiRMC42MIWKfICTZIyyYBeRqOTe5t2sZ56+4PbGb5JdlfA4SZo+3epxQVt+ZWOOQDAohA/apak+bb9kUc8wQiQAAINBAICQmRPnHyZEVRaTmdRsAkLtQL/hJA/e6IDi0nrT8QeYxbyX8MEPLDNutNOngxs5wF4S23cCFfAwE6DcfWWPeeNMLLn+uKCiyBgLgRQIvAraxG5JZUVGnDLjFx867w7UG7GYa0ah6y+fAxrmcB/hggbJ073f74m89xUHGF72hR10BHUa785MIJxrjdnCxRtwX0BwL8JDB5nPXH93llLaGf5SdVkNU4cmusppTr0bNnmx4MRjk3VP4YIExytPf/mFm4ssmDErgpFfJIFIGO2hqpYfEnTCTKaDAWCLBBYP1Sx4fnHuT2hACBDViQhCMCaIpBCscxY11t3YNcnofwx/e/s73dg5e5Rb3g/AOOfAKJf0Ogt1HzEzsiYxwADhAAAj8ScHadvefly/cL0P+FjzGoHWQQsGyva+sbdvQMN7J/WycTE0MUNnrFlWWXV2EQ2XKDFfJ8T8BUX2vtAWbsBqACBIDAjwSSA1Y6z4x/EArBAdQMsghM79oqYMGegyu4kf/behnl5zEk+OyzBG4EQh4g8D0BOo5hHlY9x49fFxAHZIAAEPiRwKdT+62mb4+GOxmgYpBGoJuu5os9nTp3wxkMFqeF/DZA2DFzivuxtKydnAqD9EDgZwIqcjLEZmvz9l2X+aUAHSAABH4kkH6XKe+84UB58bdqQAMESCHQXF6+fMfQQQYtvby+clrAbwOEldMmHb/1IWc8p8IgPRD4ngAKVzXlZLLPXb2kj+M47JeF6gEEfiLAZE6g7w//VlpaUiUHcIAAGQQIjMBm9Wrf0zUwJJFT+b8ECGhv7kL7cR+e5hW15FQYpAcCjQRQNID+GGmpJUafiu8JZIAAEPiVAEFg+ITR1lmZxeXNgQ8QIIMA2s0wyrjFZMbBqBhO5f8SIHw9f6Cbg9+RJxVwQBKnLCH9dwQaAgQC699KP3r7Ed4uDAGwQECcCThYW3/IKi5vJc42gm2CJ1CHEfU7Y9Cfboba+/bGxM7nVItfAoSPG2ZZT7r48RysquUUJaT/nkBjgKCurLji4sXzAUAHCACB3xNYZG/zLDG3xAz4AAF+EkAjB9o0FlbAomH9Wmm93Xa4symOc7ZQ8Zc4YPe0yUujPmRtg+2N/HSV5MlCAQKOEdhay96LR23YEiR5BMBiIMAegfULZt+48Pz9YPZSQyogwBkBtBZMQQrDzFuo62yNOpnHSe5fAoTFUybG3P+UOxGuDuEEI6T9HQFVGTp20GHQsOZu664BISAABH5PYM1Cl2NXnyU7Ah8gQAaBhr2NBDa+r1nn5VuDXnFSxi8BgtM428zXecV6MILACUZI+zsC6oqyWNRcK1NNR8/XQAgIAIHfE1g8b86+B0nvXGBaF2oImQRsO7dx8toXfpCTMn6okwSTSe8XtKeWYGEYjkN15QQkpP2VgLKCbNm+7TON2nSekgt8gAAQ+D2BGY7jV6ZmFvgDHyBAJoGeLbR2BR2NdeekjB+igFWzJg25mZoDJyhyQhDS/pFAZ121rJDYeAO8YccjPEAACPyGQJqvx7zp55+FABwgQCaBrvrqr/cyT5pyUsYPAUKA83TnE6/TQzkRAGmBwO8IoIigg67m64jYOI4qJNAEApJG4Mv+f+aMOZhwQNLsBnsFS0BPRe7LXiebVs0cF5ayW/IPAcLMsbYbUvK/+bCbGdIBgb8RaKepfv3g6ZNDgRIQAAJ/JvAhPMBpWvi5cDh6BmoJmQTkpWiYq4WZsSMjMI3dcn4IEJZMmnjpfnrucHYzQzog8CcCaATBysjg5IbIw/ZACQgAgT8TeHN8/xCXoOiEGogQoJqQSIBFENiMAe0sF24JZXsZwQ8BwsIJdqwnWcWwOpFEJ0mSaBNDvcBDMdFLJclmsBUIcEog92q0jrNfVE5+ZQWnWSE9EGCbANruaNPOcL5PeNQ+djP9Fwykng/Xnr8lKq+sBtaTsQsP0v2dgIGeju/x48dgygoqChD4C4H0ixc13LYFfckrLwdOQIA0AiyMhc3r1HLPnJAoN3YL+S9AuLbRvd/qCy/uwPABu+gg3d8IoDBTQ13F+/zZ035ACggAgT8TyGMylZz3HyyBAAFqCZkEUJ9srqv+bE/syW7slvNfPODrMmPa6Vefo+AERXbRQbqmCLh0buY5ax9zW1Pp4HcgIMkE0plMefcDkeU5ZWwvLpdkXGA7lwTQFIO+snzO7oVjjfRsXNgarvovQNg32dEr4nPuJjhBkUv6kO0XAgOaq7sFxJ3cA2iAABD4M4GkJKaM17LIqvwSCBCgnpBHAF3eJEvDiT7GbQy2hIdnsVPSfwHCHAeHg0nZX2bCAYrsYIM07BDo20zdbftJCBDYYQVpJJdAEpMp4xUOAYLk1gDBWF5/wy5OYLZ9zDqvZvNOhv8ChMk2Y/6PvfOOayLb4vhMEkLvIiAgHUTs4toLuliwYcNeUFdUxN6wxo5YUEQUe10V14piF8vasTcQBAu99xaSeZ8Lxl33KSRhMjNJzvzx9vPk3nvO+Z6bmd/cueVlQnZhE5iDQE2ylMFKR2MDn4DTp0OUIVaIEQhISyAqKkpl1dIV5en5BdI2AfWAgNgEVrRu2r/75q3nxanwXQ94uveq+JxXwoY5COJggzLiEOhsbODjDwJBHFRQRokJgEBQ4uTTEPokW/vpXod2bxPHdKVAuHx/j8GK+UeyCALDYARBHGxQRhwC9bXUfU9cuRQsTlkoAwSUlQARFsYduPdQWWohzEFQ1j5AZdzNTOvs3PHXX1PEsVmpB57t29jQZ++Ft+JUgDJAQFwCGmrcGTduXA0StzyUAwLKSICIiFAduDWkFASCMmaf+phbWhnfCj56wlUcy5UC4eDkyX12vo4OF6cClAEC4hLQ0NCYc+NaxGZxy0M5IKCMBIi//9YesGJtfhpslKSM6ac8ZnNdjYSwlf0dcRdvfk3GKwXCrhF/zN3/OXZDTYXh70BAEgK6urp+lyPOwTn3kkCDskpHID88vM7ILdszMktLlS52CJh6AuZ6muV7+7ma6XjPzazJeqVAGNy374ak7IK5NRWGvwMBSQi0sbfYG3jg8ERJ6kBZIKBsBBKP7+gzPDgsvAJNAoMLCMiYAFqJ4NLSynrLlgOfajJVKRAmjhhy/u3njL41FYa/AwFxCVSe5uhgembV/mNwmqO40KCcUhJI2r12wuADV/coZfAQNOUE0IZJ3bs2abFq1bbnNRmvFAheHv0fRmfkta6pMPwdCIhLAAkEx7r69w6eOdNB3DpQDggoI4HcjQsn9jrzcLcyxg4xU08Abbk8vmPDHt7+IVdrsl4pEEYP6JcWl55ft6bC8HcgIAmBZvXqfN5x8i8rSepAWSCgbAQmDx8+/+WXlPXKFjfESw8BAiOwvvaWIxcfOPRnTR5UCoS1gzoLwlNx2COpJlrwd4kINKyjk+W5crBlj6ZjiiSqCIWBgBIRWDZ/0oVr9z70VqKQIVQaCaBPDKOcLFb47jnCq8kN/G1kmJb30u0FAgK2SKoJFvxdfALoE4OeplpZ8GJPe7vO47+KXxNKAgHlIjB3rOff9+LS2ytX1BAtXQTQvbmOltrmC1cuz6nJB/xxWJiJ79aQFBg+qAkV/F0SAqgTGqipYMdG9fhN12vuE0nqQlkgoEwEBvXq/S45v8hJmWKGWOkjgOYgWBgZHvnr7KnRNXmBP9q502XG4eNPYPygJlTwd0kJGHBY2Jk+nSdy5y3fK2ldKA8ElIXAkO7unxOLiusrS7wQJ70EkEBoY23yZOuR47/V5Am+fuofI8+8jD0CAqEmVPB3SQhUHi2KEVgrC9NlwcePr5KkLpQFAspCIDKSxwnY8LAkN6+UoywxQ5z0EkD35s5Wuqn+s9xtcRfv4uq8wQMmec069TZhM3xioDdpimgdTYbp4lj/5Pp9hz0VMT6ICQjUlkDyvVOWY3ghn4qKBbVtCuoDAbEIoPuyh6VGxTSPjvW0PRdlVCsQto8bsfRwbPJKGEEQiy0UEpOAaAShiWmdt7v/OtVIzGpQDAgoFYGcvevGue+7sl+pgoZgaSWABIKtvhq2a5CtqZZXSGq1AqFvr17+6fklC2AEgdacKaRx1BE1OJyUm7eum+E4DvvIKmSWIajaEJj2x9gNT959ngv339pQhLqSEED3ZRUWjlkZqdY7cvpKSrUCoX/f/ttTs/OmQgeVBDGUFYcAUgTqHBZ/jrtL0z4LAt6LUwfKAAFlIjBr7JA79+PSO7IwGMNVprzTGSu6L6Pe1szRxnbHvn3x1QqEdYsWZpy7/bAOdE86U6a4tlG/WujadHK/1VtDFTdKiAwISEdgcE/3+MSCYmu4/0rHD2pJT6Bb04YNV4eEVPvihm/xm08cv/MY9Kv0nKFmDQTa2JkdCTx4tMY1twASCCgTgdiIIFXfrRH5uYWlXBAIypR5ZsQ62bWN29jV/terHUHY5DuFOPnsPQgEZuRMIb1wMtF/ve/UmSYKGRwEBQSkJJB1ZHv3fjv/uiKEY56lJAjVakNgWpfmHiPXBJ6rViD4TxxCnHmfjsE3sNqghrrVETDUUS/bOtvDwdbN+wuQAgJAoIrAap+JWy+8iJsOowfQI+gg4NbIcvzK0IPVrqDB1492J07HF2MwSZGOFCmHTQ4bx5a4tRrQY2nAWeWIGKIEAjUT2Dxu+KuTsSmNay4JJYAA+QTcnM3mrtx1dFO1IwgzBvUiHqWWwCcG8vlDi98IoB0VOzlY7AnYf+QPgAIEgACGEQSPNcj9QXZKfpku8AACdBDo7VTfb8meQ/7VCoSp/boTz7LKMBwkAh05UgqbaN2ts6HBq33nzzRVioAhSCBQA4GM8/taDNx45GmFAO2MDxcQoJ7A0Abm62fuPbKwWoHQvkMXQkBUrYuECwjIggBad2uooVa63bd3Q6t+vgmysAFtAgF5IpAYsCh08Ll7k+DFTJ6ypli+1tNW23jq8uV51QqEtu27wA53ipV3RkajxsaxgB4us1st3hDISAfBKSBAIYEFYwZ+uPUxyx4mh1MIHUz9QEBdlRN48+b12SAQoGMwgkDHBqZRAXuPtWKEM+AEEKCJQFhYGHtnyK6sYn6FLozc0pQEMItpqqsHX79+yRcEAnQGRhDQ0VQp3LjS065xmz/SGOEQOAEEaCCQcSBg0oA9l0IFsP8BDfTBpIiAnpbWzktXLkwBgQB9ghEEWJXLHVtO7LV0415GrrwVMAAAIABJREFUOAROAAEaCCz3GvH06ofkFjSYBpNA4DsBbW3t0KuXwyeDQIBOwQgCaL72jObmt0cEH+nCCIfACSBAMQGCwPD+3XumZxSX1qHYNJgDAj8Q0NbR3nX1Urg3CAToGIwggGbD6qmp5K0Y0N+29bRpWYxwCpwAAhQSyN8f6OFx4PyZkgqYG04hdjD1EwK6ujp7L0ecnwgCAboHYwiwcBxb2bnF0m5rNq1mjFPgCBCgiMDy0cPvXY5PbgerFygCDmZ+SUBPT2/fpYtnJ4BAgE7CKAINjfSi9pw58xuO4/AaxajMgDOyJEAQBKvP7z0yMkvKDJBQhgsI0EnAQEdn98VL5yeBQKAzC2D7/wjoqKrw1/bv2rblDL+ngAcIKAuBs35zvbfee7qzWEDA2TfKknQGx2moo7v7wqVzIBAYnCOldA2dzdDbweLg0v1HxiklAAhaKQmEjB788VB8pg0KHsYPlLILMCpoYwP9g2fDz1R7D8ZhJ0VG5UwpnEFnM1joaGQuG9XXocnIqTlKETQEqdQESo/ut++96/D74gohW6lBQPCMIWBqWOf46fN/DYdPDIxJCTgiIsDCMWxoU7tZ07fv2QJUgICiE8haOumK+82Y7jA5UdEzLT/xGRjoHbwYfhZGEOQnZcrlqY2B7vsjy92b4i7efOWKHKJVJgJEaKjKkvC/Mq/nlOuAQFCmzDM7Vh09nd1XLsIkRWZnSYm947BxYny7JkO9/LeeVGIMELqCE7gTuGztwlN3/IRwaq6CZ1q+wlPX1Nxx8+rFqfCJQb7ypjTeoq3o7Yx0Xx05d66p0gQNgSodgQG9emak5sPOiUqXeIYHrKquHnyrpsOa2rTvQsCMWoZnUkHdQ5sgsHGsbE6vln0HLt50TUHDhLCUmMDV1fOGr7gS9acQDR/ABQQYREBdXTX45vUr1Z/mCAKBQRlTUlfaWxnd33AkrCOO4+i4BriAgMIQmDDQI+lNWk49mHugMClVmEDUudzAm5FXZ1f7icG9Sxcim09gOKzMVZjEy1sgGly2IGh0x2HO43l/yZvv4C8Q+BWB5CMB3YftunylXCCEuyt0E8YR0OayN1yNvDG/WoEwpU9X4lmOEHb2Ylz6lMchtC9CO0ujF4F//tVceaKGSBWdwEzPAcmPknJMFT1OiE8+CTQxVl8fevrSwmoFwswBfYiH6QUwgkBTjqu+TBIYhmaCfJsMomxzQhADLTa7fEuP1v0aLV57haZUgFkgQBqB3JCAIe7HIk4QMHjwnSnaQRXd5JTt/kZapyK5ocFN66+YE3KIV61A8BvsQdxMyYURBJLhi9sc+slU/XD++cyjrD+hduaGcRsn92mMu3qVissPygEBphEgCALnjRiYeflLtgHMPajKDrrHEQSB4The9S5EKOtdjjm9tau9mc+aA0dDqhUIa8aNJMJjk0DV0ZQ3JA00OGzhwuaW166nFdXPE5Y5JeeWY/klJViZ4P9nPqN/YdHkq6zNslk45t264fzRG7dvkLUtaB8IyIrAkw0rvOeev72zTKg8wwc/3qmqRgrQxcYxzEBdFVNns9Pr6XILx1sbxNfRVnH0vBRj8ZPbm6xSAu3+hEBXa9MRa44cO1atQNg8fTIR9jQaBAJNXQj9lPS4bMFxnyFtdAelPktPaG4kfJmtzkqOcU8syB8QFp1hmpaWr8PGMYt3eWUY+l6vqG8l6C3DXEc9c4XXeGtnT89CmlICZoGA1ATQkc5DevXMSyoo05K6ETmsWCUQhJi9lirGYbOTdPU0ik3qGnwdXlcrXN2p6S0j1YL3uPv0MlTq8rwpD3n337eGTw30JnqgU32PeXsOnatWIATMn5N/+t5TbUgWfclCPy6vFraXvbft7fUzL3g8HmtGG4vGuS+etln8MNXMUoM1JL+Eb/kxv1i9qIyP8X+yxBr/R8TTF5iEliv3RWDhWMcGljv9dx+YImF1KA4EaCewZ65vyN4HrxWm7/5s94aqUU8Wpq3GxeqpsbPrGWinlRHsK5NstaP1mrZ+qVOq+QT39BT8LBno88u0ft2Lnmbz1eGZQ293HdmpVe9p6zZEVCsQBvQfsDMlM8cbkkVPskRzEIy01LPCL1+qK+5eAOmRYVqCjKyG4bcfdUjlsAcmfko1y6vALLOLy/D8cn7lVCB5zamOGqd009C2nRpNWvWEnqyAVSAgOYGSSzusBgb8FZtdXsFRlFE+dH/isDDMQFNdqIsJk0zr6uVbWNZNGWysdVqrgfNtLbZZPO7qKvacobJDWxt123X2VQVB4PJ6f5K8ZzCzRscmTg0CduyIqVYg9O7dPygrN88XkkVfEtHQOovFFoZ4dXdvNn6h1LP4i+5cNi369Kp5UVHOnENP4k2ik/Pq5BBY3aKiUoyP9jX+JhpEbwVMzTnaLcmhrs67Q4t7N4ODnOjrl2BZMgLThw2Ke/w107ZqnhBTf11VMf13ZEA04KipwsJstNUxNRaeaGigl9HWkHu3oY3Ja76j8zXrriO+4Hjl2KTUV8TsyZdXPnrfA1YzSI2w1hXR/RX1TnsbC5vDhw8nVCsQOru6rSwr5y9ldneuNRPGN4B+dR3t6j7bcDCsJVnOEpGRnMSyRCtO1OvuKTkZrps+pLkQ5aWaBeWEUXo52vuCmVmvfGth49hU1yb+I1Zs9SOLB7QDBGRF4OX2NWOmHL92kJCTvUDRSwmXhWP2Oqql5QSWYWBulDnIwTTJsa5+WHkTu5vmTYck11YM/Jc1+rzg5vp7SQFfoIr+pqiTrWXVx8hqF81j02TjWFsrLfM1hy4kVSsQ5vTpueReTukqZj4qyELC/HbQQ9FYh1ty1n+UEd50TJGsPCYiIlSzcl54Hrj8uG4uS8czuaCwWWphCbewpBQr/75f/I9jDFT3DdHbjL4at+DMhO6/qY6YGy0rHtAuEKgtAfSbGhkckvsxr0CNLtFdtVQaXfi33QZEUVX9mrRVVTA9VQ7fUJWTXM/EJBErzj49/vem2XoNWl7W+q13am0ZiFM/9lRwi/Fb/orif1vcQfV9RRwflaEM0rBmmqqlp7q0MMcXrcuqViBkzhzu1/tJ8lq6OrYyJEScGEXf+vYOa8dz9Fm7Qpw6ZJQhov/Wzk36bFD6+nXvM1+yhr/6mlo/L79cO4tfoZ9fVoGhLxMsmr4Wopued2OzJ+OG/tEOd3WtICNeaAMIkE3gb78Z9+ffedm2VmPvtXQKvRVWvZXjmLaaCtpzINtYQ7Vwsm3dGHOu7lWuc4PHWk513+q0HljtA6GWblRbffW0cbcvPv/USZY2oO2aCSCBYKShmrHPo59NXR+faleL4Tt9x4458OzzQVBzNYOlooSFrua7sIiLzlTY+pWN2NgIVcPncb/fS/g6+d7nNKuPcWl1hBhhmFrMVxFUzmX49yW7czyqRBML8+vosqL32oBqd/yikxfYVl4C73etGzTh8NW/CBmf1ogEQNW043/tMYB2IFXjYtoq7AINDp7rYGOeOd7c8BLX1vpsjrr5K3t398plhUy4iLAwdveQnSUFfKEKPGvozQgSCPV11D+HeXk54J6e5dV5gx9eNtEt+EbcVfgeRG/SRNa1uRzBqXmDm2i7T37HDI+qvMi4fNi09NXbvvdTc/pHxCU1LueX66cWV2gVVwhkPpdBX51bvm1wt/a2kxdEMYkJ+KLcBIiIIzr9Aw9mp5fw2bWbulczRzYLw0zVuUggpOtqqBe5GRvd62Bu/Jjt3CCypLlFnLW1+CsJarZGfonY3fOmjD74JATpGxAI5POVpEUkEDpbGr8K+PNE05rq4feOr2k0Z9u115C0mlBR9/d57RudHhgQPIg6i5JbIq5c0UxLi+p77e+XNvECDc+EtFTT9DKiTkk5n1VSgZZAi3rUP2880vYx9PbU0FA3bt+AAY1xL9iGWfJsQQ1ZEJjsOejpi6SsFqhtafv2zz5LoLa01LmYDhvPdjQxzPxYWHbBu7H9x0bN7a4a9ZvwkezJg7Jg8982R/Xu8yIut7CptJyo8FFZbFSuEqtvFH742Ml+NcWM378fpj57XkgxJK4mVNT8Hd0w7PXVCg/NWaAvT9/d0TbrpbfOWObEvO55PDZpXFxiinlaToluHp/QKqjcl0H6hU1IIKANlDwa2JycZ1Z/GM7jyclccWr6DFihnsCHTSunjzl9Y2ttdxtBv3d1FRamwsILtLmcwmmO9aJtdOqdJTo0Dbfsjn3B8Z9vOER9xNJbJM7s1+u06VBWBUHAQLX0GEmrib6GNTc13LHz1KmpNTVaqQu6d+1KFJTBPbcmWFT8vXINNY4TBzy6jXSYu6TafbKp8Kc2NpKjwjXUYxN/K4qPG3IrPdPt1PsUvRy+UBsTCNXKBIIfvqoiO6Kxhv+KVdEMbTUOi9jq3m5m0wVrgmrjF9QFArUhkH1kc+OBoeGvSoS/Xir848jAP6NoHBzDNFS5mDomyGxgYVTY11j/kkNjh/Ci9nqR1taKOTq2c8ak4weiYobWVkzVJmdQ9x8C6IVrmL0Fb9aBIzVOhq+8F08c0rfibXIBGyDST6DyxkJgWFNT3S+hp85Z0u8RuR7EPozQMXj1tmdZyuffd35I/f11ep4Oi4XrpxXzWfzKiV6/PmsCCQVdNdXyE+N7t9MbOeMpuZ5Ba0CgZgLpYdu15h+5mB+TVf2gq2iHVE0VDqbLxvLMDDVKXe3NcjqZGoWp2Nsf0O0++pM8fiqomdCPJcLCwti7QnbwC/mwc6Kk7GRVHvVNtwZmPqv2Vn+SI7JfJRA8+796m5TXWFYOQbuSEUAPQk0OW3jSt19zg8EzX0lWW75Ko81Tcu6dtODHvel98X60VXS55oC3X78aslgs3ZxSPrviX7PDq97DCKyDqWHGgl6tbY0mLCiQr2jBW3kmQETyOAv3fHh0+1Nyix/XE2CVy4G5bAyro84tJzCswM7GOmOSAf+4YdN21/U9dR4qwqcCaXL3fOvq/pPDrp2V563fpYmbyXXQfXR4SzuPGUF7qj2o6btAmDxmcMTLj5k/PSiIyYEqsm8oiZNbWUeN27K/lSLH+avY0iPDTATvE3p8fRvteL6kdERcSrZ2EV+gUcAXqlUIhVhfJ7PX84dPbCFP8zSUMY+KEjMSsrsX+57ce/v1ICQO1FU4mBaXg+moENn2tqb5I7nqB7SdGz9j25vfMurQH4QrGgskCHzRmCG5kfGZOt8fNorSIeQ4DvSJYXDbpo3nbQx6U1MYlSMIowcP2ByXkjOrpsLwd+oIIIGgyWWXnV4wvJ5uz4nZ1FlmrqWsiAidioLPjXM/fx5wI7VgYL82LsHmnl6bmesxeKYoBNL27m26JPxUpKmFde6ETg4VBlzNiZhFvffaLdwzFCVGsuP4Ehpg63noYhzawQFdMEORbMLStafKwbE+Lg2t5m7a/rmmFiozt2XS6Dkn3n7dWFNh+Du1BJDS+6ON9emJmw4weskjtVTAGhAAAkwngLY7WDVh5IeI90l2NG3EynREtPk30ES9dK5rR3N82qIad9WsFAjbpkwY8uerj2G0eQyGf0qgchRBVbXw+uQJer86Xx3QAQEgAASYRiA7zL9+n6BLn4UErF1gWm56WBskLe/W106cPWUqBcKrjUtbep+5C7vUMS2TaFIejmFHurfaaLNswzwGugcuAQEgAAT+j8CK8SP+iohJHgSfFZjXOVo7mDzZsv/4b+J4VikQnkXsM5q25lD6P/t9i1MVylBFQFuVU3JlaQcd3JUHBxZRBR3sAAEgIBWBjMuhpp5rjicXfdsnAjbhkwqjzCo5mNfdf/BE2HhxDIhyh/sO6it4nFqAg+ITBxt1ZURL+2Z3brl+yNrNC6mzDJaAABAAApITuM/zPTP72msPEAaSs6OiRm8HixlL9h8Wa7O57zmcOnLgx2efsmzgixEVKRLfRtWObARmpKFdeL69iy5sMyw+OygJBIAAtQSi16/X9o24kl9QIZT6fApqPVYea+gLAToOvIe96QDegWNnxYn8u0CYNG7IhZexGb1hBEEcbNSXQXMRlvRsG+C+ZN0C6q2DRSAABIBAjQTw+0tmH5kV+XRE1XMExhBqJEZhAbSZF3qOjPitURPfwODX4pj+nsGxngPXxyRlzYcRBHGwUV8GjSRoczn8q8sWa8DmQNTzB4tAAAhUTyBswQLdwL8f5qKxA3jRZF5vqTwYjMPCujmZmy/ZeShJHA+/C4RVE0d5XXifuA8SKw426suIjns5O6DZQeO5W8ZR7wFYBAJAAAj8nAA6zTV49pSrRx6//x2eIczsJegTw1Az1cJZvdpZ4F68XHG8/C4Qds2Z0Wrfw5ePYVBIHGz0lEEJ1lRVq7ixdJgR7uolVoLp8RSsAgEgoEwEUgJ5VgP+ikyQ/lB3ZaJFT6zo+dHZUu/heo+RHcTdV+e7Hki9ckVz8Kp1hYIfzymlJxKw+ksCKD2uNmZX1h0+2hMwAQEgAAToJoDOXFg7cfT989GJbWD0gO5s/No+EggmelqB5y5enC2ulz8MGIzr1z81JivPWNzKUI56ApWfGlgEcdN3lK265x8J1HsAFoEAEAAC/xC4tHCh1Yq7DxPQMfWwrTJze4YQw7DeDev7LNt9KERcL38QCL4jPW9GfUp3FbcylKOegGiAx7mufubeM2eMqPcALAIBIAAEqggQYWHszVfOxp+MTq4Pn6eZ3SvQCMIYN9sePrx9V8X19IecDh00YMuX1JwZ4laGcvQQEGAExsZwbIFnu5EeM9b+SY8XYBUIAAFlJxC5ZcGoBScfHkb3I7iYTUCVzcIG92zmOG3R5g/ievpDVvf4eC/Y+yLGX9zKUI4+AmgkwVFPXXhghYca7uLNp88TsAwEgIAyEiDCNqsvOn6r4EZaHhttwAMSgdm9oI6GWuZej77WdX18CsX19Iec3lvM6zT31q3boiV14jYC5agnINphcX53hycDl+8W6+AN6r0Ei0AACCgqgQtrZixYFfHCX7RyAQQCszPd3NwgertTE2dJduP9IacRERGqK9asL0VhIkUIF7MJoJ2x2CyMuLJgWHOtvpNfMttb8A4IAAFFIXAncI3p8jPXk0oEQhzGDuQjq16N6wdP2nnIVxJv/08FrB/eM/PMl1JDkAeSYKS+LBpBQJNOkHpvYqyb2p3NNfc8eVJAvSdgEQgAAWUigJY1+k+feOfss48dYFkj8zNPfHtOeDZ3Gjk7eIdEc9b+TwfMHzM0/M7HtD4gEJifeORhpVAgCGx1n6abuy8KmiMfXoOXQAAIyCuBpzt4XWccvXUD9syRnwyil8muzRo5rtu+XewJiii6/9MBW8cPX3gsJmUdCAT5SL5oJEGTwxZOGdHdwNN7YZ58eA5eAgEgIG8Eso7wdALOPUu7k5yvJm++K6u/aARBV10FG9bc3NRrw4FUSTj8nw7wGzfa/Wbsl4swB0ESjMwo29XRPG51z34NxN1GkxlegxdAAAjIAwG0D9KVpb67lt98NRHNO4CXSHnIGvoUjWE9bPQ/r1g43AF39iyXxOv/y/Gfa6c1CL305n05ahUuuSGARhKQUjzh0crXat7GYLlxHBwFAkBALghEBi5qtursg+eFFWgfFrjkhQD6vODbpP6JUTsOD5PU55+JQHxMv/5JsVl5ppI2BuXpJYAEgo4atyJkbHczuzHz0un1BqwDASCgKASIiCDV9ccfpJ/9mKIDIwfylVX08ujuaOG1bN/hA5J6/tNczx0+5PS9LxkDJG0MytNLAAkE1Bnc7MxiV1k7NMR5vAp6PQLrQAAIKAKBs7wp/v7X3i9AsYBAkK+MomfCLLemnYfytt6R1POf5jpgwrC5Z6JTN0jaGJSnn0DVwkcCm9e99ZKBywPW0O8ReAAEgIA8E0jZv7LVuMO3H+SWVVTumAiXfBGop61esLdfJ0u9qX45knr+c4HgO6Xj6Wfv76D3UegQkiKlvzzKmzaXI+BN6erS3nPxC/o9Ag+AABCQRwJvt2/X2nzt+su3Gdk2xDdxAHsfyFcmO9kaR/vbOEm0g6Iowp8KhLCwMG7QtpAyvgDDWCAY5as3fPMWjSR0s6mTsrprbxvcy6tyd0y4gAAQAALiEkAbIi3/Y8K2y+/ifdBzAB4F4pJjVjlHc4NtB06cni6NV7/M+SQPjxcvM3KawgiCNFiZUYfDwrB9AxsetZsVMhqv2lMJLiAABICAWAT8p/7R7uKbj/fKBcJKcQACQSxsjClUNSMNwxZ3ch7Sd13IX9I49suce/bps+RLduEqHHqFNFwZUQctb1FjsYSHxnbsbjlx5Q1GOAVOAAEgwHgC6ft5JrPPP/sYl56vAY8Axqfrpw6i+7+5Khfz79Tcwp4XkChNFL/MPW/UcI9LCclnYARBGqz01xGd9oj+28xAO3PnwG72uNesXPo9Aw+AABBgMgGCx2Mtjo++efNjSmfYDonJmareNyQQ7I310w/36GWNe3sXSxPJLwXCky1LHKed/DsaJqRIg5U5ddCJj2ioqYeDxbMVbTu2wb29+czxDjwBAkCAaQROzfeZGXj/XaAA3TzgklsC6L7fwMbk8IHDJ8ZIG8SvRxB4PFbC82eJHzLzYcMkaekyoF7VDotVk019OjdePnL1NvTZCH75DMgNuAAEmEYgbM70ltuevH7AFxAq8GmBadmRzB80gjDXrcXiIbzAtZLV/Kd0tX3gj6FDNr1JzJgtbeNQjzkEkCJQ57AEwf1buzrPXneXOZ6BJ0AACDCBQGLwWsN5lx+9jM/JM8PRwQugEJiQFql9qKeigq3r0tLWgecfL20j1XYBn0GDPJ+lZp2o2nwHLnkngPLoqMdNGtK7ReM+U/0l3jRD3uMH/4EAEPg5ASIykrPm4L6IC7Ff3CpHHOGOL/ddxVZPO+Nwvz5W0s4/QACqfe4/27fPaOreQ+lokBomq8h9f/kWAIH1dLJ4smxkt064K+yPoChZhTiAQG0IPJk7dfGsR+9WC+CQvtpgZFTddnbG4ZsOnuhXG6dqGhjAR/br+zkuK98CFGVtMDOnbuXaWBzDpvd12T98waYJsD8Cc3IDngABOgjcWDdvyOqrz8KKyisqRw5qeijQ4SPYlIwAGgUa0dRuyPSQPVLtfyCyVmNfmOY5cGVUUvbSGgtK5j+UppEAEglaKhwBr0/rvh3mrr1EoytgGggAARoJXA9c2jbo0uPrGYVlGqAMaEwEiaYFlSP+GObW3N5mdfCehNo0XeNzP3DC2N4noj9dAF1ZG8zMqis69bG5sU7ZBs82LtrDFr9hlofgDRAAArImUHRufb1Fh588epiSYY7u7zU+DGTtELRPCgE0ejDKVjfdp09zW9yTV1ibRmvsE7lHQ/T77gzLroBvU7XhzLi6oo2U3CwM43wHdmte19OnVh2JcQGCQ0AACPySABEWpr7h5vmbZ14ntgFMikUALW+0MdZfd+z02UW1jaxGgYAMLBs25MG1rxnQkWpLm2H1RatTprS2PzW6jdtQ3NNTwDAXwR0gAARIJoB2SgwrTjq670HssHx48SOZLv3Nofu6Tys719Fb9tyqrTdiCYQ140f7XIj5GlxbY1CfmQQ4bBxb16fZ8vbzNq/CcbQCGi4gAAQUlcCJJdN4O+6+X15SgSYlokusx4Ci4lC4uOppqWP+nTvWtV+0KKO2wYnVM5aOH9/0ekz8i9oag/rMI1CpBggC01NTqZjp5tKrp5//deZ5CR4BASBABoHDs6eOOfEq9mBGSfk3WQBzD8jgyqQ2zPS0bp28EN6VjJc9sQQCQRCsAT175qUUlmrBckcmdQVyfWlpolu8qU/Hlqpec6PJbRlaAwJAgG4CN9cs6LH55tMzmSV8dbRNolg3f7qdBvsSE+jpaDZt+b6j2yWu+JMKYveRqWOH7nkalzoBBAIZ2BnYBoFhQpzAfjPT+9CnlX2LHvM2FjHQS3AJCAABKQgkBi1uM+vS02tf80u00CI4OIRPCogMr4JGg9kYhg3r0aiJ77Lg12S4K7ZAmDfa0/1OfNpFEAhkYGduG6hD+LR1uD7C26MPbu9exlxPwTMgAATEIZC8f22D9eEPbz1MyzOG5YziEJPPMmj1gmMdnYSD7n0cyTq1V2yBEBnGM1mz825KURlMdJfP7iO+12wWjvE6NFnbbe2WJWR8xxLfMpQEAkCATAJZ21dbLI58ev95So45utmLfcMn0wloixICSCC4OJiv3L7/6HKyDErUX7wGeURGp+Z2Ics4tMNMAqij6amqYIs7N53eafmmbcz0ErwCAkCgOgI5x9ZZrToXdePe1ywbEAeK31fQBnj9XGzaLNq6/xFZ0UokEI74Thwc/CzupESVyPIU2qGMgGido64qhz+ipd1fKZh+bqVxWABJWQ7AEBCoDYH67DLO4y/xbg+/5FihdmBKYm1oykfdNnU1Ctx7NrZw816fR5bHEj3rI3k8Pb9rkTlwHChZ+JnbDspx5cFOcPQrc5MEngGBXxAgCAwj8KpTeCW6yQNRuSXQzsp426ajJ6aTGYBEfQedA3jMu/+roDd5jSSqSKbH0BZlBEQDBpBrypCDISBACgEkEETKAH6/pCBlbCOi+/TAFnad5m/bc5dMRyXuOzOGDh7yMDEjDFYzkJkGaAsIAAEgAASAgOQE0JwxQw1u2aDmFkYTAvYVSN7Cr2tILBDCVs8y23blRWKFED5Ik5kIaAsIAAEgAASAgKQEkECY0sbq/NiNBzzIXnUmsUBAnxl8Bg688Twt21XSQKA8EAACQAAIAAEgQB4BNFfMv2vzdl1WbXlAXqtVLUksEFAl7yFDBr9MzjiJprHBFBiyUwLtAQEgAASAABAQj4C5jnpR/9Z29UbxtuWLV0P8UlIJhMzNq80GnLmRyBcKQSCIzxpKAgEgAASAABAglUAXe7Nt6w4cJXX1gshBqQQCQRB4wLRxb0+/+OQEkxVJzTU0BgSAABAAAkCgRgKiWYAzeru0Gb5oI2mbI/3bsFTMH4IJAAAgAElEQVQCATVweNr4fsHPP54DgVBjHqEAEAACQAAIAAFSCQgxDGtoqJWxsktXS4vZs0tIbfxbY1ILhMKw7SYDQ09/LSgVcGThGLQJBIAAEAACQAAI/JwAWr3Q2clyVcCeQ8tkxUhqgYAc2uMz9tjeF5+Hyco5aBcIAAEgAASAABD4fwI4C8MWtm5k029jcIKs+NRKIIQtmdl1c+SLG8i5WjUkq+igXSAABIAAEAACCkighZVB5tyJfS2sXb1KZRVerZ7rkZE8TnjQk5T76UV1atWQrKKDdoEAEAACQAAIKCCBFZ2beXVfu+WALEOr9XM9bM7EdZsexi6EyYqyTBO0DQSAABAAAkCgigCXwxb0bOhg5LdjR44smdRaIKRvnmXncfpZLEHUuilZxgltAwEgAASAABCQewJocmInm7rXAw4598BxHlrMILOr1k91tCfClEEDr79Iy+mKvKx1gzILFRoGAkAACAABICDfBJBA8O3o/Nso/5Anso6ElOf5somj3K6+/3oVbdwAnxpknTJoHwgAASAABJSVgKW+Vs7ArvZmnrMDZbL3wb+5kiIQYoOCVLdfuZT2ILdYFwSCsnZbiBsIAAEgAARkRQC9gKMHtruD+eSl+4+EysoO6QIBNbhtktfiI28TVrOo8BpsAAEgAASAABBQIgJCnMC4LBY2rquz2QRecDIVoZMygoAcPb7K13brlddxmGiDaCq8BxtAAAgAASAABJSAADrWuaOl8bUAh4Y9cZ5sJyeKcJImENBkRd7IYbeufk7rpAS5ghCBABAAAkAACFBGAD2sl/Ro08J9mf9zqoySJhCQw4fmTekccv/9LVIbpYoE2Pk/AtqqKpiOuoYQh2Eh6B1AQK4IEASGoSHp1NwCFgzqylXqfumsvYFW0sE+fa1xb28+VRGR+iwfMmQIuyAnJzunhK8DkxWpSqHs7Axt3yxmhueoDph6uUzX2souAmgZCCgpAa4auyg+pZmnf+DVnPIKJYWgGGGjZY1oeuLOPi29m/tt2kVlVKQKBOT4pqmjxoS9/HoQBAKVaSTfFuqS491aPZzE29CW/NahRSAABGRNIP/mTcdZm7ZEv8vNl7UpaF+GBAiCwBroqJR3bdTMYMzGjUUyNPV/TZMuEDbzZhlcuPUyqYQvVKMyELBFMgECw0Z2bvlk2rpNv5HcMjQHBIAABQSybl52nuy/9U1ikcyXy1MQjfKaQCMIB9ycghrwds7EMWq/95IuEFAa904at3TP208rRes2lTe1chw5gWFjevwWM2V5QAM5jgJcBwJKSyD96lX7BUHbP0Tn5CktA0UIXIXNwlb3bF2306J1GVTHIxOBEOwzwfL4y4+f+AQBOytSnVES7Y3p5vJgysqN7UhsEpoCAkCAIgJJNy85Lty8PToup5Aii2BGFgQ62xhfX3foeHccxymfbyoTgUAQGD5v6JBzd5My+sLGSbLoMtS0CQKBGs5gBQjIggAIBFlQpa5N0Qg8z9XFpsfqjQnUWf7HkkwEAmp+yeihTjfi097RERTYJIcACARyOEIrQIAOAiAQ6KBOnk20MVJ7c4PojYOGN8I9PQXktSx+SzITCGjjpMXDhr69mZjuhNyRmSHxY4WSEhIAgSAhMCgOBBhEAAQCg5IhhSsETmAbe7Zu1WFJQJQU1UmpItPn9umlvp0Dbry6ReBwyiMp2aK4ERAIFAMHc0CARAIgEEiESUNTDetqF0zpaWro4r2Lso2R/humTAVCVOgklXXnPucm5pVqwL4INPSwWpoEgVBLgFAdCNBIAAQCjfBJMH1whOsIB5/lx0hoSuomZCoQkFfP1s8cPPX8s5M4BtMVpc4STRVBINAEHswCARIIgEAgASINTaB9DxoYaBRbt2yty+PxaN0GU+YC4WvYZvV5B69mfs4t1aCBNZisBQEQCLWAB1WBAM0EQCDQnAApzaN97cP6tR9nuWDNQSmbIK2azAUC8vTesrn959x4chYt24BPDaTlTuYNgUCQOWIwAARkRgAEgszQyrRhfU1uWX8rK23vXfTNPRAFSIlAiI0IUp0RGJ6XXcRXxSmxKNP8KU3jIBCUJtUQqAISAIEgn0md2q7JH6M3BO1hgveUPa7X/DF6XPi7L/txWPDIhLyL5QMIBLEwQSEgwEgCIBAYmZZfOoVG2OupqZQPM9DT8Dx5kpZ9D/7rHGUCITYoSHXNpQs5Mfnl6vKVNuX1FgSC8uYeIpd/AiAQ5CyHBIYtntgtrM/4pUOZ4jllAgEF/H7rsrHjwu4cQDtEsWEkgSl94Jd+gEBgfIrAQSDwSwIgEOSrc2hzOWXtOnfQ4PF4aJ4iIy5KBUJUaKjKspMnC7NKKriw6JER+a/WCRAIzM8ReAgEfkUABIJ89Y1TQ9tOqjd93W4meU2pQECB3900e8j808/CmAQBfPk5ARAI0DOAgPwSAIEgH7kTEhjWQF+19ODFK2grAMpPbKyOEuUCgQgNVRkZfi43IacY9kVgeP8FgcDwBIF7QKAaAiAQ5KN7oE/ul0d1Haw3ZfkppnlMuUBAAMJWz+mw+dLTuwQmxFiwwyLT+sR3f0AgMDY14BgQqJEACIQaETGigJWhZtGx8xe1GOHMf5ygRSDweDxW3JMnrz/kFjVkM5EK+FRJAAQCdAQgIL8EQCAwP3csHCPOjnd3MRo//xkTvaVFICAQQfMm2R67/yGOiVDApyoCIBCgJwAB+SUAAoHZuUOfFlqZ6X7ZFnbekqme0iYQCAzDl47yvHUjIb0TU+Eou18gEJS9B0D88kwABAKzs4fjuPDezGHO+GDvaKZ6SptAQEAieTy9Rddv5QgJAs5oYGAPAYHAwKSAS0BATAIgEMQERVOxVvX0XgSdPNucJvNimaVVICAPX/j5rph859Uy2IJZrHxRWggEAqW4wRgQIJUACARScZLaGAtnlf+9dJwB3mNMEakNk9wY7QJhP2+c2tFbn4qL+LC1Ism5rXVzIBBqjRAaAAK0EQCBQBv6GgwT2Jo2dvu6bto7gakeivyiXSAgR/7mzR0x71rUUabDUjb/QCAoW8YhXkUiAAKBmdnU4nJKr968poHjOKM2RfoZLUYIhLCwMPbhPXtK04vKOCwYSGBMrwaBwJhUgCNAQGICIBAkRibTCmjHRBaLwHxaNR45KjD4T5kaI6lxRgiEylGE4JXOc4/dfMMYh0gCLM/NgECQ5+yB78pOAAQCs3qAECMwKx2NuBOXLtkzy7Nfe8OY5zFa9ug9yOPl69TcxvICT9H9BIGg6BmG+BSZAAgEZmWXxWYJLgx3s9Of4veJWZ7JgUBALkbu56kt2nOrRF7gKbqfIBAUPcMQnyITAIHArOx2sDY9ueHIMU9meVW9N4wZQRC5GbNivt+Yq4/WwlwE+rsRCAT6cwAeAAFpCYBAkJYcufUEGIGpcVi5XV07G/F4vApyW5dta4wTCASPxxrx6Enpp/wiFdmGDq3XRAAEQk2E4O9AgLkEQCAwJDc4hvl1dJ7Vb932LQzxSGw3GCcQkOdP1i9x9D1/J1qI4RgbVjWInUyyC4JAIJsotAcEqCMAAoE61tVZalZXKybkdLiTPCxr/G8cjBQIyMkVY4bfvvQxuRPssEhfJweBQB97sAwEaksABEJtCda+vrYKm799YHcb++kLEmvfGvUtMFYgRPj2Ug15W1aYVSbkUI8FLCICIBCgHwAB+SUAAoHu3BHY7PYNLwwJ2NGXbk+ktc9YgYACeh3oN3ryqQeH0AYTcFFPAAQC9czBIhAgiwAIBLJISteOkSY345xfu3q4q3xNTPx3tIwWCJVvsX37vI7JLmgEqxqk66S1qQUCoTb0oC4QoJcACAR6+KPTiVXYLMGkzi27j1m98SY9XpBjlfECISuIpzP09O2sIj4BnxrIybnYrYBAEBsVFAQCjCMAAoGelBA4gS1qUu92v5BjXejxgDyrjBcIKNTA6RN9TjyLCyYIAoORBPKSX11L6KvO0p6dHvZeurItNRbBChAAAmQS+HzzvPPCDTvffMovJrNZaKsGAlqqnKw/R7awNpoQUCDvsORCIKC9EYY9fhz1Ka+4OUveicuJ/wSBYasGdIpzm7dSbvYNlxO04CYQoIRA8v0rDRauC34fmy33zylKeJFhRIXFEg5t06C3z4aQy2S0R3cbciEQEKSwgHkmQReivgoE8KmBik6DRhDm/t72wuAV6+R2Bi4VnMAGEGAqgZSbN50XbAp8E5sLAoGKHBEYgbWxMDm95fiJQVTYo8KG3AgEBCNikc+CVbff+lMBBmxg2IjG9Uv7Nrd5L/gScwV4AAEgIEcE6lq54Li68eQztxsXlAvkyHH5ddVMRyOtX9eGtmPmbSyS3yh+9FyuBAKPx2N9iIp6EZdT0Bh2WFSULghxAAEgAATkl4AQwzBNFRaxvl/7Ea1mrzouv5H8v+dyJRCQ+8mhc+oM+/N5Ir9CqKpIiYBYgAAQAAJAQP4IoE8L7k4WEcv2HOktf95X77HcCQQUzumZk0dufBpzRCAUwqoGReuREA8QAAJAQI4I2OhqJAaO6+1U19OnUI7cFstVuRQIBEHga8cMux0en9ZRLgMQKzVQCAgAASAABJhMQI3NLg/u0bq18+K1L5jsp7S+ye3z9XkgT295xL1PGcV8XWmDh3pAAAgAASAABKQhgOMYNraJ9SbvkP1zpakvD3XkViAguPcD/DovufDoWolAqCIPsMFHIAAEgAAQkH8CaBl4S1Ptx8GeLTvinrxy+Y/o5xHItUBAIYXP/+OQ//3Y0XCgk6J2UYgLCAABIMAMAkgYoEmJ9XTUixd7tG/i4r30IzM8k40Xci8QiMhIjmfA+tjE/FIr2SCCVoEAEAACQAAIIHGAYRocnAjt3nyi/eLN+xSdidwLBJSgbfOn1bvyPCY2s4ivgb4LwQUEgAAQAAJAgEwCQozAWDiOdbQyObb+8LGROI4jvaDQl8I8TkOnTfI4/DL2dIWQAI2g0F0WggMCQAAIUEugSgkQmK2+9osjY7q2wz1nl1DrAT3WFEYgIHyLx47advNj4jR00JBCBUZP3wCrQAAIAAEgUCkNMMxUVTVzsWurNi5LVyv0vIN/J1yhnqNEJI8zfMPDDwl5pdZw6iP8roEAEAACQIAMAjoqnIrp7RxH9l67PYyM9uSlDYUSCAh61npf85FXo1/mlfIN5CUJ4CcQAAJAAAgwkwAaPRjb2Pz4lJ1HhjPTQ9l5pXACAaE6OXt6u6AnbyIrhEKu7NBBy0AACAABIKDIBJA4cKij9eigx6AuuJdXqSLH+rPYFFIgoEDneo1cfS82aXHlxyO4gAAQAAJAAAhIQACd0qirykld6ubSvqOff7wEVRWmqMIKBILH4yyJfRN+41NmT4UNUmG6IQQCBIAAEGAOAfReqauqUvxHG9uBg9fuvMIcz6j1RKGfnZGBPL3Qm1FPPmUX2KF1DQodLLX9BqwBASAABBSSANrvQIPDJnxbOfoN3LhjvUIGKWZQCv/MjNs8y27G5bePsorKDRQ+WDGTDsWAABAAAkDg/wmgkQP0nPCwNt4///DxiTiOoy8NSnspxTPz6hLf7hvuvj2bXyFQZ8E4gsJ39spfNNrkjKgaNVKKTq7wWaU2QLTfPuo56L+oF0EfopY/1dZEGyEhuy3q6T/f/nuvDri3dzHVfjDNntL0+5Ap4+Ydf/N5fTnstMi0Pki6P+imzmFhRG8786WEAC8hVAhV0o1AgwpLQCjEsDJ+RYWOCrdCCxcMPxSd3Aq2Z1XYdFcGJhIIVjrqX/d1adNOYwEvUbEjFi86pREIBI/HCkt7f3TP29RhBQKYkSBe95DPUugbYkstTLD9ym0VXPTbl89QwGuaCYx077X+Y17JfKW5UdLMm07z1jpqRe5NbVxH+Yc8odMPJtlWqn5P7OepeZ1+fiEmO7db1cAhXIpIAH1iUGHhgrt3bnKV/RuiIuaXypi6uXZbX1gumA87s1JJnXpbuqoqZV7NLb2GbtpzjHrrzLWodM9I4hCv7riTj+9HZxfZiiSC0kFgbn8kxTMkEHAcE+wNnarh7OxZTkqj0IhSEnDr7r61oKh4OtwjFDP96NMCl40T/ZtZrJ4TdGiZYkYpfVRK2e8/rZprvfThqydxuaWGMAVJ+s7D1JrosC4CI4Tnli/SMenRo4ipfoJfzCfg3mfA7qyc7IkwuZn5uZLGQ/QAHNjI+OicnYPG4rinQJo2FLmOUgoElNDcwMld512OP/emsFxLkROsrLHhOEbsnuPewnnA/BfKygDirjUBfN4kzy9336aZwwfJWrNkVAOiDXadjPVu7hvWrD/uyStklIMMcUZpBQLif3WN77gtN6K355TxNRiSD3CDJAKoY3u7NRwylhfyF0lNQjNKRoCIjOR4Bqwr+5JfxoIRBMVKPhIIdgbaUf1a2vXw5AVmK1Z05EWj1AIBYdzjN2H98XsJcwsFQpbSwyCvXzGipXltHPcP3BQ6nhHOgBNyRyB1w1zNgeeiCoQEgcMIgtyl76cOi0YOzLVUE2Z0af67sp6xIG42lf6ZSBA8VsTMhMA1Tz9PR9+u4VIcAsYGmlFnwy+2UpyIIBIqCfBmTTC4/PhjFrKp9DdKKsHL0Ba6xVtoq6b6tXPo2WLZtpcyNKUQTUO/xzAsKjRU5eS96yfuxqcPEH7bfU8hsqvkQdTT0yg/dTECNklS8n4gbfiH/Rc03R7+6AXcJKUlyJx6SBigDdSMtdSLRjs49RqyLfAuc7xjrifQ97/lhojcr7Zg54Vj95KyPIQwksDcHiuBZxwWLrizcpka7upaIUE1KAoEKgncXTZ18fwb71YDDvkngG7p1urcAo9m1iOHbgwNl/+IqIkABMK/OBPhoRqTD12+/ColuyPaxx8u+SaAVjv6ubs067944yv5jgS8p5oAgWH4+IEeb6PTcp2otg32yCOARg0qj27W4AoHt7SaMMl/9wHyWlf8luAp+J8cF+xba+R/+fGlG0m5LQGOfP8A0K1hVlMn3tCQnSvkOxLwnmoCCTye2ujrt4sEBAGbKFINn0R7leKAyxJ4OFnOnBKyf/v3YxdItKHITcEz8CfZjV8zw3jxg9ir8TnFTeA0QPnt/ujmMNbOKGnKwZPm8hsFeE4HgQMBvrY7zr2OA3VAB31ybKIzWdQ5LGKAo+Xq6aH7l+M4OuIVLkkIgED4Ba2PWxfUnx3x4lpaYZkDQJKkSzGnrBATYvXUVISnO3ZUwXk8pT7XnTlZkQ9Ptk7zWvzn84TVIBDkI1//9RKNHrJYONHRqu4G/0MN/XAcfv/SZBKefdVQOzrHx/L06/hriUUl9jCSIE33YkYdnlv7zj14a+4wwxvwgukEIiN5nEPbojLepRboseCcZ6an6wf/RMc2q7BworGZ4abt3o39cFceTFKWMosgEGoAl7xtToOlV99feJtdbAuwpOxlNFcb3tjq8/SdB6xodgPMywmBPbNmGex9/DxTiGE4jCDISdK+uYkEgiYHI4Y5mm6dOKnLfNzFmy9fETDLW3jmiZEPdLjTjL/fRKYWlliiHdUAmhjQGFSEy8EJnmtnrisP3iQYlBbGunJjvs/MJffeBMKR8IxN0f85JtrngMPCiSGOZptnjLRfCCMHtc8fPOvEZBjqN63B+ajYy9nFZZZiVoFiDCGAvkcuc2s+xJ23Bc5lYEhOmOrGWx6PuynqScb7nCIdpvoIfv0/ASQQ0Neg32yN924ZN3ky7H1CTi8BgSABx0uBK9uGRvx9JL24zEYIIwkSkKO3KBII1gZaKX+ev2AGM5npzQXTre9d6tt0981XL2CckOmZqvJPtM+BKgsnWtjUCQmc7zkbd/Yslw/vme8lCAQJc1Qa5Gs768bH688zi6zgJiIhPJqKo9UMGMbCFvX7rUH/BQExNLkBZplPAF8w3PPKrS9pbnB6I/OTVSUQ0JwDnBjZ0CzAa0LHpTDngNy8gUCQgueeOT6WD+MSr77JzIMlkFLwo7pK5cxmAsPsjLQjDp8L74NX3VfgAgI/EJgzfHidx19T0/mVpzfCxWQCojkHaiy2cKCTWcD0eraLYSkz+RmD34GUTLdOmlT/eUrylejswgYAUUqIFFfjsHFsvUdnw3azeXD+O8XsmW4Oba28YvSwbVfiU32Y7iv4V6XwVdksQS9n03ULQo4sg0+HsukV8GyrBdeE7TyTNdde3XyXmeUEp0DWAiRFVdGHhn72ZgcWHTg6HkYRKIIuJ2bC/HyNtv79Ok2IJhfBxVgCVSMHGKarwinzaGK5YsrWPf4gDmSXLvgx1JItEcqrs+zmi+PXEnO7AcxawpRxdTShicvCsWHtnQym+u/IkbE5aF6OCGz3Hrvn0JtPE2DuAfOTZqWlUj6sQf1R/bfuPcl8b+XbQ3imkZC/h0E8nZOP3hx98iWzDx829CWBqOyaQG8fTesZXNkZdqoXvHnIjrM8tbzYa6rFo4SYz4V8Acw9YHDi0K3VSINb6tvackiP1bsvMNhVhXENBAJJqSQiglS3nbq3O+xD+miBEObAkYRVJs2gM1t82zVuNTwgOEomBqBRuSEQNmQIO1VP/f6xd19+kxunldRRHTWVLO/mDn0Hbtz+QEkRUB42CAQSkROhoSpBsU8O3HoWPyylTMhCMgG2aiURMElNoVPebPW0kxe3crF25vFgzTRJXOWxmTXjx7iGx3y5CTdCZmZPdLaCoRo3edbvLT1+9/N/wkxPFdMr+F2QnFeC4LG+LkmZ6fM4bkNGsYAFgEkGTEJzBIZ2RsCxCS1tl3kH7VtFQpPQhBwSiOTN1Ft7+83H/HK+Acw9YGYCkUDobKLz0a9bw+56U/3jmeml4noFzy8Z5JYgCPyEn/fgP58mHEgr5mugebdwhoMMQNeiSXTj0eCqYIs6N7L9nRcIN55asJTHqmFhQ9jZD7gnDzxKGlB5E4Q7IaPSKPpI29zM4GlvGwe3Pv7+MKmYhgzBz0KG0CNXzeyy48GH05/zivSrjosG3DLELXHTaFVDT3ODN0MG9e7s7DkR9kaQmKD8Vgj383b3vxt9ES1Phot5BFBa3G3rXR/dxaGvtRevlHkeKodH8OuQcZ6TNy62XP73q1uvMvKtRLBBKMgYupjNVx7wghFY34Y2wW1HWM5yhXPjxSQn38VOLfaxvPkmLv5pRhkLli0wI5dohQK6P6L5QWpsFuHe2u7cAjsXT9wbjmumM0MgECign3poQ93N155evP0x1QXdkAA6BdAlMYFj2Jr2TTy6rg86J0k1KCt/BIj9PLWNd988PRWT0bBqEjH8GpmQRdEnBW1Vdvm4lra+IwJCd8MyZPozA78OinIQyeOp3UmJ33f97Zdh5QQ6mRROm6cIfY1mqt5aOMVzfnNq1G9jcEKNFaCAXBIgeDyW/+fYledikhYjXQA3P/rTKDpTAWWjga5aUXN7024zt+5/RL9n4AEiAL8RCvsBWuGwyitm5sMv6QHZZRVs+NRAIfxqTCGBgH4KjY20c0d2cLB3nbspkxmegRdkEgj08hocFptwUkgQMHJAJthatCVaxtiqjuHXGd1btLfzWfK1Fs1BVZIJgEAgGag4zR2Y7tPt1PvYc+nFZZqwukEcYjIuQ2AYmhSFJi32MNN/atawbidv3q5iGVuF5ikksHnKuI4X3n29VVwhqNyaBG58FML/iSnRhrMqOIZ1tTK6t6JfWzfcc3YJvV6B9f8SgN8JTX0iOXix5bobr24/Sc+3hJEEmpLwH7MCrOrNcpCTafjg9o6eMHuaGXmprRf3ly5sfvT586inOWWwL0ltYZJUv/JcFA5LML25VeCgdr0W4p6eApKahmZIJAACgUSYkjZ1aO5czVup2XtiPycMKxcKYdhTUoAklxdNlKocSbAyPTi0f4NJzp6w0yLJmClt7vaqmU67Hye8icvOY4n2I6HUATD2A4Gq1QoEZqOpVtGjiUOvsRu3XQdEzCUAAoHm3KB5CRumxa+6+CZpQXmFgE2zO2D+21IrBKKrg/nB7pb2E115vAoAI38Erq+Z2yTs0aubL7PKDWHLc2bkD4nvpoaamTvdW7TDJ6+OZYZX4MWvCIBAYEjfOLNidrfQ269O5ZRW6GJ41aQ5uKnRk5wq+lXnzvd0NAnr3vO3ce3g+yg9yZDS6vVFM5oEPYt9ll5QXCm64UYnJUiSqiFhoIbjWCdrk/t/9P3tdwv4PZFEVrbNwO9Gtnwlaj3Mz9foQeyn5w9S880IAtZoSwRPBoVFS7B62Rpd7dO+0QAXbx5MXJQBZ7KbjFq1pPuuew9Pviyo0AGRTTZd6dpT47D4i1ybLnPjBfpL1wLUooMACAQ6qFdjk7gyV3PL6WTeqXcpcwRCAkfKGyYx0pMk0ZwE9N20cR2dR349W/Szm8JLp8cbsFoTAXQGiv8fY1yffM64llxcCqsVagIm479XrVQgMAM1lXwdba0WJ86e/Shjk9A8yQRAIJAMlKzm7vJ8+qy7E3Miq6xcgwUfG8jCKlU7SKRV7pNgopM3rrVjy/bzN8CNTiqSsqsUyeNxPhd+nrfnUcJavhCOWZcdafFaRiuC2CwMc61nFLVm9fgOuL17mXg1oRSTCIBAYFI2/uNLyr61RsG33zy6/THZmg+bu9CWKdFmLkgkOOlxsVFO9bt13bA7EraCpS0lPxj+unmW+p/vUk6feZ/SE45Eozcnos9yqhyWYHXPxms7+QUto9cjsF4bAiAQakOPgrpEJI/z8FrykpX34pbmVgjhkyoFzH9lonLHRQLHOCwC82ppt76tvsUyZx4sg6QxJdjDIL+Gp/6OuXE3KcsEzlagMxNVttFvpLOxdtb6wY074CPWRdPvEXhQGwIgEGpDj8K65zbwmlz+++GD55mlGqJ5CZA8ChPwbVUDsiha5WBroPt0TkvHfi14AcnUegLW0LkKIXmJXpfffN2VWVzGqnpzhU8LVPcM0TwddC9SZeFE/wY292a69egCG4aUQ5wAABJISURBVB9RnQnZ2INnjGy4yqRV4soGzdAz0WEH33zsRVQe+AQXnQTQJKxG+lxsQnPnkW3ZusdxHk+0gyydbim87Ss75tZ9+vDz6fNx6e1hAi+96RbNz6nD5ZT8OabTEh2vZZvp9Qisk0kAnjFk0qSora2zfDxPRr09UiHEVOCtiSLoPzEjentC7659rU0ednK2du/o559Dn0eKbZnH47H0874Mvvk+6VhaAWybTGe20acEkThrY6L7KnBMvw54/wkFdPoEtsknAAKBfKaUtEiE8jT8It+/fZqUYlUIUxMoYf4rI5VzE3AC01NVxea42E52UzfZDaMJ5Kbk5e5V1sERUcdfp+f9hoZpYMtRcvlK2hqBCTEumyUY0MZh+ayAXWskrQ/l5YMACAT5yNMvvVz/x+jRrxOSDsSWCFgiRQ9JpTap/4wkVNm11deKn9jUamiXNcFPKw+JhEtqAmiS7pp9savufkldkFch+IYTPixIDVTKiuhTAhozQBcLE2INzE1iQno79FIfszpByiahmhwQgGeJHCSpJheJy3sM/I5GRN+KzzKCmdw10ZL936sUgRDrY23ysk8L+97NZq9Jkr1VxbKAxmTuL/IdG/gibm9iXgmcwkhzeqsOWcIwDoslXPV789muyzdtpdklME8BARAIFECmykTMunkTx0c82VUhrJL6sCaSKvI/2vn3WQ4oER1NDE8P69xycovpizLo8Uh+rKLdEJ+vnT968+OYfbGZeWwYFaM3d1WTEKuu7lZG0bPdu7bTGzkV5tnQmxbKrINAoAw1NYY++i/QfZyc/iD4WbyTkID0UkO9eitCAsPUODgxoWG95y0btxzq7DM7jgl+MckHtCrn0aopf6y889E/q6RcX/RlhgXHLNGaJiQQ6mtwBJNaNZ7RbY3eDhyHlTq0JoRi4/AEoRg4FebQzXblxOF9klKzT77MLVNF56+jC77cUkH/ZzZEezHiGBvHCDNN1aiZXZ3Wtluw5SxdHjHFLnHhqP60Q6d5qfnFk5MLirmol/5750q4QVGbKdGnBJQDLo5hA20t707o0Xigzoi5mdR6AtaYQAB+f0zIgox8yNi7Vzv8zaO9Yc9ihuRUwPHRMsIscbPfZuETFnqa/ImN6+2ysLdb1GDCAqVaIvZi08rmr9+8CNofn9u2uELIhhuRxN1IJhVEG06Za3JL5vZtN7vNtOWhsKW4TFDLRaPwu5SLNEnvJJrslbmZ13LZ/ahrz1MK9NBMZNF8ZBi+lZ5rbWr+d46CGhsXtLCqW97HznJ2Fxfz/bj7dIU82CYhfFuDv29Erb/yIad7Qn6+qpBAi0PRBSeW1qY/kVEX5QEJVzUWTng2tt7m7Fx/sasPr5CMtqEN+SUAAkF+cyeR51Ghk1TwLyo+W5982BhTVF45+QuSLxFCmRX+/pDEMUydhfOb6Gi97uNsu8vGrfVZm99HpMnMMAUNJxzb0jror7sTUkpLRiTnl6qXCwXfjmGG3kcBfrFNcHACa13PMM63hb1H/YXr38HyXLHRKXRB+JUqdHr/P7jEtWMM97wX7riSkDgYvcGhDgCdgN5OIDoB74cZ+ziGcVm4oL6BTokem3NmQtvmuz7Ud3jg6ekpoNfb6q0nh4drHL14dvSb7MLZ6RlZFgUVQnWBsHIrqe8X7P5JfwYJomocC81jdtJVLzKsqzdqo7tjBO4Jh4/Rnx3meADPBubkgjJP0FKyV1vmN99zO+bM44y8+vCpgTL0UhvCcYxQxVl8Ez31UkM11b9721icb9TY7r75KN83dL3tEZGRnDdv/u6Q/+Wj2+6Pud3yioqdU4rKVVkYpoJWboAQkDrdMq+I8qPHZRGDWtqccm3eZIL9qOn5MjcKBuSOAAgEuUsZeQ7HBgWpno95NvJeXNLOpEK+StXsBLR/AnQL8ijXvqVv73oY2t6icsTn25MXfS9m41i5kY52iaa2do6HWsFDlrlJXJ5undsurVrmqFoZp9av36FWJ03GPgszSkz4alvyMclBMze7Hbew2OFCLrtJbEYWN7uYzy0TYqoV6Gnz7RLNr6h91NACmQSqVidUZUeNhWEDbepFdXGxHN04S/UDbAtOJmnFagueBIqVT6miOTd/vnYOVrD50KMP44sqKlggEKTCSFsl0WY2osWsbBaOsVksTI1FVBBCrEKNg/P11VT46prqQozDJnKKyuIKSoQ5OI7j5qaGLTGhEGMJ+BguEODCMj6eWVTCySvnq1UeMYERnDIC46DPBFWjAlXjFbC1IW3plsow+siDJn+0M9XNHdvMun9jh+R7uOdJRn+ukipQqEQqARAIpOKU38bQZ4fr6xdanH+fvDb7y6eRn/gsrKLyAQGTGZmf1X/2yf+vr+L8wP89PwCV/+/hEaI2Kv8d9QlxGmU+NIX2ULRcUZTPNsaGJZ2c689twc7ZZ807UKrQwUNwpBGAnzppKBWjISQUclb5Ntr4IfnI7U9ZTQTfRIJiRAdRAAHlICCa+FpXXUUwroXVWh0Du01uCxfmKUf0ECVZBEAgkEVSwdp5G8bjxr3Ibn8/IelQVGKmeZFQ9C4CIwoKlmoIRwEI/DjqQ2BGqhxiQGO7A3YaBgs6rluXSddEVgVAq9QhgEBQ6vTXHDwRFKT6KDm684m4rwcfp+abVAhx+P5cMzYoAQQoJfB9xECFQ0xqZXPD0EBrStuFmz/CLoiUpkHhjIFAULiUyiYgYvMs9ZUvsnqWlwsCr39Nsvx3x4FOJBvm0CoQ+BUB0YiBaIWLkSqbaGdTN6yzneWatqXqb2FlAvQdMgjAvZ0MikrURlRoqEZ8zJO+tz+lbnuRXmgkQCdDwbJIJeoBECoTCKBli2jGKBvHsakO5sccna03uFhEv4KVCUzIjuL4AAJBcXJJaSQZe+drP/pQ3D8s5vP2mIwCnX9mv6PlVNCtKE0GGFN4AqLtuEVyHO1p4GZvetjexHTlqBZtE3CG77Cp8AlS0ADhTq6giaUqrENz52qaaPPd7ySkbH8Yn25UKIARBarYgx3lIYD2MUA3a1tNrnBwK+srmWqcORMdMz7AiIHy9AE6IgWBQAd1BbRJ7Oep3YlJbPcsPXfuiZjMXqJvpHDWgwImG0KSOQHRPgbftqbC7HXVy9tbGwR3bWazx37iqmiYfCjzFIABOKcH+gDZBHg8HstWkNU48UvWvDtfUkfklAtwmKNANmVoT9EJiHbHbGOim9vZyHCRjnm9810Xr04GYaDomWdWfDCCwKx8KIw3BMFjXd1U5vDq9acBLzOzeXG5pVxRcCAYFCbNEAhJBKoEQdXtWJuNYW2czJMa6Ndd0l2fc8poQUABSWagGSAgEQEQCBLhgsKSEkCLHBIDZ+lfic3p+SY/f+3TL1mWaC8FuIAAEPiHAJpjoKvCIdpY1v3TxcBgXV9rxzh8+vQyYAQE6CQAd2o66SuZ7eRQnsb1+MyOjxJyp37KSuudVcpn//v0P+iMStYhlDDc7zseVnb8yn3MMRdDnVwHfc0NFiYmf3qo6X2BPQyUsGMwNGS4JzM0MYrsFsHjsS5ipVYfPycNfZKZvSg2u1AL3SnRaXNwAQFFJoA+JSBtoKOCYw3N695ra6y/2c3S9LrhdF6+IscNscknARAI8pk3hfH67rqF+rn8wl55KYWzj0cntswsqxB9iv0eI3RShUm30gVSKQcI/HufdjbULG5poLrF1L7+SY86Tm9xb2++0kGBgOWGANx75SZViu0oEcnj3Hle4vQ2PnPMq8TM8Wm5eQbJ/Kq13zCpUbFzr8jRodECO00u4VzfMNLO2HDn73XqXNOfxctV5JghNsUhAAJBcXKpMJEQe9drv0pPan89PnvMx4zcfs8yCjSrgvu2X+O3iQsgHBQm5XIfiGhZoqiP6nFYWMv65p8cdIiQvm1bXNYfmf8Wx3lVOyTDBQTkhAAIBDlJlDK6iaZwvdseYPwqLbFt8qf00c8ysvrH5pexWAQLI3DY0lkZ+wRTY0arEPTYLMxGTy+1dV2NvY1a2d9p6WB5B3f1KmWqz+AXEKiJAAiEmgjB3xlBAE1szDEtMQ9/k9nrA5//x5ePqc2+FJexyzG0K/2PF3RqRqRMIZ345xTFqi3F9dgEZmuqXdrBzOySYR2NrW6GDZ7g3t7FChk8BKV0BOBeqnQpl/+A0SZMOetLzG/mpXs8zMd8k2OTrb8Wl7LLiaqPDtCp5T/HTI0AjRRYquAYrqFRNLSJ8Q3zunX3tDJXv4d78rKZ6jP4BQSkJQD3UmnJQT1GECDCwtjFCVHGF3Nz+1+MzXJVKy/1eJlVqPLvmeNoP3uY6siIdMmNE6I5BUhyot5jwGFhTiZ1vjpqVBwZ0KrBvTq62vfxkX45chMQOAoEpCAAAkEKaFCFuQQK9weYnEpNbyv4kNjlZWnZsNTU3LqFgnIsU6AC+ywwN22M9MxGU1VoYV7no60O8WeDpo0fdsBMbuFeMKeAkckCp2RCAASCTLBCo0wgQFw5pJnz4Kltdl7SkLtZgubnU4p6pBaXc0Rr09FER/SGCD8CJmSLWh/+ffaBaISJheOYo75mRqYQP+ndwupp++b2T/X0G7/FXV0rqPUOrAEBZhCAeyMz8gBeyJgAQRD407WzTN7i7PaFMdHt4oTaAxOSMyxTSiswFkgEGdNnXvNCAsPYLAxzMtAoU6mnH928HD9VYWZ8eaqJzXvcx6eQeR6DR0CAegIgEKhnDhYZQICICFJ99fRDvdhCdvtdT2JaNDTRG5iamVn/c1EF2iG/8hJtly/SD/BjYUDianDhvyta/l2cg2OYg55WMVdP510TFeE1swbWD/upYw8w37VZOI7DHgXMTy94SDEBuOdRDBzMMZMA8TaMW37rle3FzMIWO++9d3Ew0e+ZnZljn5BXxkYz10WTHOEHw8z8ibyqespX5asOl4VZGGgWaurqvm+oxjnNtTV/N0qLcx+btBwJguq0BLODBO+AAEUE4H5HEWgwI18EiMhITvGbU3V35us44fFpnbT5RY1eFBZ3zMgrNvpaWvHP3gvfd3Wseiyh/4VZDeTnuqaneR02hulqqQkcTfWTbQ204rmE2jErNdYtlyb6GdiQ5TkgCMjPCbSo+ARAICh+jiFCkggQYdu1sA9v9Y/mcBtlZGW2zuHifbPyCy2ycksMi0tKWWkVaOobjrFJsgfNVBFA4kAkELg4gZlyWZiqumqZuaF+an1McFWoof3KpUn9hN/Kyp5hjibZuPv0MmAHBIBA7QmAQKg9Q2hBSQmgraCxsO2aJYlxuvE5wnpPCgvcctPS672r0GjEqSh3zi4sMvxazMfRhDh0VZ0k8c8Iw39HHP699l5RkYpWD3w7VeNbmKLHv+h2VPX/jbgsrI6WGl9FTe2jAb/0vmUdvZx6FsbPuxDlj3TM9AowoWU2nIaoqD0F4mICARAITMgC+KBQBNCKCex8gBYW91lvw1eukQ5e1LEiL99WR1X1N1ZRscnVrBKD4rJy7awyPlZS+dG86jvFPwJBcbd1ElQKJJFgwjE9Do4ZqKvyDXV0U5NLyl621ixOVtPXzzM0snvpUJod5eJknIcZG+TAqIBC/UQgGDkhAAJBThIFbioGATS3Afv4XKc08YvOBV0dp/zy0noFyen2gswcg/RyQj9fVatFQX6hAZ/P1xFWVLAwfgWGjr0WiBG+6K38x/fwH7ee/tW5FT/7xv/vm4O49UQ+1GETmBqHjeEqKhiHo1JooK2f8SU//2UH7ZIsdV3tEjMj46/l+vopdXJzon431MvFzJpl4Z6e5WKECUWAABCgiAAIBIpAgxkgIA6BytGHs1t0sdQizdKsFA4/X6h2GNcwMlJlO5ZmZ5tkFRcZC0tL1YvLilQi81hcLoejZq6n1YJVXqwpFAg0ygUCdqkA4wgEQjZOCDGCIDBM9I2DQGMUBJZWjgRH1RbCVTcAAqvHrZr/j/aEIHD0rywMY7Ew/H/tnTtuwkAQhv/dsZc1JAiCDVK6tPTcIafIPdLRIeVSuUUqSAvCFMYQ21nvI7K4AKIi0kw9I42+f4op5iEEJBEUiTYmsj1FrYiSc+mw3RenjQvevaZUa524wUAXo6fR4az63y9F/rWI60pnzw5pWuHtvRsU5FXCa4qAfZjAnRDgBuFOhOA0mMCtBMLnMgLmGvk6wY8hNEdC9StR12hsIGEVmSh0ny9l6wJ97AxK310FuJiUMqxmpYcxUCryCrEPIKvbxuHxISAZA9OJRU/YEtoNs3HFb4xvVYvjmMD/IfAHJsBHW8Y7GlIAAAAASUVORK5CYII=;aspect=fixed;" parent="gRpyRmBpIIZ7N3UadSsL-64" vertex="1">
          <mxGeometry x="560" y="235" width="80" height="80" as="geometry" />
        </mxCell>
        <mxCell id="zRir33h0D_i_C-uxktbW-4" value="" style="rhombus;whiteSpace=wrap;html=1;rounded=1;strokeColor=#000000;strokeWidth=3;fillColor=none;" vertex="1" parent="gRpyRmBpIIZ7N3UadSsL-64">
          <mxGeometry x="130" y="147" width="50" height="50" as="geometry" />
        </mxCell>
        <mxCell id="zRir33h0D_i_C-uxktbW-14" value="" style="rounded=0;whiteSpace=wrap;html=1;strokeColor=#000000;strokeWidth=2;fillColor=none;dashed=1;" vertex="1" parent="gRpyRmBpIIZ7N3UadSsL-64">
          <mxGeometry x="620" y="145" width="55" height="55" as="geometry" />
        </mxCell>
        <mxCell id="zRir33h0D_i_C-uxktbW-17" value="&lt;font style=&quot;font-size: 24px;&quot;&gt;数&lt;br&gt;据&lt;br&gt;仓&lt;/font&gt;" style="text;html=1;strokeColor=none;fillColor=none;align=center;verticalAlign=middle;whiteSpace=wrap;rounded=0;dashed=1;strokeWidth=2;" vertex="1" parent="gRpyRmBpIIZ7N3UadSsL-64">
          <mxGeometry x="662" y="140" width="73" height="64" as="geometry" />
        </mxCell>
        <mxCell id="gRpyRmBpIIZ7N3UadSsL-79" value="" style="group" parent="1" vertex="1" connectable="0">
          <mxGeometry x="1330" y="780" width="520" height="500" as="geometry" />
        </mxCell>
        <mxCell id="gRpyRmBpIIZ7N3UadSsL-67" value="" style="rounded=1;whiteSpace=wrap;html=1;fillColor=none;dashed=1;strokeWidth=3;" parent="gRpyRmBpIIZ7N3UadSsL-79" vertex="1">
          <mxGeometry width="520" height="499.99999999999994" as="geometry" />
        </mxCell>
        <mxCell id="gRpyRmBpIIZ7N3UadSsL-68" value="&lt;span style=&quot;font-size: 36px;&quot;&gt;可观测数据&lt;/span&gt;&lt;br style=&quot;font-size: 36px;&quot;&gt;&lt;span style=&quot;font-size: 36px;&quot;&gt;采集器&lt;/span&gt;" style="text;html=1;fillColor=none;align=center;verticalAlign=middle;whiteSpace=wrap;rounded=0;fontFamily=Helvetica;fontSize=12;labelBackgroundColor=none;" parent="gRpyRmBpIIZ7N3UadSsL-79" vertex="1">
          <mxGeometry x="114.83333333333326" y="20.833333333333407" width="281.66666666666663" height="229.16666666666663" as="geometry" />
        </mxCell>
        <mxCell id="gRpyRmBpIIZ7N3UadSsL-69" value="&lt;font style=&quot;font-size: 24px;&quot;&gt;log-pilot&lt;/font&gt;" style="shape=ext;double=1;whiteSpace=wrap;html=1;rounded=1;strokeColor=#6c8ebf;fontFamily=Helvetica;fontSize=12;fontColor=default;fillColor=#B5CFFC;arcSize=24;sketch=1;fillStyle=dashed;" parent="gRpyRmBpIIZ7N3UadSsL-79" vertex="1">
          <mxGeometry x="80" y="209.1836734693877" width="160" height="81.63265306122447" as="geometry" />
        </mxCell>
        <mxCell id="gRpyRmBpIIZ7N3UadSsL-76" value="&lt;font style=&quot;font-size: 24px;&quot;&gt;logstash&lt;/font&gt;" style="shape=ext;double=1;whiteSpace=wrap;html=1;rounded=1;strokeColor=#6c8ebf;fontFamily=Helvetica;fontSize=12;fontColor=default;fillColor=#B5CFFC;arcSize=24;sketch=1;fillStyle=dashed;" parent="gRpyRmBpIIZ7N3UadSsL-79" vertex="1">
          <mxGeometry x="278" y="209.1836734693877" width="160" height="81.63265306122447" as="geometry" />
        </mxCell>
        <mxCell id="gRpyRmBpIIZ7N3UadSsL-77" value="&lt;span style=&quot;font-size: 24px;&quot;&gt;filebeat&lt;/span&gt;" style="shape=ext;double=1;whiteSpace=wrap;html=1;rounded=1;strokeColor=#6c8ebf;fontFamily=Helvetica;fontSize=12;fontColor=default;fillColor=#B5CFFC;arcSize=24;sketch=1;fillStyle=dashed;" parent="gRpyRmBpIIZ7N3UadSsL-79" vertex="1">
          <mxGeometry x="80" y="326.5306122448979" width="160" height="81.63265306122447" as="geometry" />
        </mxCell>
        <mxCell id="gRpyRmBpIIZ7N3UadSsL-78" value="&lt;font style=&quot;font-size: 24px;&quot;&gt;others&lt;/font&gt;" style="shape=ext;double=1;whiteSpace=wrap;html=1;rounded=1;strokeColor=#6c8ebf;fontFamily=Helvetica;fontSize=12;fontColor=default;fillColor=#B5CFFC;arcSize=24;sketch=1;fillStyle=dashed;" parent="gRpyRmBpIIZ7N3UadSsL-79" vertex="1">
          <mxGeometry x="278" y="326.5306122448979" width="160" height="81.63265306122447" as="geometry" />
        </mxCell>
        <mxCell id="gRpyRmBpIIZ7N3UadSsL-83" value="" style="shape=flexArrow;endArrow=classic;html=1;rounded=0;strokeWidth=2;fontFamily=Helvetica;fontSize=36;fontColor=default;width=37.083333333333336;endSize=19.652083333333334;" parent="1" edge="1">
          <mxGeometry width="50" height="50" relative="1" as="geometry">
            <mxPoint x="1580" y="760" as="sourcePoint" />
            <mxPoint x="1580" y="540" as="targetPoint" />
          </mxGeometry>
        </mxCell>
        <mxCell id="gRpyRmBpIIZ7N3UadSsL-85" value="" style="shape=flexArrow;endArrow=classic;html=1;rounded=0;strokeWidth=2;fontFamily=Helvetica;fontSize=36;fontColor=default;width=37.083333333333336;endSize=19.652083333333334;" parent="1" edge="1">
          <mxGeometry width="50" height="50" relative="1" as="geometry">
            <mxPoint x="1870" y="1090" as="sourcePoint" />
            <mxPoint x="2130" y="1090" as="targetPoint" />
          </mxGeometry>
        </mxCell>
        <mxCell id="gRpyRmBpIIZ7N3UadSsL-87" value="可观测数据&lt;br&gt;采集" style="text;html=1;strokeColor=none;fillColor=none;align=center;verticalAlign=middle;whiteSpace=wrap;rounded=0;dashed=1;strokeWidth=3;fontFamily=Helvetica;fontSize=36;fontColor=default;" parent="1" vertex="1">
          <mxGeometry x="1558" y="652" width="275" height="59" as="geometry" />
        </mxCell>
        <mxCell id="gRpyRmBpIIZ7N3UadSsL-88" value="可观测数据&lt;br&gt;转储" style="text;html=1;strokeColor=none;fillColor=none;align=center;verticalAlign=middle;whiteSpace=wrap;rounded=0;dashed=1;strokeWidth=3;fontFamily=Helvetica;fontSize=36;fontColor=default;" parent="1" vertex="1">
          <mxGeometry x="1881" y="1010" width="200" height="30" as="geometry" />
        </mxCell>
        <mxCell id="gRpyRmBpIIZ7N3UadSsL-91" value="" style="shape=flexArrow;endArrow=classic;html=1;rounded=0;strokeWidth=2;fontFamily=Helvetica;fontSize=36;fontColor=default;exitX=0.174;exitY=1.002;exitDx=0;exitDy=0;exitPerimeter=0;entryX=0.174;entryY=-0.019;entryDx=0;entryDy=0;entryPerimeter=0;width=20;endWidth=9.743589743589745;endSize=12.323076923076924;" parent="1" edge="1">
          <mxGeometry width="50" height="50" relative="1" as="geometry">
            <mxPoint x="2363.2000000000007" y="520.48" as="sourcePoint" />
            <mxPoint x="2363.2000000000007" y="596.2950000000001" as="targetPoint" />
          </mxGeometry>
        </mxCell>
        <mxCell id="gRpyRmBpIIZ7N3UadSsL-92" value="" style="shape=flexArrow;endArrow=classic;html=1;rounded=0;strokeWidth=2;fontFamily=Helvetica;fontSize=36;fontColor=default;exitX=0.763;exitY=0;exitDx=0;exitDy=0;exitPerimeter=0;width=20;endWidth=9.743589743589745;endSize=12.323076923076924;" parent="1" edge="1">
          <mxGeometry width="50" height="50" relative="1" as="geometry">
            <mxPoint x="2717.4000000000005" y="600" as="sourcePoint" />
            <mxPoint x="2717" y="520" as="targetPoint" />
          </mxGeometry>
        </mxCell>
        <mxCell id="gRpyRmBpIIZ7N3UadSsL-94" value="" style="shape=flexArrow;endArrow=classic;html=1;rounded=0;strokeWidth=2;fontFamily=Helvetica;fontSize=36;fontColor=default;width=20;endWidth=9.743589743589745;endSize=12.323076923076924;" parent="1" edge="1">
          <mxGeometry width="50" height="50" relative="1" as="geometry">
            <mxPoint x="2549" y="872" as="sourcePoint" />
            <mxPoint x="2549" y="803" as="targetPoint" />
          </mxGeometry>
        </mxCell>
        <mxCell id="KB6jE1plS6S5uRUsKBrv-2" value="" style="rounded=1;whiteSpace=wrap;html=1;pointerEvents=0;fontFamily=Helvetica;fontSize=12;fillColor=#ffe6cc;strokeWidth=1;strokeColor=#FF9933;" parent="1" vertex="1">
          <mxGeometry x="1510" y="1550" width="710" height="110" as="geometry" />
        </mxCell>
        <mxCell id="KB6jE1plS6S5uRUsKBrv-5" value="&lt;font style=&quot;font-size: 36px;&quot;&gt;数据湖&lt;/font&gt;" style="rounded=1;whiteSpace=wrap;html=1;pointerEvents=0;strokeColor=#9673a6;strokeWidth=3;fontFamily=Helvetica;fontSize=12;fillColor=#e1d5e7;dashed=1;" parent="1" vertex="1">
          <mxGeometry x="1510" y="1980" width="710" height="180" as="geometry" />
        </mxCell>
        <mxCell id="KB6jE1plS6S5uRUsKBrv-13" value="" style="endArrow=none;dashed=1;html=1;strokeWidth=4;rounded=0;fontFamily=Helvetica;fontSize=12;fontColor=default;" parent="1" edge="1">
          <mxGeometry width="50" height="50" relative="1" as="geometry">
            <mxPoint x="1490" y="1520" as="sourcePoint" />
            <mxPoint x="2250" y="1520" as="targetPoint" />
          </mxGeometry>
        </mxCell>
        <mxCell id="KB6jE1plS6S5uRUsKBrv-14" value="用户平面" style="text;html=1;strokeColor=none;fillColor=none;align=center;verticalAlign=middle;whiteSpace=wrap;rounded=0;dashed=1;pointerEvents=0;strokeWidth=3;fontFamily=Helvetica;fontSize=36;fontColor=default;" parent="1" vertex="1">
          <mxGeometry x="1765" y="1450" width="200" height="70" as="geometry" />
        </mxCell>
        <mxCell id="KB6jE1plS6S5uRUsKBrv-15" value="" style="group;strokeColor=#000000;strokeWidth=3;rounded=1;arcSize=7;container=0;" parent="1" vertex="1" connectable="0">
          <mxGeometry x="1510" y="1692" width="710" height="241" as="geometry" />
        </mxCell>
        <mxCell id="KB6jE1plS6S5uRUsKBrv-16" value="服务前端" style="text;html=1;strokeColor=none;fillColor=none;align=center;verticalAlign=middle;whiteSpace=wrap;rounded=0;dashed=1;pointerEvents=0;strokeWidth=3;fontFamily=Helvetica;fontSize=36;fontColor=default;" parent="1" vertex="1">
          <mxGeometry x="1777" y="1587" width="180" height="40" as="geometry" />
        </mxCell>
        <mxCell id="KB6jE1plS6S5uRUsKBrv-19" value="" style="endArrow=none;dashed=1;html=1;strokeWidth=2;rounded=0;fontFamily=Helvetica;fontSize=12;fontColor=default;dashPattern=1 4;" parent="1" edge="1">
          <mxGeometry width="50" height="50" relative="1" as="geometry">
            <mxPoint x="1493" y="1951" as="sourcePoint" />
            <mxPoint x="2253" y="1951" as="targetPoint" />
          </mxGeometry>
        </mxCell>
        <mxCell id="acDIruoeNwsmpEt8fmZW-1" value="" style="shape=arrow;endArrow=classic;html=1;rounded=0;strokeWidth=2;fontFamily=Helvetica;fontSize=36;fontColor=default;dashed=1;dashPattern=1 1;" parent="1" edge="1">
          <mxGeometry width="50" height="50" relative="1" as="geometry">
            <mxPoint x="1827" y="557" as="sourcePoint" />
            <mxPoint x="2132" y="904" as="targetPoint" />
          </mxGeometry>
        </mxCell>
        <mxCell id="KB6jE1plS6S5uRUsKBrv-17" value="统一化&lt;br&gt;数据源" style="text;html=1;strokeColor=none;fillColor=none;align=center;verticalAlign=middle;whiteSpace=wrap;rounded=0;dashed=1;pointerEvents=0;strokeWidth=3;fontFamily=Helvetica;fontSize=36;fontColor=default;" parent="1" vertex="1">
          <mxGeometry x="1190" y="1554" width="160" height="62" as="geometry" />
        </mxCell>
        <mxCell id="KB6jE1plS6S5uRUsKBrv-18" value="处理链" style="text;html=1;strokeColor=none;fillColor=none;align=center;verticalAlign=middle;whiteSpace=wrap;rounded=0;dashed=1;pointerEvents=0;strokeWidth=3;fontFamily=Helvetica;fontSize=36;fontColor=default;" parent="1" vertex="1">
          <mxGeometry x="2501" y="1771" width="160" height="62" as="geometry" />
        </mxCell>
        <mxCell id="KB6jE1plS6S5uRUsKBrv-6" value="&lt;font style=&quot;font-size: 18px;&quot;&gt;Adapt&lt;/font&gt;" style="rounded=1;whiteSpace=wrap;html=1;dashed=1;pointerEvents=0;strokeColor=none;strokeWidth=3;fontFamily=Helvetica;fontSize=12;fillColor=#ffc154;" parent="1" vertex="1">
          <mxGeometry x="1606" y="1840" width="80" height="50" as="geometry" />
        </mxCell>
        <mxCell id="KB6jE1plS6S5uRUsKBrv-8" value="&lt;span style=&quot;font-size: 18px;&quot;&gt;Adapt&lt;/span&gt;" style="rounded=1;whiteSpace=wrap;html=1;dashed=1;pointerEvents=0;strokeColor=none;strokeWidth=3;fontFamily=Helvetica;fontSize=12;fillColor=#ffc154;" parent="1" vertex="1">
          <mxGeometry x="1716" y="1840" width="80" height="50" as="geometry" />
        </mxCell>
        <mxCell id="KB6jE1plS6S5uRUsKBrv-10" value="&lt;span style=&quot;font-size: 18px;&quot;&gt;Adapt&lt;/span&gt;" style="rounded=1;whiteSpace=wrap;html=1;dashed=1;pointerEvents=0;strokeColor=none;strokeWidth=3;fontFamily=Helvetica;fontSize=12;fontColor=default;fillColor=#ffc154;gradientColor=none;" parent="1" vertex="1">
          <mxGeometry x="1825" y="1840" width="81" height="50" as="geometry" />
        </mxCell>
        <mxCell id="KB6jE1plS6S5uRUsKBrv-11" value="&lt;span style=&quot;font-size: 18px;&quot;&gt;Adapt&lt;/span&gt;" style="rounded=1;whiteSpace=wrap;html=1;dashed=1;pointerEvents=0;strokeColor=none;strokeWidth=3;fontFamily=Helvetica;fontSize=12;fontColor=default;fillColor=#ffc154;gradientColor=none;" parent="1" vertex="1">
          <mxGeometry x="1936" y="1840" width="80" height="50" as="geometry" />
        </mxCell>
        <mxCell id="KB6jE1plS6S5uRUsKBrv-12" value="&lt;span style=&quot;font-size: 18px;&quot;&gt;Adapt&lt;/span&gt;" style="rounded=1;whiteSpace=wrap;html=1;dashed=1;pointerEvents=0;strokeColor=none;strokeWidth=3;fontFamily=Helvetica;fontSize=12;fontColor=default;fillColor=#ffc154;gradientColor=none;" parent="1" vertex="1">
          <mxGeometry x="2045" y="1840" width="81" height="50" as="geometry" />
        </mxCell>
        <mxCell id="zRir33h0D_i_C-uxktbW-1" value="数据库" style="text;html=1;strokeColor=none;fillColor=none;align=center;verticalAlign=middle;whiteSpace=wrap;rounded=0;dashed=1;strokeWidth=3;fontFamily=Helvetica;fontSize=36;fontColor=default;" vertex="1" parent="1">
          <mxGeometry x="2473" y="1215" width="160" height="20" as="geometry" />
        </mxCell>
        <mxCell id="zRir33h0D_i_C-uxktbW-2" value="数据库" style="text;html=1;strokeColor=none;fillColor=none;align=center;verticalAlign=middle;whiteSpace=wrap;rounded=0;dashed=1;strokeWidth=3;fontFamily=Helvetica;fontSize=36;fontColor=default;" vertex="1" parent="1">
          <mxGeometry x="2674" y="1215" width="160" height="20" as="geometry" />
        </mxCell>
        <mxCell id="zRir33h0D_i_C-uxktbW-5" value="" style="rhombus;whiteSpace=wrap;html=1;rounded=1;strokeColor=#000000;strokeWidth=3;fillColor=none;" vertex="1" parent="1">
          <mxGeometry x="2327" y="1025" width="50" height="50" as="geometry" />
        </mxCell>
        <mxCell id="zRir33h0D_i_C-uxktbW-6" value="" style="rhombus;whiteSpace=wrap;html=1;rounded=1;strokeColor=#000000;strokeWidth=3;fillColor=none;" vertex="1" parent="1">
          <mxGeometry x="2374" y="1028" width="50" height="50" as="geometry" />
        </mxCell>
        <mxCell id="zRir33h0D_i_C-uxktbW-7" value="" style="rhombus;whiteSpace=wrap;html=1;rounded=1;strokeColor=#000000;strokeWidth=3;fillColor=none;" vertex="1" parent="1">
          <mxGeometry x="2478" y="1027" width="50" height="50" as="geometry" />
        </mxCell>
        <mxCell id="zRir33h0D_i_C-uxktbW-8" value="" style="rhombus;whiteSpace=wrap;html=1;rounded=1;strokeColor=#000000;strokeWidth=3;fillColor=none;" vertex="1" parent="1">
          <mxGeometry x="2525" y="1025" width="50" height="50" as="geometry" />
        </mxCell>
        <mxCell id="zRir33h0D_i_C-uxktbW-9" value="" style="rhombus;whiteSpace=wrap;html=1;rounded=1;strokeColor=#000000;strokeWidth=3;fillColor=none;" vertex="1" parent="1">
          <mxGeometry x="2572" y="1028" width="50" height="50" as="geometry" />
        </mxCell>
        <mxCell id="zRir33h0D_i_C-uxktbW-10" value="" style="rhombus;whiteSpace=wrap;html=1;rounded=1;strokeColor=#000000;strokeWidth=3;fillColor=none;" vertex="1" parent="1">
          <mxGeometry x="2678" y="1027" width="50" height="50" as="geometry" />
        </mxCell>
        <mxCell id="zRir33h0D_i_C-uxktbW-11" value="" style="rhombus;whiteSpace=wrap;html=1;rounded=1;strokeColor=#000000;strokeWidth=3;fillColor=none;" vertex="1" parent="1">
          <mxGeometry x="2725" y="1025" width="50" height="50" as="geometry" />
        </mxCell>
        <mxCell id="zRir33h0D_i_C-uxktbW-12" value="" style="rhombus;whiteSpace=wrap;html=1;rounded=1;strokeColor=#000000;strokeWidth=3;fillColor=none;" vertex="1" parent="1">
          <mxGeometry x="2772" y="1028" width="50" height="50" as="geometry" />
        </mxCell>
      </root>
    </mxGraphModel>
  </diagram>
</mxfile>
